<?xml version="1.0" encoding="utf-8"?>
<!-- Generator: Adobe Illustrator 16.0.0, SVG Export Plug-In . SVG Version: 6.00 Build 0)  -->
<!DOCTYPE svg PUBLIC "-//W3C//DTD SVG 1.1//EN" "http://www.w3.org/Graphics/SVG/1.1/DTD/svg11.dtd">
<svg version="1.1" id="Layer_1" xmlns="http://www.w3.org/2000/svg" xmlns:xlink="http://www.w3.org/1999/xlink" x="0px" y="0px"
	 width="256px" height="256px" viewBox="0 0 256 256" enable-background="new 0 0 256 256" xml:space="preserve">
<path fill="#5FA400" d="M143.19,219.392c-3.042-2.666-5.97-5.212-8.801-7.673l-1.988-1.729
	c-28.675-24.945-47.619-41.425-73.699-78.217c-0.244-0.345-0.487-0.373-0.725-0.746c-0.079-0.121-0.161-0.027-0.243-0.027H3v-15
	h46.657c-7.761-17-7.682-35.083,0.279-50.485c5.118-9.9,13.238-18.036,23.483-23.92C83.446,35.836,94.823,33,106.319,33h0.413
	c0.158,0,0.348-0.215,0.522-0.215c0.329,0,0.604-0.103,0.824-0.099l0.231-0.049c0.159,0,0.322-0.026,0.646-0.021
	c0.262,0.003,0.752-0.008,1.51-0.004c13.556,0.087,26.96,4.456,37.962,12.353c11-7.896,24.398-12.275,37.941-12.362
	c0.78-0.004,1.264-0.008,1.57-0.012c0.273-0.006,0.438,0.207,0.547,0.207c0.381-0.003,0.887,0.204,1.668,0.204h0.365
	c11.505,0,22.881,2.832,32.907,8.59c10.259,5.894,18.378,14.122,23.483,23.995c10.389,20.098,7.275,43.579-8.766,66.211
	c-28.93,40.822-83.379,85.858-85.683,87.756l-4.694,3.857L143.19,219.392z M75.295,131c22.759,30,40.413,45.847,66.596,68.626
	c1.063,0.924,2.14,1.682,3.231,2.625c0.943,0.816,1.896,1.554,2.862,2.392c14.49-12.4,55.541-48.776,78.474-81.138
	c12.792-18.049,15.536-36.275,7.729-51.379C226.408,57.081,208.863,47,190.528,47h-0.335c-0.797,0-1.269-0.047-1.561-0.044
	l-0.178-0.024l-0.066-0.014l-0.24-0.003c-0.373,0.005-0.887,0.004-1.701,0.008c-12.129,0.078-24.27,4.651-33.307,12.551
	l-4.713,4.119l-4.713-4.121c-9.037-7.899-21.185-12.473-33.328-12.551c-0.796-0.004-1.317-0.008-1.644-0.012l-0.193-0.003
	l-1.434,0.18L107.012,47c-0.059,0-0.273,0-0.319,0l-0.333-0.042c-18.373,0-35.919,10.103-43.702,25.158
	C55.932,85.127,56.968,101,65.641,116h51.096L156,76.704v51.912L171.552,108H205v14h-26.18L142,172.451v-61.202L122.665,131H75.295z
	"/>
</svg>
