<?xml version="1.0" encoding="utf-8"?>
<!-- Generator: Adobe Illustrator 16.0.0, SVG Export Plug-In . SVG Version: 6.00 Build 0)  -->
<!DOCTYPE svg PUBLIC "-//W3C//DTD SVG 1.1//EN" "http://www.w3.org/Graphics/SVG/1.1/DTD/svg11.dtd">
<svg version="1.1" id="Layer_1" xmlns="http://www.w3.org/2000/svg" xmlns:xlink="http://www.w3.org/1999/xlink" x="0px" y="0px"
	 width="256px" height="256px" viewBox="0 0 256 256" enable-background="new 0 0 256 256" xml:space="preserve">
<g>
	<path fill="#11A8AD" d="M118.431,101.189L207,12.632c4.872-4.872,11.349-7.555,18.238-7.555c6.891,0,13.367,2.683,18.238,7.555
		c10.05,10.052,10.051,26.411,0.002,36.467l-88.57,88.565l-48.637,12.153L118.431,101.189z M129.733,107.59l-6.258,25.024
		l25.033-6.255l65.3-65.294l-18.771-18.771L129.733,107.59z M225.238,17.595c-3.546,0-6.879,1.381-9.387,3.889L203.89,33.444
		l18.771,18.77l11.966-11.965c5.171-5.175,5.17-13.594,0-18.768C232.119,18.975,228.785,17.595,225.238,17.595z"/>
	<path fill="#11A8AD" d="M37.233,250.923c-17.781,0-32.248-14.658-32.248-32.676V62.005c0-17.69,14.467-32.082,32.248-32.082h92.752
		v13H37.233c-10.974,0-19.248,8.203-19.248,19.082v156.242c0,11.033,8.455,19.676,19.248,19.676h156.261
		c10.93,0,19.491-8.643,19.491-19.676v-92.324h13v92.324c0,17.712-14.879,32.676-32.491,32.676H37.233z"/>
</g>
</svg>
