<?xml version="1.0" encoding="utf-8"?>
<!-- Generator: Adobe Illustrator 16.0.0, SVG Export Plug-In . SVG Version: 6.00 Build 0)  -->
<!DOCTYPE svg PUBLIC "-//W3C//DTD SVG 1.1//EN" "http://www.w3.org/Graphics/SVG/1.1/DTD/svg11.dtd">
<svg version="1.1" id="Layer_1" xmlns="http://www.w3.org/2000/svg" xmlns:xlink="http://www.w3.org/1999/xlink" x="0px" y="0px"
	 width="256px" height="256px" viewBox="0 0 256 256" enable-background="new 0 0 256 256" xml:space="preserve">
<path fill="#605CA8" d="M65,252.923v-85.069l-29.816-16.694l0.007-1.453c0.033-0.379,3.187-38.086,5.015-53.191
	c1.66-13.749,3.79-17.526,7.366-23.785c0.514-0.896,1.045-1.852,1.629-2.903c1.006-1.816,4.061-7.34,49.109-18.401l3.137-0.771
	l0.181,0.2L120,46.694V41.25c0-1.076,0.006-2.1,0.422-3.044c2.145-5.796,8.55-7.655,9.647-7.931c2.498-0.802,4.12-3.116,4.12-5.779
	c0-3.339-2.769-6.16-6.517-6.16c-3.453,0-6.673,2.387-6.673,5.348v3.744c0,4.316-3.705,7.698-8.002,7.698
	c-4.295,0-7.998-3.382-7.998-7.698v-4.275c0-0.803,0.135-1.499,0.314-2.062C107.061,10.765,116.642,3,127.735,3
	c12.521,0,23.163,9.643,23.163,21.496c0,9.206-6.898,16.847-13.898,19.923v2.355l17.426,4.113l-0.257-0.214l2.94,0.751
	c45.012,11.052,48.011,16.585,49.017,18.402c0.57,1.029,1.078,1.967,1.582,2.85c3.58,6.268,5.727,10.051,7.391,23.839
	c1.828,15.102,5.119,52.807,5.152,53.186l0.647,1.475L191,167.871v85.052L128.859,253L65,252.923z M127.203,241h0.84L177,240.332
	v-80.029l5.479-2.98l24.372-13.338c-1.971-22.601-3.464-38.051-4.419-45.937c-1.357-11.236-2.579-13.363-5.827-19.047
	c-0.326-0.575-0.688-1.2-1.063-1.867c-1.174-0.736-4.951-2.759-15.08-6.005c-4.279-1.369-9.273-2.822-14.869-4.328
	c-4.725,16.827-20.261,29.012-37.81,29.308l-0.207,0.002l-0.141-0.002c-17.549-0.295-33.082-12.48-37.809-29.308
	c-5.566,1.498-10.557,2.952-14.863,4.331c-10.104,3.236-13.883,5.262-15.063,6.003c-0.105,0.189-0.209,0.376-0.309,0.561
	c-0.254,0.46-0.496,0.897-0.73,1.312c-3.193,5.594-4.389,7.687-5.76,19.038c-1.229,10.154-3.016,30.777-4.082,43.099l-0.256,2.933
	l24.191,13.295L79,160.34v79.989L127.203,241z M102.867,66.275c4.037,10.116,13.695,16.877,24.738,17.077
	c11.033-0.2,20.689-6.954,24.734-17.059l-19.953-4.571c-1.318,0.84-2.947,1.306-4.631,1.306c-1.727,0-3.395-0.487-4.74-1.364
	L102.867,66.275z"/>
</svg>
