<?xml version="1.0" encoding="utf-8"?>
<!-- Generator: Adobe Illustrator 19.0.0, SVG Export Plug-In . SVG Version: 6.00 Build 0)  -->
<svg version="1.1" id="Layer_1" xmlns="http://www.w3.org/2000/svg" xmlns:xlink="http://www.w3.org/1999/xlink" x="0px" y="0px"
	 viewBox="0 0 420 420" style="enable-background:new 0 0 420 420;" xml:space="preserve">
<style type="text/css">
	.st0{fill-rule:evenodd;clip-rule:evenodd;fill:#666666;}
</style>
<g>
	<path class="st0" d="M412,104.8c-0.1,0.1-235.8,235.5-235.8,235.5c-4.9,4.9-15.4,4.7-21.2-1.1L8.3,192.8c-6.4-6.5-6.2-17,0.2-23.4
		c6.5-6.5,17-6.5,23.5,0c0.3,0.3,122.9,122.8,122.9,122.8c5.7,5.7,15.9,6.6,21.3,1.2c0,0,212.2-211.9,212.3-212
		c6.5-6.5,17-6.5,23.5,0C418.5,87.8,418.5,98.3,412,104.8z"/>
</g>
</svg>
