<?xml version="1.0" encoding="utf-8"?>
<!-- Generator: Adobe Illustrator 16.0.0, SVG Export Plug-In . SVG Version: 6.00 Build 0)  -->
<!DOCTYPE svg PUBLIC "-//W3C//DTD SVG 1.1//EN" "http://www.w3.org/Graphics/SVG/1.1/DTD/svg11.dtd">
<svg version="1.1" id="Layer_1" xmlns="http://www.w3.org/2000/svg" xmlns:xlink="http://www.w3.org/1999/xlink" x="0px" y="0px"
	 width="256px" height="256px" viewBox="0 0 256 256" enable-background="new 0 0 256 256" xml:space="preserve">
<linearGradient id="SVGID_1_" gradientUnits="userSpaceOnUse" x1="224.1104" y1="250.2158" x2="32.8262" y2="58.9317">
	<stop  offset="0" style="stop-color:#B51B29"/>
	<stop  offset="1" style="stop-color:#E3263A"/>
</linearGradient>
<path fill="url(#SVGID_1_)" d="M40.904,249.758c-9.873,0-17.904-7.739-17.904-17.253v-93.747H4v-51h54.836l-2.069-1.762
	c-3.124-2.659-5.749-7.148-7.2-12.315c-1.944-6.925-1.248-14.255,1.961-20.642c4.851-9.651,14.608-15.647,25.465-15.647
	c4.461,0,8.754,1.021,12.762,3.035c2.627,1.319,5.854,4.104,9.59,8.278l1.674-1.04c-2.227-5.527-3.355-9.884-3.355-12.948
	c0-15.701,12.773-28.475,28.475-28.475s28.475,12.772,28.475,28.472c0,3.026-1.016,7.326-3.017,12.781l1.683,1.013
	c3.638-4.05,6.815-6.773,9.445-8.095c3.969-1.994,8.382-3.049,12.762-3.049c10.85-0.001,20.607,6.004,25.465,15.671
	c3.21,6.386,3.906,13.718,1.961,20.646c-1.451,5.166-4.076,9.654-7.201,12.315l-2.068,1.761H252v51h-17v93.747
	c0,9.353-8.207,17.253-17.922,17.253H40.904z M155,239.758h62.078c3.834,0,6.922-3.968,6.922-7.253v-93.747h-69V239.758z
	 M112,239.758h32v-141h-32V239.758z M34,232.505c0,3.285,3.08,7.253,6.904,7.253H101v-101H34V232.505z M155,127.758h87v-29h-87
	V127.758z M15,127.758h86v-29H15V127.758z M76.992,48.382c-6.66,0-12.654,3.694-15.643,9.641c-2.097,4.172-2.443,8.911-0.975,13.343
	c1.467,4.433,4.574,8.029,8.747,10.126c1.298,0.652,7.097,2.779,27.204,2.779c4.034,0,8.41-0.089,13.006-0.263l1.732-0.066
	l-0.924-1.466c-1.652-2.626-3.273-5.135-4.818-7.459C91.594,54.349,85.834,50.758,84.819,50.248
	C82.354,49.01,79.721,48.382,76.992,48.382z M175.484,48.758c-1.926,0-4.832,0.174-7.828,1.678
	c-0.641,0.324-6.627,3.758-20.557,24.74l-1.01,1.519c-1.315,1.972-2.557,3.834-3.766,5.774l-0.913,1.463l1.724,0.065
	c4.56,0.171,8.938,0.257,13.016,0.257c20.074,0,25.897-2.141,27.204-2.797c4.165-2.092,7.271-5.7,8.747-10.159
	c1.477-4.46,1.149-8.862-0.975-13.088c-2.973-5.918-8.82-9.452-15.641-9.452H175.484z M126.137,17.235
	c-9.641,0-17.482,7.842-17.482,17.481c0,1.139,0.625,7.914,12.977,29.527c1.387,2.426,2.885,4.973,4.452,7.568l0.896,1.483
	l0.836-1.518c1.37-2.486,2.688-4.939,3.917-7.293c11.03-21.126,11.888-28.126,11.888-29.769
	C143.619,25.077,135.775,17.235,126.137,17.235z"/>
</svg>
