<?xml version="1.0" encoding="utf-8"?>
<!-- Generator: Adobe Illustrator 16.0.0, SVG Export Plug-In . SVG Version: 6.00 Build 0)  -->
<!DOCTYPE svg PUBLIC "-//W3C//DTD SVG 1.1//EN" "http://www.w3.org/Graphics/SVG/1.1/DTD/svg11.dtd">
<svg version="1.1" id="Layer_1" xmlns="http://www.w3.org/2000/svg" xmlns:xlink="http://www.w3.org/1999/xlink" x="0px" y="0px"
	 width="256px" height="256px" viewBox="0 0 256 256" enable-background="new 0 0 256 256" xml:space="preserve">
<path fill="#ABACAF" d="M143.236,219.392c-3.041-2.666-5.969-5.212-8.801-7.673l-1.988-1.729
	c-28.674-24.945-47.619-41.425-73.697-78.217c-0.244-0.345-0.488-0.372-0.727-0.745c-0.078-0.121-0.16-0.027-0.242-0.027H3v-15
	h46.703c-7.76-17-7.682-35.084,0.279-50.484c5.119-9.9,13.238-18.036,23.484-23.921C83.494,35.836,94.869,33,106.365,33h0.414
	c0.156,0,0.348-0.215,0.521-0.215c0.328,0,0.604-0.104,0.824-0.1l0.23-0.049c0.16,0,0.322-0.027,0.646-0.021
	c0.262,0.003,0.752-0.008,1.51-0.004c13.557,0.087,26.961,4.456,37.963,12.353c11-7.896,24.398-12.275,37.941-12.362
	c0.779-0.004,1.264-0.008,1.57-0.012c0.273-0.006,0.438,0.207,0.547,0.207c0.381-0.004,0.887,0.203,1.668,0.203h0.365
	c11.504,0,22.881,2.832,32.906,8.59c10.26,5.895,18.379,14.122,23.484,23.995c10.389,20.098,7.275,43.579-8.766,66.212
	c-28.93,40.822-83.379,85.857-85.684,87.756l-4.693,3.857L143.236,219.392z M75.342,131c22.76,30,40.414,45.848,66.596,68.627
	c1.064,0.924,2.141,1.682,3.232,2.625c0.943,0.816,1.896,1.555,2.861,2.393c14.49-12.4,55.541-48.777,78.475-81.139
	c12.791-18.049,15.535-36.274,7.729-51.378C226.455,57.081,208.91,47,190.574,47h-0.334c-0.797,0-1.27-0.047-1.561-0.045
	l-0.178-0.023l-0.066-0.014l-0.24-0.004c-0.373,0.005-0.887,0.005-1.701,0.009c-12.129,0.078-24.27,4.651-33.307,12.551
	l-4.713,4.119l-4.713-4.121c-9.037-7.899-21.186-12.473-33.328-12.551c-0.797-0.004-1.316-0.008-1.645-0.012l-0.191-0.003
	l-1.434,0.18L107.059,47c-0.059,0-0.271,0-0.318,0l-0.334-0.043c-18.373,0-35.918,10.104-43.701,25.158
	C55.979,85.127,57.016,101,65.688,116h51.096L156,76.704v51.912L171.6,108H205v14h-26.133L142,172.451v-61.202L122.711,131H75.342z"
	/>
</svg>
