<svg xmlns="http://www.w3.org/2000/svg" viewBox="0 0 32 32">
  <defs>
    <style>
      .cls-1, .cls-2, .cls-4 {
        fill: none;
      }

      .cls-1 {
        stroke: #2165a1;
      }

      .cls-3, .cls-5 {
        stroke: none;
      }

      .cls-5 {
        fill: #2165a1;
      }
    </style>
  </defs>
  <g id="Group_765" data-name="Group 765" transform="translate(-20 -741)">
    <g id="Ellipse_23" data-name="Ellipse 23" class="cls-1" transform="translate(20 741)">
      <circle class="cls-3" cx="16" cy="16" r="16"/>
      <circle class="cls-4" cx="16" cy="16" r="15.5"/>
    </g>
    <g id="Subtraction_11" data-name="Subtraction 11" class="cls-2" transform="translate(-12159.998 712.024)">
      <path class="cls-3" d="M12193.191,53.977a6.192,6.192,0,1,1,0-12.384,6.136,6.136,0,0,1,2.717.628l7.177-7.174,1.854,1.853v3.115l-1.924,0,0,1.844h-1.847l0,1.844h-1.844v1.957h.073l-.3.3a6.11,6.11,0,0,1,.275,1.829A6.2,6.2,0,0,1,12193.191,53.977Zm0-7.82a1.63,1.63,0,1,0,1.63,1.63A1.631,1.631,0,0,0,12193.191,46.157Z"/>
      <path class="cls-5" d="M 12193.19140625 52.97682571411133 C 12196.0537109375 52.97682571411133 12198.3818359375 50.6484375 12198.3818359375 47.78644561767578 C 12198.3818359375 47.25778579711914 12198.3046875 46.74313735961914 12198.15234375 46.25679779052734 L 12197.97265625 45.68252563476563 L 12198.330078125 45.32070541381836 L 12198.330078125 43.70033645629883 L 12198.330078125 42.70033645629883 L 12199.330078125 42.70033645629883 L 12200.171875 42.70033645629883 L 12200.1708984375 41.85798645019531 L 12200.1689453125 40.85639572143555 L 12201.1708984375 40.85639572143555 L 12202.015625 40.85639572143555 L 12202.0146484375 40.0140380859375 L 12202.0126953125 39.01085662841797 L 12203.0166015625 39.01244735717773 L 12203.9384765625 39.01391220092773 L 12203.9384765625 37.31467819213867 L 12203.0849609375 36.46125793457031 L 12196.615234375 42.92815780639648 L 12196.1103515625 43.43273544311523 L 12195.46875 43.11933517456055 C 12194.7548828125 42.77006530761719 12193.98828125 42.59297561645508 12193.19140625 42.59297561645508 C 12190.328125 42.59297561645508 12187.998046875 44.92275619506836 12187.998046875 47.78644561767578 C 12187.998046875 50.6484375 12190.328125 52.97682571411133 12193.19140625 52.97682571411133 M 12193.19140625 45.15688705444336 C 12194.6416015625 45.15688705444336 12195.8212890625 46.33650588989258 12195.8212890625 47.78644561767578 C 12195.8212890625 49.23636627197266 12194.6416015625 50.41596603393555 12193.19140625 50.41596603393555 C 12191.7421875 50.41596603393555 12190.5625 49.23636627197266 12190.5625 47.78644561767578 C 12190.5625 46.33650588989258 12191.7421875 45.15688705444336 12193.19140625 45.15688705444336 M 12193.19140625 53.97682571411133 C 12189.7763671875 53.97682571411133 12186.998046875 51.19983673095703 12186.998046875 47.78644561767578 C 12186.998046875 44.37135696411133 12189.7763671875 41.59297561645508 12193.19140625 41.59297561645508 C 12194.1416015625 41.59297561645508 12195.0556640625 41.80423736572266 12195.908203125 42.22089767456055 L 12203.0849609375 35.04727554321289 L 12204.9384765625 36.90040588378906 L 12204.9384765625 40.01550674438477 L 12203.0146484375 40.01244735717773 L 12203.017578125 41.85639572143555 L 12201.1708984375 41.85639572143555 L 12201.173828125 43.70033645629883 L 12199.330078125 43.70033645629883 L 12199.330078125 45.65762710571289 L 12199.4033203125 45.65762710571289 L 12199.1064453125 45.95780563354492 C 12199.2890625 46.54062652587891 12199.3818359375 47.15621566772461 12199.3818359375 47.78644561767578 C 12199.3818359375 51.19983673095703 12196.6044921875 53.97682571411133 12193.19140625 53.97682571411133 Z M 12193.19140625 46.15688705444336 C 12192.29296875 46.15688705444336 12191.5625 46.88789749145508 12191.5625 47.78644561767578 C 12191.5625 48.68496704101563 12192.29296875 49.41596603393555 12193.19140625 49.41596603393555 C 12194.08984375 49.41596603393555 12194.8212890625 48.68496704101563 12194.8212890625 47.78644561767578 C 12194.8212890625 46.88789749145508 12194.08984375 46.15688705444336 12193.19140625 46.15688705444336 Z"/>
    </g>
  </g>
</svg>
