<svg xmlns="http://www.w3.org/2000/svg" viewBox="0 0 16 16">
  <defs>
    <style>
      .cls-1 {
        fill: #0057b1;
      }
    </style>
  </defs>
  <path id="Exclusion_2" data-name="Exclusion 2" class="cls-1" d="M9.186,16H6.814V13.5a5.575,5.575,0,0,1-1.869-.774L3.181,14.495,1.505,12.819l1.764-1.764a5.576,5.576,0,0,1-.774-1.87H0V6.814H2.5A5.579,5.579,0,0,1,3.27,4.945L1.506,3.18,3.181,1.506,4.946,3.27A5.575,5.575,0,0,1,6.814,2.5V0H9.186V2.5a5.584,5.584,0,0,1,1.868.774L12.819,1.5l1.676,1.676L12.73,4.946A5.574,5.574,0,0,1,13.5,6.814H16v2.37H13.505a5.576,5.576,0,0,1-.775,1.87l1.764,1.764-1.675,1.677-1.764-1.764a5.587,5.587,0,0,1-1.869.774V16ZM8,5.334A2.667,2.667,0,1,0,10.667,8,2.67,2.67,0,0,0,8,5.334Z"/>
</svg>
