<?xml version="1.0" encoding="UTF-8" standalone="no"?>
<!-- Created with Inkscape (http://www.inkscape.org/) -->

<svg
   xmlns:dc="http://purl.org/dc/elements/1.1/"
   xmlns:cc="http://creativecommons.org/ns#"
   xmlns:rdf="http://www.w3.org/1999/02/22-rdf-syntax-ns#"
   xmlns:svg="http://www.w3.org/2000/svg"
   xmlns="http://www.w3.org/2000/svg"
   xmlns:sodipodi="http://sodipodi.sourceforge.net/DTD/sodipodi-0.dtd"
   xmlns:inkscape="http://www.inkscape.org/namespaces/inkscape"
   id="svg4181"
   version="1.1"
   inkscape:version="0.91 r13725"
   width="782.5"
   height="782.5"
   viewBox="0 0 782.5 782.5"
   sodipodi:docname="escudo.svg"
   inkscape:export-filename="C:\Users\gmoretti\Downloads\bitmap.png"
   inkscape:export-xdpi="90"
   inkscape:export-ydpi="90">
  <metadata
     id="metadata4187">
    <rdf:RDF>
      <cc:Work
         rdf:about="">
        <dc:format>image/svg+xml</dc:format>
        <dc:type
           rdf:resource="http://purl.org/dc/dcmitype/StillImage" />
        <dc:title></dc:title>
      </cc:Work>
    </rdf:RDF>
  </metadata>
  <defs
     id="defs4185">
    <inkscape:perspective
       sodipodi:type="inkscape:persp3d"
       inkscape:vp_x="0 : 391.25 : 1"
       inkscape:vp_y="0 : 1000 : 0"
       inkscape:vp_z="782.5 : 391.25 : 1"
       inkscape:persp3d-origin="391.25 : 260.83333 : 1"
       id="perspective4263" />
  </defs>
  <sodipodi:namedview
     pagecolor="#ffffff"
     bordercolor="#666666"
     borderopacity="1"
     objecttolerance="10"
     gridtolerance="10"
     guidetolerance="10"
     inkscape:pageopacity="0"
     inkscape:pageshadow="2"
     inkscape:window-width="1440"
     inkscape:window-height="838"
     id="namedview4183"
     showgrid="false"
     showguides="true"
     inkscape:guide-bbox="true"
     inkscape:zoom="0.8"
     inkscape:cx="518.74748"
     inkscape:cy="345.70267"
     inkscape:window-x="-8"
     inkscape:window-y="-8"
     inkscape:window-maximized="1"
     inkscape:current-layer="svg4181" />
  <path
     style="fill:#aa0000"
     d=""
     id="path4232"
     inkscape:connector-curvature="0" />
  <path
     style="fill:#aa0000"
     d=""
     id="path4234"
     inkscape:connector-curvature="0" />
  <path
     style="fill:#aa0000"
     d=""
     id="path4236"
     inkscape:connector-curvature="0" />
  <path
     style="fill:#aa0000;fill-opacity:1"
     d=""
     id="path4240"
     inkscape:connector-curvature="0" />
  <path
     style="fill:#ffffff;fill-opacity:1"
     d="M 394.51237,689.09131 C 363.843,667.12148 336.9905,643.60811 303.32926,609.2469 224.51135,528.79 170.16349,434.22705 143.99603,332.01389 135.0412,297.03528 128.37697,244.70145 128.37577,209.34874 c -5.5e-4,-16.14509 0.4442,-23.15106 1.56173,-24.60136 0.8643,-1.12167 7.21707,-3.43914 14.21684,-5.18627 15.49088,-3.86649 57.04429,-17.57365 72.34566,-23.86455 33.73138,-13.86809 97.37042,-44.47225 108.31796,-52.09035 1.82488,-1.26989 3.7473,-2.30888 4.27204,-2.30888 1.01151,0 36.02816,-21.895303 58.035,-36.288282 7.21875,-4.721228 13.87507,-8.612776 14.79184,-8.647886 0.91676,-0.03511 10.45932,5.356515 21.20568,11.981388 26.46408,16.314455 41.38599,24.526277 70.87748,39.00529 60.09809,29.50548 108.78715,47.84586 160.03027,60.2808 11.64092,2.82485 22.16192,5.66946 23.38002,6.32137 2.0352,1.0892 2.21385,3.89205 2.20402,34.57879 -0.006,18.36644 -0.56971,39.86228 -1.25296,47.76853 -1.52886,17.6914 -5.76461,48.03923 -8.11269,58.125 -0.96035,4.125 -2.68449,12 -3.83141,17.5 -8.18455,39.24818 -25.89309,87.73922 -47.47498,130 -34.08332,66.74057 -73.6542,120.30308 -128.87987,174.44972 -29.19674,28.62628 -72.33545,64.96464 -77.05343,64.90676 -0.82993,-0.01 -9.1534,-5.49455 -18.4966,-12.1875 z m 8.74738,-253.81978 c 5.21964,-4.68919 42.67775,-37.66509 83.24025,-73.27979 40.5625,-35.61469 74.72512,-65.67509 75.91695,-66.80088 2.04457,-1.93128 1.69687,-3.0167 -6.1571,-19.22021 -4.57824,-9.44532 -8.64711,-17.16554 -9.04195,-17.15602 -0.39485,0.01 -34.93104,30.12125 -76.7471,66.91495 l -76.0292,66.89766 -12.7208,-12.08581 c -6.99644,-6.6472 -22.9136,-21.85268 -35.37148,-33.78995 -12.45787,-11.93729 -23.14537,-21.68153 -23.75,-21.65387 -0.60462,0.0276 -7.1449,5.79328 -14.53393,12.8125 l -13.43462,12.76222 40.00049,38.125 c 22.00028,20.96875 43.79585,41.8652 48.43461,46.43655 4.63878,4.57135 8.94477,8.36822 9.56888,8.4375 0.62411,0.0693 5.40536,-3.71067 10.625,-8.39985 z"
     id="path4316"
     inkscape:connector-curvature="0" />
  <g
     id="g4320"
     inkscape:export-xdpi="90"
     inkscape:export-ydpi="90">
    <path
       inkscape:connector-curvature="0"
       id="path4230-0"
       d="m 408.12854,741.00283 c -3.15868,-1.17014 -8.31166,-3.86561 -11.45106,-5.98992 -3.13943,-2.12432 -6.23431,-3.86239 -6.87758,-3.86239 -0.64325,0 -1.16955,-0.46594 -1.16955,-1.0354 0,-0.56947 -3.74002,-3.44067 -8.31114,-6.38047 -7.26398,-4.67162 -14.65454,-10.01299 -27.84588,-20.12504 -6.09339,-4.67101 -34.33938,-28.54111 -41.29287,-34.89576 -15.74991,-14.39352 -47.444,-46.66223 -58.43612,-59.49557 -6.55421,-7.65209 -12.87533,-14.92377 -14.04691,-16.1593 -4.25664,-4.489 -21.29932,-26.90287 -30.46729,-40.06941 -3.39574,-4.8768 -8.43554,-11.9223 -11.19954,-15.65669 -2.76402,-3.73438 -5.94913,-8.45638 -7.07804,-10.49331 -1.12891,-2.03694 -4.33629,-7.31445 -7.1275,-11.72783 -7.32937,-11.58889 -22.96297,-40.31817 -30.90193,-56.78733 -9.06247,-18.79981 -14.47389,-30.54532 -14.47389,-31.4156 0,-0.38967 -1.08484,-3.06343 -2.41076,-5.94169 -6.71946,-14.58647 -22.76684,-63.65199 -25.33141,-77.45187 -0.44164,-2.37642 -1.8047,-7.93171 -3.02903,-12.34507 -1.22432,-4.41337 -3.42863,-14.69065 -4.89846,-22.83839 -1.46982,-8.14775 -3.16051,-16.48067 -3.75707,-18.51761 -1.38328,-4.72316 -7.046796,-68.59268 -7.607998,-85.79825 -0.307486,-9.4271 1.613588,-37.44016 2.844818,-41.48308 2.28358,-7.49845 6.9698,-9.73535 33.72402,-16.09758 47.17742,-11.21895 115.51757,-39.0107 169.91665,-69.099665 4.06321,-2.247431 8.77041,-4.700405 10.46042,-5.45105 1.69,-0.750648 4.83896,-2.715517 6.9977,-4.366378 2.15874,-1.65086 4.18878,-3.001564 4.51121,-3.001564 1.99283,0 48.52062,-29.611182 56.21694,-35.777535 17.29536,-13.857189 23.11062,-16.20815 31.88946,-12.892074 3.11552,1.17684 7.98071,3.720484 10.81155,5.652544 2.83082,1.932059 5.45789,3.512834 5.83792,3.512834 0.38003,0 3.11416,1.854525 6.07587,4.121166 2.9617,2.266642 9.19984,6.232837 13.86255,8.813766 4.6627,2.580928 9.30995,5.409889 10.32721,6.286575 1.01726,0.876688 6.83506,4.183888 12.92844,7.349335 6.09338,3.165446 11.63295,6.190555 12.31015,6.722461 1.76222,1.384114 29.3467,15.369245 48.07496,24.373646 19.74432,9.492915 35.65065,16.444699 46.11796,20.155629 4.40182,1.56056 8.60859,3.29445 9.34836,3.85308 2.26868,1.71316 47.2027,16.77287 64.03638,21.46188 8.73568,2.43332 20.20225,5.19474 25.48127,6.13649 5.27903,0.94175 11.37387,2.28958 13.54409,2.99518 2.17021,0.7056 7.46643,2.12458 11.76938,3.15329 9.94272,2.37701 14.54531,5.6506 16.14785,11.48513 2.11026,7.68307 4.81636,48.33997 3.71397,55.79944 -0.55186,3.73438 -1.34249,18.17812 -1.75691,32.09719 -0.7167,24.07185 -1.18968,29.45438 -4.2306,48.14578 -0.71801,4.41336 -1.91549,13.01398 -2.66106,19.11248 -0.74556,6.09849 -1.79786,11.65377 -2.33845,12.34508 -0.85581,1.09438 -2.02555,6.88115 -4.24675,21.009 -1.76513,11.22692 -22.04583,76.61562 -25.84506,83.32924 -0.96058,1.69745 -3.75817,8.32192 -6.21683,14.72105 -4.88455,12.71297 -27.93155,59.599 -34.63483,70.45995 -2.30482,3.73438 -4.89645,8.17861 -5.75915,9.87605 -0.8627,1.69745 -2.64217,4.75286 -3.95438,6.7898 -21.55388,33.45803 -31.87846,48.26946 -46.85652,67.21939 -36.75591,46.50281 -88.61317,97.87017 -128.66876,127.45323 -5.75623,4.25127 -11.01995,8.15182 -11.69715,8.6679 -6.74493,5.14017 -12.64321,9.25132 -14.15972,9.86945 -1.0158,0.41405 -3.78619,1.55438 -6.1564,2.53407 -3.84487,1.58922 -4.92865,1.55188 -10.05253,-0.34628 z m 17.16762,-46.87279 c 41.03827,-30.96151 93.01187,-81.92815 122.1693,-119.80232 1.69301,-2.19914 4.51494,-5.72847 6.27095,-7.84294 8.57913,-10.33042 31.88933,-44.22278 42.59031,-61.92511 9.52457,-15.75617 14.21387,-24.30553 24.00576,-43.76623 11.9626,-23.77488 14.40329,-29.06776 17.59807,-38.16316 1.05262,-2.99677 2.40618,-6.05218 3.0079,-6.78978 0.60172,-0.7376 3.43378,-8.28519 6.29345,-16.77243 2.85967,-8.48724 5.71042,-16.41576 6.33502,-17.61894 1.03192,-1.9879 9.8772,-33.634 14.05328,-50.27895 0.93692,-3.73439 1.71217,-8.76192 1.72273,-11.1723 0.0111,-2.41037 0.53247,-4.91025 1.15974,-5.55527 0.62726,-0.64504 2.26355,-8.67242 3.63616,-17.83864 5.08122,-33.93173 6.30486,-50.80428 6.30486,-86.936 0,-32.25661 -0.1798,-35.28925 -2.15474,-36.34273 -1.1851,-0.63215 -7.41847,-2.29411 -13.8519,-3.69322 -14.12577,-3.07203 -35.64411,-8.63908 -37.25791,-9.63908 -0.64208,-0.39787 -4.8499,-1.71617 -9.35073,-2.92956 -10.43801,-2.814 -40.6788,-13.15809 -42.50382,-14.53875 -0.76263,-0.57695 -8.03553,-3.44396 -16.16197,-6.37116 -8.12645,-2.92721 -15.89259,-6.05587 -17.25808,-6.95258 -1.36549,-0.89673 -4.68994,-2.41455 -7.38768,-3.37295 -8.28784,-2.94435 -64.1031,-30.001661 -67.56129,-32.751393 -0.75363,-0.599231 -5.80283,-3.424168 -11.22046,-6.277629 -10.80094,-5.688837 -11.90084,-6.315242 -20.92032,-11.914336 -3.39231,-2.105876 -9.69337,-5.994573 -14.00235,-8.641551 -4.30897,-2.646976 -9.84972,-6.07439 -12.31279,-7.616471 -2.46307,-1.54208 -5.0496,-3.082547 -5.74784,-3.423258 -1.02367,-0.499514 -20.60256,11.687157 -31.97502,19.902512 -1.35441,0.978413 -8.00332,5.190569 -14.77536,9.360352 -6.77204,4.169783 -15.17708,9.442112 -18.67786,11.716289 -3.50078,2.274177 -6.92418,4.134865 -7.60755,4.134865 -0.68337,0 -1.99763,0.69441 -2.92059,1.54314 -1.98348,1.82395 -6.25015,4.07578 -42.91216,22.64783 -15.28564,7.74332 -28.24574,14.07876 -28.80021,14.07876 -0.55448,0 -3.28513,1.07843 -6.06812,2.39654 -9.15598,4.33651 -27.16419,12.07706 -30.30122,13.02454 -1.69301,0.51133 -3.63228,1.34484 -4.30948,1.85223 -0.6772,0.50738 -3.44759,1.61606 -6.1564,2.46369 -2.70882,0.84765 -6.58735,2.27354 -8.61896,3.16863 -5.30497,2.33732 -32.45705,11.2162 -37.55405,12.2804 -2.37021,0.49488 -4.88803,1.36428 -5.59515,1.93202 -0.70712,0.56772 -6.80196,2.2255 -13.54408,3.68393 -6.74212,1.45843 -12.951,3.21991 -13.7975,3.9144 -1.94778,1.59798 -2.14782,40.60398 -0.29617,57.74772 6.0183,55.72097 9.32846,74.38585 19.26639,108.63664 7.53974,25.98555 22.55053,65.9267 33.38949,88.84374 3.47538,7.34805 24.41258,45.61664 29.4028,53.74184 10.11175,16.46419 24.78642,38.01377 36.53699,53.6542 9.37471,12.47807 11.60798,15.22636 23.61235,29.05778 2.94646,3.39489 7.67549,8.95018 10.50898,12.34507 19.1785,22.9783 73.55738,74.07687 96.56119,90.73628 3.28145,2.37642 9.62052,6.97878 14.08683,10.22745 10.00189,7.2751 20.22508,14.25399 21.04899,14.36916 0.33861,0.0473 5.75671,-3.79265 12.04022,-8.53327 z"
       style="fill:#aa0000" />
    <rect
       transform="matrix(0.75093636,-0.66037458,0.43169284,0.90202067,0,0)"
       y="577.67065"
       x="168.81598"
       height="37.952698"
       width="228.14641"
       id="rect4293"
       style="fill:#aa0000;fill-opacity:1" />
    <rect
       transform="matrix(0.72302818,0.69081853,-0.7321946,0.68109549,0,0)"
       y="12.140678"
       x="458.73325"
       height="37.207932"
       width="135.08229"
       id="rect4310"
       style="fill:#aa0000;fill-opacity:1" />
    <path
       inkscape:export-ydpi="90"
       inkscape:export-xdpi="90"
       inkscape:connector-curvature="0"
       id="path4318"
       d="M 394.64019,689.23778 C 366.21031,668.98535 348.5808,653.82825 314.1779,620.05975 237.25724,544.55754 185.21783,461.89736 153.5485,364.91361 141.61548,328.3701 136.44451,303.11395 130.92641,254.42233 c -2.98864,-26.37165 -3.55567,-66.33278 -0.98891,-69.69223 0.85937,-1.12476 6.90625,-3.42222 13.4375,-5.10545 45.38774,-11.69728 88.56346,-28.77034 146.25,-57.83191 39.21717,-19.75699 56.8869,-29.921854 85.625,-49.257496 13.03635,-8.77115 25.4853,-16.237918 27.07265,-16.237918 0.77199,0 10.4652,5.558251 21.54047,12.351669 74.0669,45.431575 159.42815,81.937545 233.14984,99.709885 9.95835,2.40069 19.11994,4.90749 20.35906,5.57065 2.08608,1.11643 2.25267,3.7259 2.2487,35.22427 -0.006,50.81374 -3.15908,79.25709 -14.02352,126.51853 -14.26003,62.03258 -42.5218,127.16548 -80.2613,184.97247 -28.8852,44.24451 -56.71959,77.97115 -96.51193,116.94248 -28.6256,28.03497 -71.06431,63.75378 -75.6668,63.68543 -0.91145,-0.0135 -9.24408,-5.42926 -18.51698,-12.03493 z M 478.0557,369.29103 c 46.58186,-40.97847 84.8789,-75.30517 85.10452,-76.28155 0.50522,-2.18623 -14.8594,-34.40583 -16.1801,-33.9297 -0.52262,0.1884 -35.06721,30.34138 -76.76577,67.00662 l -75.81556,66.66408 -8.94939,-8.54979 c -4.92218,-4.70239 -20.09116,-19.2022 -33.70888,-32.22181 -13.61772,-13.0196 -25.82827,-24.42063 -27.13458,-25.33559 -2.15329,-1.50823 -3.66617,-0.47173 -16.19955,11.09869 -7.60345,7.01925 -13.39289,13.15575 -12.86543,13.63665 0.52748,0.4809 22.55389,21.47183 48.94759,46.64653 26.3937,25.17469 48.18752,45.77217 48.43071,45.77217 0.24318,0 38.55458,-33.52784 85.13644,-74.5063 z"
       style="fill:#ffffff;fill-opacity:1" />
  </g>
</svg>
