<?xml version="1.0" encoding="utf-8"?>
<!-- Generator: Adobe Illustrator 16.0.0, SVG Export Plug-In . SVG Version: 6.00 Build 0)  -->
<!DOCTYPE svg PUBLIC "-//W3C//DTD SVG 1.1//EN" "http://www.w3.org/Graphics/SVG/1.1/DTD/svg11.dtd">
<svg version="1.1" id="Layer_1" xmlns="http://www.w3.org/2000/svg" xmlns:xlink="http://www.w3.org/1999/xlink" x="0px" y="0px"
	 width="256px" height="256px" viewBox="0 0 256 256" enable-background="new 0 0 256 256" xml:space="preserve">
<path fill="#ABACAF" d="M225.515,250c-5.497,0-9.909-1.572-10.395-1.751l-1.297-0.481l-75.344-78.452l-2.149,1.814
	c-5.987,5.055-11.98,9.859-17.775,14.507l-0.201,0.16c-6.201,4.971-12.059,9.667-17.395,14.248l-1.498,1.286l7.171,22.956
	l0.136,0.253c2.484,4.612,2.868,11.809-3.504,18.174c-2.331,2.328-5.365,3.559-8.775,3.559c-3.71,0-6.641-1.433-7.45-1.872
	L61.59,230.382l-1.486,0.91c-9.543,5.838-19.813,9.323-27.476,9.323c-6.678,0-10.576-2.497-12.67-4.592
	c-9.093-9.081-3.133-27.292,4.732-40.128l0.912-1.488l-14.009-25.403c-1.896-3.509-3.685-10.89,1.665-16.25
	c4.277-4.276,8.6-5.175,11.473-5.175c2.932,0,5.248,0.901,6.675,1.658l0.249,0.13l23.004,7.186l1.286-1.498
	c4.569-5.326,9.23-11.137,14.166-17.288c4.73-5.897,9.623-11.996,14.756-18.073l1.816-2.152L8.215,42.234l-0.48-1.297
	c-0.239-0.647-5.76-15.989,4.209-25.955C17.824,9.106,24.868,6,32.312,6c6.458,0,11.079,2.268,12.341,2.962l94.422,49.765
	l1.55-1.932c25.421-31.705,49.628-47.781,71.945-47.781c15.434,0,24.288,8.16,25.247,9.091l0.151,0.151
	c1.03,1.048,10.09,10.791,8.981,28.122c-1.375,21.532-17.427,44.752-47.709,69.014l-1.934,1.548l49.76,94.332
	c3.333,5.949,6.353,20.418-5.988,32.755C237.169,247.935,231.787,250,225.515,250z M220.502,237.298l0.907,0.188
	c1.413,0.297,2.795,0.447,4.105,0.447c3.043,0,5.407-0.821,7.026-2.44c8.893-8.89,4.229-17.881,4.026-18.26l-0.115-0.211
	l-54.583-103.472l4.073-3.095c38.631-29.353,47.931-51.242,48.93-64.437c0.907-11.986-4.803-18.535-5.457-19.242l-0.113-0.118
	c-0.678-0.622-6.385-5.579-16.732-5.579c-13.564,0-36.201,8.502-67.008,49.005l-3.095,4.071L38.801,19.515
	c-0.713-0.35-3.208-1.448-6.489-1.448c-4.231,0-8.211,1.833-11.83,5.449c-3.085,3.084-2.56,8.303-1.972,11.139l0.188,0.911
	l84.66,81.249l-3.816,4.338c-7.067,8.03-13.616,16.193-19.95,24.087c-6.437,8.025-12.517,15.605-18.518,22.272l-2.592,2.878
	l-39.066-12.201L39.8,195.155l-2.198,3.088c-9.077,12.755-11.201,24.319-9.778,28.119l0.505,1.35l1.37,0.449
	c0.538,0.177,1.483,0.387,2.93,0.387c6.489,0,16.585-4.082,25.121-10.157l3.091-2.199l36.977,20.369l-12.195-39.04l2.871-2.588
	c6.664-6.009,14.229-12.073,22.238-18.494c7.921-6.348,16.067-12.874,24.134-19.975l4.34-3.82L220.502,237.298z"/>
</svg>
