<svg xmlns="http://www.w3.org/2000/svg" width="31.999" height="31.954" viewBox="0 0 31.999 31.954"><defs><style>.a{fill:#d51e31;}</style></defs><path class="a" d="M-2615.734-4471.046a1.908,1.908,0,0,1-.377-.021l-6.843-1.916v1.934H-2629v-13.816h6.045v1.727h12.018a2.6,2.6,0,0,1,2.591,2.591,2.594,2.594,0,0,1-2.59,2.59h2.59l7.461-4.307v0a2.593,2.593,0,0,1,3.538.947,2.593,2.593,0,0,1-.947,3.54h0l-11.315,6.533a1.775,1.775,0,0,1-.784.2h-5.069s-.192,0-.233,0Zm-7.22-3.734,7.485,2.006h5.051l11.287-6.516a.863.863,0,0,0,.288-1.163.864.864,0,0,0-1.162-.327v0l-7.478,4.318a1.882,1.882,0,0,1-.41.172,2.109,2.109,0,0,1-.453.06h-8.636a1.729,1.729,0,0,1-1.727-1.728,1.727,1.727,0,0,1,1.727-1.727h6.045v0a.865.865,0,0,0,.865-.863.864.864,0,0,0-.865-.863h-12.018Zm-4.318,2h2.59v-8.635h-.017v-1.728h-2.573Zm14.52-12.263v-2.165l-.381-.029a7.334,7.334,0,0,1-3.128-.914l.583-2a7.01,7.01,0,0,0,3.434.954c1.435,0,2.4-.724,2.4-1.8,0-.989-.708-1.65-2.446-2.284-1.979-.717-3.81-1.687-3.81-3.917a3.661,3.661,0,0,1,3.23-3.658l.324-.071V-4503h1.858v1.961l.377.033a7.97,7.97,0,0,1,2.582.677l-.586,1.959-.081-.036a6.449,6.449,0,0,0-2.912-.7c-1.589,0-2.154.827-2.154,1.6,0,.963.874,1.482,2.709,2.216,2.545.954,3.579,2.127,3.579,4.05a3.915,3.915,0,0,1-3.394,3.839l-.325.07v2.292Z" transform="translate(2629 4503)"/></svg>