<?xml version="1.0" encoding="utf-8"?>
<!-- Generator: Adobe Illustrator 16.0.0, SVG Export Plug-In . SVG Version: 6.00 Build 0)  -->
<!DOCTYPE svg PUBLIC "-//W3C//DTD SVG 1.1//EN" "http://www.w3.org/Graphics/SVG/1.1/DTD/svg11.dtd">
<svg version="1.1" xmlns="http://www.w3.org/2000/svg" xmlns:xlink="http://www.w3.org/1999/xlink" x="0px" y="0px" width="56px"
	 height="56px" viewBox="0 0 56 56" enable-background="new 0 0 56 56" xml:space="preserve">
<g id="Layer_3">
</g>
<g id="Layer_2">
</g>
<g id="Layer_1">
	<g>
		<linearGradient id="SVGID_1_" gradientUnits="userSpaceOnUse" x1="15.7378" y1="31.6387" x2="32.9229" y2="31.6387">
			<stop  offset="0" style="stop-color:#B51B29"/>
			<stop  offset="1" style="stop-color:#E3263A"/>
		</linearGradient>
		<path fill-rule="evenodd" clip-rule="evenodd" fill="url(#SVGID_1_)" d="M22.181,30.339h9.537c0.663,0,1.205,0.542,1.205,1.204
			v8.279c0,0.663-0.542,1.204-1.205,1.204h-9.537c-0.664,0-1.205-0.541-1.205-1.204v-8.279
			C20.977,30.881,21.518,30.339,22.181,30.339 M20.47,22.25L20.47,22.25c1.302,0,2.485,0.532,3.342,1.388
			c0.856,0.858,1.388,2.041,1.388,3.343v2.564h-0.026h-2.349V26.98c0-0.646-0.265-1.233-0.694-1.662
			c-0.426-0.428-1.016-0.691-1.661-0.691c-0.647,0-1.234,0.264-1.662,0.691c-0.428,0.429-0.694,1.015-0.694,1.662v2.564h-2.376
			V26.98c0-1.302,0.534-2.484,1.389-3.343C17.984,22.782,19.167,22.25,20.47,22.25 M27.063,32.984c-0.641,0-1.162,0.521-1.162,1.161
			c0,0.462,0.271,0.862,0.661,1.049l-0.378,2.315h0.863h0.861l-0.375-2.303c0.407-0.18,0.689-0.587,0.689-1.062
			C28.223,33.505,27.705,32.984,27.063,32.984"/>
	</g>
	<linearGradient id="SVGID_2_" gradientUnits="userSpaceOnUse" x1="15.7383" y1="25.8975" x2="25.2007" y2="25.8975">
		<stop  offset="0" style="stop-color:#B51B29"/>
		<stop  offset="1" style="stop-color:#E3263A"/>
	</linearGradient>
	<path fill-rule="evenodd" clip-rule="evenodd" fill="url(#SVGID_2_)" d="M20.471,22.25L20.471,22.25
		c1.302,0,2.485,0.532,3.342,1.388c0.856,0.858,1.388,2.041,1.388,3.343v2.564h-0.026h-2.349V26.98c0-0.646-0.265-1.233-0.694-1.662
		c-0.426-0.428-1.016-0.691-1.661-0.691c-0.647,0-1.234,0.264-1.662,0.691c-0.428,0.429-0.694,1.015-0.694,1.662v2.564h-2.376V26.98
		c0-1.302,0.534-2.484,1.389-3.343C17.985,22.782,19.167,22.25,20.471,22.25"/>
	<linearGradient id="SVGID_3_" gradientUnits="userSpaceOnUse" x1="47.7773" y1="49.7773" x2="8.2236" y2="10.2236">
		<stop  offset="0" style="stop-color:#B51B29"/>
		<stop  offset="1" style="stop-color:#E3263A"/>
	</linearGradient>
	<path fill="url(#SVGID_3_)" d="M49.923,13.654H6.077C4.378,13.654,3,15.016,3,16.694v26.61c0,1.68,1.378,3.041,3.077,3.041h43.846
		c1.699,0,3.077-1.361,3.077-3.041v-26.61C53,15.016,51.622,13.654,49.923,13.654z M50.777,21.43h-26.51
		c0.339,0.233,0.661,0.496,0.958,0.793c1.274,1.277,1.975,2.966,1.975,4.758v1.768h23.577v14.557c0,0.451-0.383,0.819-0.854,0.819
		H6.077c-0.472,0-0.854-0.368-0.854-0.819V28.748h8.516V26.98c0-1.79,0.701-3.479,1.973-4.755c0.299-0.298,0.623-0.563,0.962-0.796
		H5.223v-4.735c0-0.451,0.383-0.818,0.854-0.818h43.846c0.472,0,0.854,0.367,0.854,0.818V21.43z"/>
</g>
</svg>
