<?xml version="1.0" encoding="utf-8"?>
<!-- Generator: Adobe Illustrator 16.0.0, SVG Export Plug-In . SVG Version: 6.00 Build 0)  -->
<!DOCTYPE svg PUBLIC "-//W3C//DTD SVG 1.1//EN" "http://www.w3.org/Graphics/SVG/1.1/DTD/svg11.dtd">
<svg version="1.1" id="Layer_1" xmlns="http://www.w3.org/2000/svg" xmlns:xlink="http://www.w3.org/1999/xlink" x="0px" y="0px"
	 width="256px" height="256px" viewBox="0 0 256 256" enable-background="new 0 0 256 256" xml:space="preserve">
<path fill="#19CDD0" d="M174.763,3H81.234c-10.107,0-18.293,8.076-18.293,18.033v213.934c0,9.963,8.186,18.033,18.293,18.033h93.528
	c10.104,0,18.296-8.07,18.296-18.033V21.033C193.059,11.076,184.867,3,174.763,3z M128,243.121c-6.545,0-11.846-5.229-11.846-11.678
	c0-6.452,5.301-11.678,11.846-11.678s11.846,5.226,11.846,11.678C139.846,237.893,134.545,243.121,128,243.121z M183.659,209.914
	H72.341V46.086h111.318V209.914z"/>
</svg>
