<?xml version="1.0" encoding="utf-8"?>
<!-- Generator: Adobe Illustrator 16.0.0, SVG Export Plug-In . SVG Version: 6.00 Build 0)  -->
<!DOCTYPE svg PUBLIC "-//W3C//DTD SVG 1.1//EN" "http://www.w3.org/Graphics/SVG/1.1/DTD/svg11.dtd">
<svg version="1.1" id="Layer_1" xmlns="http://www.w3.org/2000/svg" xmlns:xlink="http://www.w3.org/1999/xlink" x="0px" y="0px"
	 width="256px" height="256px" viewBox="0 0 256 256" enable-background="new 0 0 256 256" xml:space="preserve">
<g>
	<g>
		<path fill="#ABACAF" d="M83.548,105.393c-5.603,0-10.161-4.559-10.161-10.162c0-5.6,4.559-10.156,10.161-10.156
			c5.601,0,10.157,4.557,10.157,10.156C93.705,100.834,89.148,105.393,83.548,105.393z"/>
	</g>
	<g>
		<path fill="#ABACAF" d="M127.98,105.393c-5.603,0-10.16-4.559-10.16-10.162c0-5.6,4.558-10.156,10.16-10.156
			c5.604,0,10.161,4.557,10.161,10.156C138.142,100.834,133.584,105.393,127.98,105.393z"/>
	</g>
	<g>
		<path fill="#ABACAF" d="M172.414,105.393c-5.601,0-10.158-4.559-10.158-10.162c0-5.6,4.558-10.156,10.158-10.156
			c5.604,0,10.161,4.557,10.161,10.156C182.575,100.834,178.018,105.393,172.414,105.393z"/>
	</g>
	<g>
		<path fill="#ABACAF" d="M106.652,82.289c-5.601,0-10.157-4.557-10.157-10.158c0-5.605,4.557-10.164,10.157-10.164
			c5.603,0,10.16,4.559,10.16,10.164C116.813,77.732,112.255,82.289,106.652,82.289z"/>
	</g>
	<g>
		<path fill="#ABACAF" d="M151.085,82.289c-5.601,0-10.157-4.557-10.157-10.158c0-5.605,4.557-10.164,10.157-10.164
			c5.603,0,10.161,4.559,10.161,10.164C161.246,77.732,156.688,82.289,151.085,82.289z"/>
	</g>
	<path fill="#ABACAF" d="M128,217.033c-26.28,0-56.032-1.111-77.441-9.352c-22.447-8.641-33.785-23.852-34.617-46.477
		C8.243,158.566,3,150.932,3,142.061c0-8.719,5.35-16.496,12.939-19.137c0.821-23.139,12.576-44.33,33.229-59.824
		C69.918,47.539,97.914,38.967,128,38.967c30.088,0,58.082,8.572,78.831,24.133c20.654,15.494,32.408,36.686,33.229,59.824
		c7.589,2.641,12.939,10.418,12.939,19.137c0,8.871-5.243,16.506-12.941,19.145c-0.833,22.625-12.17,37.836-34.616,46.477
		C184.032,215.922,154.279,217.033,128,217.033z M27.533,162c1.065,17,9.747,28.131,27.168,34.836
		c19.629,7.557,48.068,8.621,73.299,8.621c25.227,0,53.663-1.089,73.299-8.647C218.72,190.104,227.4,179,228.467,162H27.533z
		 M21.65,134c-3.924,0-7.117,3.178-7.117,7.498c0,4.322,3.193,7.502,7.117,7.502H234.35c3.924,0,7.117-3.18,7.117-7.502
		c0-4.32-3.193-7.498-7.117-7.498H21.65z M228.472,122c-1.117-19-11.196-36.596-28.562-49.621
		C181.068,58.246,155.53,50.512,128,50.512c-27.557,0-53.095,7.7-71.91,21.813C38.725,85.349,28.646,103,27.527,122H228.472z"/>
</g>
</svg>
