<?xml version="1.0" encoding="utf-8"?>
<!-- Generator: Adobe Illustrator 16.0.0, SVG Export Plug-In . SVG Version: 6.00 Build 0)  -->
<!DOCTYPE svg PUBLIC "-//W3C//DTD SVG 1.1//EN" "http://www.w3.org/Graphics/SVG/1.1/DTD/svg11.dtd">
<svg version="1.1" id="Layer_1" xmlns="http://www.w3.org/2000/svg" xmlns:xlink="http://www.w3.org/1999/xlink" x="0px" y="0px"
	 width="256px" height="256px" viewBox="0 0 256 256" enable-background="new 0 0 256 256" xml:space="preserve">
<g>
	<g>
		<g>
			<path fill-rule="evenodd" clip-rule="evenodd" fill="#FFFFFF" d="M182.029,84.753l-13.475-13.761
				c-1.744-1.781-3.645-2.854-5.788-3.238c-0.554-0.097-1.031-0.162-1.427-0.162c-1.506,0-2.856,0.564-3.887,1.619l-13.396,13.76
				l-65.488,66.61c-0.237,0.246-0.502,0.966-0.792,2.266l-5.471,24.527c-0.157,0.484-0.238,0.97-0.238,1.373
				c0,1.056,0.476,2.107,1.349,2.996c0.712,0.732,1.662,1.132,2.695,1.132c0.396,0,0.797-0.058,1.189-0.158l23.546-6.313
				c0.557-0.152,1.427-0.891,1.823-1.298l65.25-66.771l13.477-13.759c1.664-1.7,2.536-3.399,2.536-4.938
				C183.933,87.263,183.26,86.009,182.029,84.753z M97.278,166.822l-15.462,3.963l3.965-15.779l0.795-0.973l11.653,11.9
				L97.278,166.822z M104.412,159.7L92.76,147.719l54.151-55.358l11.733,11.819L104.412,159.7z M164.828,98.027l-11.73-11.9
				l8.957-9.147l11.656,11.9L164.828,98.027z M85.551,188.408h89.495v-8.958h-57.534L85.551,188.408z"/>
		</g>
	</g>
	<path fill="#FFFFFF" d="M3,127.998c0,68.797,55.965,124.564,125,124.564s125-55.768,125-124.564
		C253,59.207,197.035,3.438,128,3.438S3,59.207,3,127.998z M243.389,127.998c0,63.502-51.66,114.983-115.389,114.983
		S12.611,191.5,12.611,127.998c0-63.503,51.66-114.982,115.389-114.982S243.389,64.495,243.389,127.998z"/>
</g>
</svg>
