<?xml version="1.0" encoding="utf-8"?>
<!-- Generator: Adobe Illustrator 16.0.0, SVG Export Plug-In . SVG Version: 6.00 Build 0)  -->
<!DOCTYPE svg PUBLIC "-//W3C//DTD SVG 1.1//EN" "http://www.w3.org/Graphics/SVG/1.1/DTD/svg11.dtd">
<svg version="1.1" id="Layer_1" xmlns="http://www.w3.org/2000/svg" xmlns:xlink="http://www.w3.org/1999/xlink" x="0px" y="0px"
	 width="256px" height="256px" viewBox="0 0 256 256" enable-background="new 0 0 256 256" xml:space="preserve">
<linearGradient id="SVGID_1_" gradientUnits="userSpaceOnUse" x1="200.2646" y1="180.7363" x2="55.7359" y2="36.2076">
	<stop  offset="0" style="stop-color:#B51B29"/>
	<stop  offset="1" style="stop-color:#E3263A"/>
</linearGradient>
<path fill="url(#SVGID_1_)" d="M126.381,251.201c-0.231-0.256-23.352-26.003-46.166-57.614
	c-30.808-42.688-46.429-75.222-46.429-96.695C33.786,45.12,76.051,3,128,3s94.214,42.12,94.214,93.892
	c0,21.474-15.621,54.007-46.429,96.695c-22.814,31.611-45.936,57.358-46.166,57.614L128,253L126.381,251.201z M128,15.534
	c-21.824,0-42.34,8.467-57.77,23.842C54.813,54.74,46.32,75.167,46.32,96.892c0,9.884,4.449,23.51,13.225,40.5
	c7.4,14.326,17.774,30.766,30.834,48.861c14.543,20.151,29.24,37.903,37.621,47.721c8.408-9.853,23.152-27.663,37.704-47.837
	c13.04-18.076,23.396-34.497,30.78-48.804c8.756-16.963,13.195-30.569,13.195-40.441c0-21.725-8.491-42.151-23.91-57.516
	C170.34,24,149.824,15.534,128,15.534z M128,122.529c-18.396,0-33.361-14.93-33.361-33.283c0-18.353,14.965-33.285,33.361-33.285
	s33.362,14.932,33.362,33.285C161.362,107.599,146.396,122.529,128,122.529z M128,68.496c-11.484,0-20.828,9.309-20.828,20.751
	c0,11.441,9.344,20.749,20.828,20.749c11.485,0,20.829-9.308,20.829-20.749C148.829,77.804,139.485,68.496,128,68.496z"/>
</svg>
