<?xml version="1.0" encoding="utf-8"?>
<!-- Generator: Adobe Illustrator 16.0.0, SVG Export Plug-In . SVG Version: 6.00 Build 0)  -->
<!DOCTYPE svg PUBLIC "-//W3C//DTD SVG 1.1//EN" "http://www.w3.org/Graphics/SVG/1.1/DTD/svg11.dtd">
<svg version="1.1" id="Layer_1" xmlns="http://www.w3.org/2000/svg" xmlns:xlink="http://www.w3.org/1999/xlink" x="0px" y="0px"
	 width="256px" height="256px" viewBox="0 0 256 256" enable-background="new 0 0 256 256" xml:space="preserve">
<g>
	<g>
		<path fill="#2266A1" d="M127.998,3C58.831,3,2.76,58.965,2.76,128.001C2.76,197.038,58.831,253,127.998,253
			c69.17,0,125.242-55.962,125.242-124.999C253.24,58.965,197.168,3,127.998,3z M127.998,243.383
			c-63.848,0-115.603-51.661-115.603-115.382c0-63.726,51.755-115.387,115.603-115.387c63.852,0,115.611,51.661,115.611,115.387
			C243.609,191.722,191.85,243.383,127.998,243.383z M130.693,167.928c-5.449,0-8.604,3.305-8.604,8.907
			c0,5.604,3.154,8.909,8.604,8.909c5.31,0,8.469-3.305,8.469-8.909C139.162,171.232,136.003,167.928,130.693,167.928z
			 M132.561,77.124c-6.74,0-14.203,1.003-22.951,3.735l-6.316,1.871l2.299,11.636l6.457-1.869
			c7.886-2.301,14.486-3.163,19.795-3.163c10.757,0,15.348,5.316,15.348,12.931c0,7.184-2.438,10.632-8.029,16.667l-10.188,10.635
			c-4.446,4.594-4.877,7.182-4.877,13.504v9.052l13.053-2.298v-11.351l12.625-12.934c7.025-7.181,10.902-13.649,10.902-24.136
			C160.678,86.031,149.486,77.124,132.561,77.124z"/>
	</g>
</g>
</svg>
