<?xml version="1.0" encoding="utf-8"?>
<!-- Generator: Adobe Illustrator 16.0.0, SVG Export Plug-In . SVG Version: 6.00 Build 0)  -->
<!DOCTYPE svg PUBLIC "-//W3C//DTD SVG 1.1//EN" "http://www.w3.org/Graphics/SVG/1.1/DTD/svg11.dtd">
<svg version="1.1" id="Layer_1" xmlns="http://www.w3.org/2000/svg" xmlns:xlink="http://www.w3.org/1999/xlink" x="0px" y="0px"
	 width="256px" height="256px" viewBox="0 0 256 256" enable-background="new 0 0 256 256" xml:space="preserve">
<g>
	<path fill="#FFFFFF" d="M3,127.998c0,68.797,55.965,124.564,125,124.564s125-55.768,125-124.564
		C253,59.207,197.035,3.438,128,3.438S3,59.207,3,127.998z M243.389,127.998c0,63.502-51.66,114.983-115.389,114.983
		S12.611,191.5,12.611,127.998c0-63.503,51.66-114.982,115.389-114.982S243.389,64.495,243.389,127.998z"/>
	<g>
		<polygon fill="#FFFFFF" points="127.801,140.143 70.33,197.615 58.385,185.67 115.856,128.198 58.385,70.726 70.33,58.781 
			127.801,116.254 185.67,58.385 197.615,70.329 139.747,128.198 197.218,185.67 185.274,197.615 		"/>
	</g>
</g>
</svg>
