<svg xmlns="http://www.w3.org/2000/svg" viewBox="0 0 32 20.486">
  <defs>
    <style>
      .cls-1 {
        fill: #fff;
      }
    </style>
  </defs>
  <g id="Apple_Pay_Mark_RGB_052318" transform="translate(0)">
    <path id="XMLID_96_" d="M29.134,0H2.538c-.092,0-.184,0-.277,0a4.018,4.018,0,0,0-.6.053,2.032,2.032,0,0,0-.572.189,1.922,1.922,0,0,0-.841.841,2.023,2.023,0,0,0-.188.572,3.991,3.991,0,0,0-.053.6c0,.092,0,.184,0,.276,0,.109,0,.219,0,.328V17.62c0,.11,0,.219,0,.328,0,.092,0,.184,0,.276a3.989,3.989,0,0,0,.053.6,2.022,2.022,0,0,0,.188.572,1.922,1.922,0,0,0,.841.841,2.024,2.024,0,0,0,.572.189,4.049,4.049,0,0,0,.6.053l.277,0H29.462l.277,0a4.06,4.06,0,0,0,.6-.053,2.026,2.026,0,0,0,.572-.189,1.922,1.922,0,0,0,.841-.841,2.01,2.01,0,0,0,.188-.572,3.989,3.989,0,0,0,.053-.6q0-.138,0-.276c0-.11,0-.219,0-.328V2.866c0-.11,0-.219,0-.328q0-.138,0-.276a3.991,3.991,0,0,0-.053-.6,2.011,2.011,0,0,0-.188-.572,1.922,1.922,0,0,0-.841-.841,2.034,2.034,0,0,0-.572-.189,4.029,4.029,0,0,0-.6-.053c-.093,0-.185,0-.277,0Z" transform="translate(0)"/>
    <path id="XMLID_227_" class="cls-1" d="M31.983,3.532h.323c.088,0,.175,0,.263,0a3.414,3.414,0,0,1,.5.042,1.348,1.348,0,0,1,.384.125,1.24,1.24,0,0,1,.542.543,1.33,1.33,0,0,1,.125.383,3.4,3.4,0,0,1,.042.5c0,.087,0,.174,0,.263,0,.108,0,.215,0,.323V20.47c0,.108,0,.215,0,.325,0,.087,0,.174,0,.261a3.39,3.39,0,0,1-.043.5,1.325,1.325,0,0,1-.125.382,1.24,1.24,0,0,1-.543.543,1.337,1.337,0,0,1-.381.125,3.472,3.472,0,0,1-.5.043l-.267,0H5.39l-.261,0a3.479,3.479,0,0,1-.5-.042,1.341,1.341,0,0,1-.384-.126,1.24,1.24,0,0,1-.541-.542,1.341,1.341,0,0,1-.125-.384,3.378,3.378,0,0,1-.043-.5c0-.087,0-.175,0-.262V5.391c0-.087,0-.175,0-.262a3.381,3.381,0,0,1,.043-.5A1.339,1.339,0,0,1,3.7,4.246,1.24,1.24,0,0,1,4.246,3.7a1.345,1.345,0,0,1,.383-.125,3.409,3.409,0,0,1,.5-.042c.088,0,.175,0,.262,0H31.983" transform="translate(-2.849 -2.849)"/>
    <g id="XMLID_34_" transform="translate(4.057 5.655)">
      <g id="XMLID_44_">
        <path id="XMLID_46_" d="M38.579,30.51a1.768,1.768,0,0,0,.407-1.26,1.753,1.753,0,0,0-1.162.6,1.655,1.655,0,0,0-.417,1.211,1.463,1.463,0,0,0,1.172-.553" transform="translate(-34.224 -29.25)"/>
        <path id="XMLID_45_" d="M25.74,39.068c-.647-.039-1.2.367-1.507.367s-.783-.348-1.295-.339a1.909,1.909,0,0,0-1.623.986,4.07,4.07,0,0,0,.493,3.954c.329.483.724,1.015,1.246,1,.493-.019.686-.319,1.285-.319s.773.319,1.294.309c.541-.01.879-.483,1.208-.967a4.291,4.291,0,0,0,.541-1.112,1.756,1.756,0,0,1-1.053-1.6,1.789,1.789,0,0,1,.85-1.5,1.851,1.851,0,0,0-1.44-.783" transform="translate(-20.983 -37.168)"/>
      </g>
      <g id="XMLID_35_" transform="translate(8.492 0.553)">
        <path id="XMLID_41_" d="M67.629,32.11a2.275,2.275,0,0,1,2.387,2.382,2.3,2.3,0,0,1-2.422,2.392H66.036v2.477H64.91V32.11Zm-1.593,3.829h1.292a1.443,1.443,0,1,0,.005-2.879h-1.3Z" transform="translate(-64.91 -32.11)"/>
        <path id="XMLID_38_" d="M92.764,45.89c0-.93.709-1.462,2.015-1.543l1.4-.086v-.4c0-.588-.387-.91-1.075-.91a.988.988,0,0,0-1.065.739H93.025c.03-.94.915-1.623,2.111-1.623,1.286,0,2.126.673,2.126,1.719v3.608h-1.04v-.869H96.2a1.854,1.854,0,0,1-1.658.925A1.593,1.593,0,0,1,92.764,45.89Zm3.417-.467v-.407l-1.251.08c-.7.045-1.07.307-1.07.764,0,.442.382.729.98.729A1.227,1.227,0,0,0,96.181,45.423Z" transform="translate(-87.379 -40.141)"/>
        <path id="XMLID_36_" d="M118.794,49.605v-.869a3.314,3.314,0,0,0,.332.02.9.9,0,0,0,.95-.754l.1-.322-1.9-5.276h1.176l1.327,4.281h.025l1.327-4.281h1.146L121.3,47.947c-.452,1.271-.97,1.689-2.065,1.689A3.077,3.077,0,0,1,118.794,49.605Z" transform="translate(-107.955 -40.414)"/>
      </g>
    </g>
  </g>
</svg>
