<svg width="256" height="256" xmlns="http://www.w3.org/2000/svg">

 <g>
  <title>background</title>
  <rect fill="none" id="canvas_background" height="402" width="582" y="-1" x="-1"/>
 </g>
 <g>
  <title>Layer 1</title>
  <g transform="rotate(90 127.99999999999999,128.00000000000003) " id="svg_1">
   <g id="svg_2">
    <path id="svg_3" d="m127.994,71.183c18.408,0 33.337,-15.259 33.337,-34.088s-14.929,-34.095 -33.337,-34.095s-33.325,15.265 -33.325,34.094s14.917,34.089 33.325,34.089zm0,22.729c-18.408,0 -33.325,15.259 -33.325,34.088s14.917,34.094 33.325,34.094s33.337,-15.265 33.337,-34.094s-14.929,-34.088 -33.337,-34.088zm0,90.905c-18.408,0 -33.325,15.265 -33.325,34.095c0,18.829 14.917,34.088 33.325,34.088s33.337,-15.259 33.337,-34.088c0,-18.829 -14.929,-34.095 -33.337,-34.095z" fill="#6B6B6B" clip-rule="evenodd" fill-rule="evenodd"/>
   </g>
  </g>
 </g>
</svg>