<?xml version="1.0" encoding="utf-8"?>
<!-- Generator: Adobe Illustrator 16.0.0, SVG Export Plug-In . SVG Version: 6.00 Build 0)  -->
<!DOCTYPE svg PUBLIC "-//W3C//DTD SVG 1.1//EN" "http://www.w3.org/Graphics/SVG/1.1/DTD/svg11.dtd">
<svg version="1.1" id="Layer_1" xmlns="http://www.w3.org/2000/svg" xmlns:xlink="http://www.w3.org/1999/xlink" x="0px" y="0px"
	 width="256px" height="256px" viewBox="0 0 256 256" enable-background="new 0 0 256 256" xml:space="preserve">
<g>
	<linearGradient id="SVGID_1_" gradientUnits="userSpaceOnUse" x1="216.2329" y1="216.2334" x2="39.7663" y2="39.7668">
		<stop  offset="0" style="stop-color:#B51B29"/>
		<stop  offset="1" style="stop-color:#E3263A"/>
	</linearGradient>
	<path fill="url(#SVGID_1_)" d="M3,128c0,68.793,55.964,124.563,125,124.563c69.032,0,125-55.77,125-124.563
		S197.032,3.438,128,3.438C58.964,3.438,3,59.207,3,128z M243.383,128c0,63.497-51.66,114.98-115.383,114.98
		c-63.727,0-115.387-51.483-115.387-114.98c0-63.506,51.66-114.98,115.387-114.98C191.723,13.02,243.383,64.494,243.383,128z"/>
	<g>
		<g>
			<linearGradient id="SVGID_2_" gradientUnits="userSpaceOnUse" x1="169.7534" y1="170.4639" x2="85.4475" y2="86.158">
				<stop  offset="0" style="stop-color:#B51B29"/>
				<stop  offset="1" style="stop-color:#E3263A"/>
			</linearGradient>
			<polygon fill-rule="evenodd" clip-rule="evenodd" fill="url(#SVGID_2_)" points="174.732,88.912 166.998,81.172 127.131,121.039 
				88.848,82.757 80.9,90.704 119.183,128.987 80.462,167.708 88.201,175.444 126.92,136.725 165.205,175.011 173.152,167.06 
				134.868,128.776 			"/>
		</g>
	</g>
</g>
</svg>
