<?xml version="1.0" encoding="utf-8"?>
<!-- Generator: Adobe Illustrator 16.0.0, SVG Export Plug-In . SVG Version: 6.00 Build 0)  -->
<!DOCTYPE svg PUBLIC "-//W3C//DTD SVG 1.1//EN" "http://www.w3.org/Graphics/SVG/1.1/DTD/svg11.dtd">
<svg version="1.1" id="Layer_1" xmlns="http://www.w3.org/2000/svg" xmlns:xlink="http://www.w3.org/1999/xlink" x="0px" y="0px"
	 width="256px" height="256px" viewBox="0 0 256 256" enable-background="new 0 0 256 256" xml:space="preserve">
<g>
	<g>
		<g>
			<path fill="#ABACAF" d="M196.408,39.41c-31.253,0-56.593,25.34-56.593,56.602c0,31.253,25.34,56.592,56.593,56.592
				S253,127.265,253,96.012C253,64.75,227.661,39.41,196.408,39.41z M196.408,143.13c-26.02,0-47.108-21.098-47.108-47.118
				c0-26.028,21.089-47.117,47.108-47.117c26.019,0,47.107,21.089,47.107,47.117C243.516,122.032,222.427,143.13,196.408,143.13z
				 M201.311,90.039c-7.335-2.869-10.33-4.902-10.33-7.859c0-2.586,1.8-5.272,7.345-5.272c6.136,0,10.155,2.122,12.283,3.231
				l2.567-10.447c-2.994-1.479-6.826-2.86-12.459-3.045v-8.142h-8.366v8.783c-9.134,1.858-14.414,8.229-14.414,16.469
				c0,8.967,6.226,13.578,15.359,16.905c6.399,2.313,9.122,4.532,9.122,8.054c0,3.599-3.325,5.729-8.276,5.729
				c-5.544,0-10.573-1.936-14.153-4.066l-2.567,10.816c3.249,1.944,8.794,3.706,14.502,3.979v8.782h8.454v-9.522
				c9.805-1.76,15.097-8.792,15.097-17.021C215.474,99.009,211.466,93.921,201.311,90.039z"/>
		</g>
	</g>
	<path fill="#ABACAF" d="M196.408,159.948c-0.055,0-0.108-0.005-0.162-0.005v41.277c0,3.853-3.162,6.985-7.053,6.985H18.504
		c-3.882,0-7.043-3.133-7.043-6.985v-50.035h152.652c-12.963-7.603-23.004-19.635-28.049-34.024H11.461v-16.013
		c0-3.85,3.161-6.982,7.043-6.982h114.01c0.081-2.847,0.338-5.646,0.776-8.387H18.504C9.953,85.779,3,92.677,3,101.148v100.072
		c0,8.473,6.953,15.369,15.504,15.369h170.689c8.561,0,15.504-6.896,15.504-15.369v-41.824
		C201.981,159.748,199.221,159.948,196.408,159.948z"/>
</g>
</svg>
