<?xml version="1.0" encoding="utf-8"?>
<!-- Generator: Adobe Illustrator 16.0.0, SVG Export Plug-In . SVG Version: 6.00 Build 0)  -->
<!DOCTYPE svg PUBLIC "-//W3C//DTD SVG 1.1//EN" "http://www.w3.org/Graphics/SVG/1.1/DTD/svg11.dtd">
<svg version="1.1" xmlns="http://www.w3.org/2000/svg" xmlns:xlink="http://www.w3.org/1999/xlink" x="0px" y="0px" width="56px"
	 height="56px" viewBox="0 0 56 56" enable-background="new 0 0 56 56" xml:space="preserve">
<g id="Layer_3">
</g>
<g id="Layer_2">
</g>
<g id="Layer_1">
	<g>
		<g>
			<linearGradient id="SVGID_1_" gradientUnits="userSpaceOnUse" x1="3.6724" y1="43.1309" x2="49.5525" y2="11.0053">
				<stop  offset="0" style="stop-color:#B51B29"/>
				<stop  offset="1" style="stop-color:#E3263A"/>
			</linearGradient>
			<path fill="url(#SVGID_1_)" d="M40.884,48.619c-4.049,0-7.234-2.13-8.913-3.558H7.085C4.756,45.062,3,43.137,3,40.586V12.154
				c0-3.123,1.73-4.773,5.004-4.773h36.527c2.017,0,4.42,0.829,4.42,4.773v14.941C50.564,28.97,53,32.429,53,36.216
				C53,43.055,47.565,48.619,40.884,48.619z M8.004,9.219c-2.627,0-3.166,1.174-3.166,2.936v28.432c0,1.528,0.945,2.638,2.247,2.638
				h25.229c0.225,0,0.442,0.082,0.61,0.231c1.126,1,4.156,3.326,7.96,3.326c5.667,0,10.278-4.74,10.278-10.565
				c0-3.366-2.392-6.561-3.817-8.166c-0.149-0.167-0.232-0.385-0.232-0.609V12.154c0-2.112-0.724-2.936-2.582-2.936H8.004z"/>
			<linearGradient id="SVGID_2_" gradientUnits="userSpaceOnUse" x1="35.7637" y1="39.9951" x2="45.3477" y2="33.2843">
				<stop  offset="0" style="stop-color:#B51B29"/>
				<stop  offset="1" style="stop-color:#E3263A"/>
			</linearGradient>
			<path fill="url(#SVGID_2_)" d="M46.574,37.559H34.536c-0.508,0-0.919-0.411-0.919-0.919c0-0.509,0.412-0.92,0.919-0.92h12.038
				c0.507,0,0.919,0.411,0.919,0.92C47.493,37.147,47.082,37.559,46.574,37.559z"/>
			<linearGradient id="SVGID_3_" gradientUnits="userSpaceOnUse" x1="39.4648" y1="33.1592" x2="42.0258" y2="31.366">
				<stop  offset="0" style="stop-color:#B51B29"/>
				<stop  offset="1" style="stop-color:#E3263A"/>
			</linearGradient>
			<path fill="url(#SVGID_3_)" d="M42.308,32.263c0,0.862-0.699,1.563-1.563,1.563s-1.563-0.701-1.563-1.563
				c0-0.863,0.7-1.563,1.563-1.563S42.308,31.399,42.308,32.263"/>
			<linearGradient id="SVGID_4_" gradientUnits="userSpaceOnUse" x1="39.4648" y1="41.915" x2="42.0262" y2="40.1216">
				<stop  offset="0" style="stop-color:#B51B29"/>
				<stop  offset="1" style="stop-color:#E3263A"/>
			</linearGradient>
			<path fill="url(#SVGID_4_)" d="M42.308,41.018c0,0.863-0.699,1.563-1.563,1.563s-1.563-0.7-1.563-1.563
				c0-0.864,0.7-1.563,1.563-1.563S42.308,40.153,42.308,41.018"/>
		</g>
		<linearGradient id="SVGID_5_" gradientUnits="userSpaceOnUse" x1="8.0361" y1="31.3828" x2="22.7782" y2="21.0603">
			<stop  offset="0" style="stop-color:#B51B29"/>
			<stop  offset="1" style="stop-color:#E3263A"/>
		</linearGradient>
		<rect x="13.109" y="13.814" fill="url(#SVGID_5_)" width="4.595" height="24.813"/>
		<linearGradient id="SVGID_6_" gradientUnits="userSpaceOnUse" x1="14.167" y1="30.9512" x2="27.6757" y2="21.4923">
			<stop  offset="0" style="stop-color:#B51B29"/>
			<stop  offset="1" style="stop-color:#E3263A"/>
		</linearGradient>
		<rect x="19.542" y="13.814" fill="url(#SVGID_6_)" width="2.757" height="24.813"/>
		<linearGradient id="SVGID_7_" gradientUnits="userSpaceOnUse" x1="18.9136" y1="31.167" x2="33.0389" y2="21.2763">
			<stop  offset="0" style="stop-color:#B51B29"/>
			<stop  offset="1" style="stop-color:#E3263A"/>
		</linearGradient>
		<rect x="24.138" y="13.814" fill="url(#SVGID_7_)" width="3.676" height="24.813"/>
		<linearGradient id="SVGID_8_" gradientUnits="userSpaceOnUse" x1="35.5366" y1="23.2588" x2="43.841" y2="17.444">
			<stop  offset="0" style="stop-color:#B51B29"/>
			<stop  offset="1" style="stop-color:#E3263A"/>
		</linearGradient>
		<path fill="url(#SVGID_8_)" d="M40.746,26.268c0.488,0,0.967,0.045,1.437,0.111V15.652c0-1.011-0.827-1.838-1.838-1.838h-2.422
			v12.853C38.821,26.413,39.766,26.268,40.746,26.268z"/>
		<linearGradient id="SVGID_9_" gradientUnits="userSpaceOnUse" x1="30.8081" y1="23.6514" x2="38.9706" y2="17.9359">
			<stop  offset="0" style="stop-color:#B51B29"/>
			<stop  offset="1" style="stop-color:#E3263A"/>
		</linearGradient>
		<path fill="url(#SVGID_9_)" d="M36.085,27.383V13.814h-1.838v14.748C34.813,28.106,35.43,27.713,36.085,27.383z"/>
		<linearGradient id="SVGID_10_" gradientUnits="userSpaceOnUse" x1="25.6782" y1="27.6563" x2="36.6979" y2="19.9402">
			<stop  offset="0" style="stop-color:#B51B29"/>
			<stop  offset="1" style="stop-color:#E3263A"/>
		</linearGradient>
		<path fill="url(#SVGID_10_)" d="M32.409,30.488V13.814h-1.838v20.829C30.87,33.108,31.513,31.7,32.409,30.488z"/>
		<linearGradient id="SVGID_11_" gradientUnits="userSpaceOnUse" x1="4.7065" y1="30.6162" x2="17.0062" y2="22.0039">
			<stop  offset="0" style="stop-color:#B51B29"/>
			<stop  offset="1" style="stop-color:#E3263A"/>
		</linearGradient>
		<path fill="url(#SVGID_11_)" d="M9.433,15.652V36.79c0,1.013,0.827,1.838,1.838,1.838V13.814
			C10.26,13.814,9.433,14.642,9.433,15.652z"/>
	</g>
</g>
</svg>
