<?xml version="1.0" encoding="utf-8"?>
<!-- Generator: Adobe Illustrator 16.0.0, SVG Export Plug-In . SVG Version: 6.00 Build 0)  -->
<!DOCTYPE svg PUBLIC "-//W3C//DTD SVG 1.1//EN" "http://www.w3.org/Graphics/SVG/1.1/DTD/svg11.dtd">
<svg version="1.1" id="Layer_1" xmlns="http://www.w3.org/2000/svg" xmlns:xlink="http://www.w3.org/1999/xlink" x="0px" y="0px"
	 width="256px" height="256px" viewBox="0 0 256 256" enable-background="new 0 0 256 256" xml:space="preserve">
<g>
	<g>
		<path fill="#ABACAF" d="M177.706,178.74c0,10.598-8.592,19.19-19.194,19.19l0,0c-10.594,0-19.191-8.593-19.191-19.19l0,0
			c0-10.601,8.598-19.194,19.191-19.194l0,0C169.114,159.546,177.706,168.14,177.706,178.74L177.706,178.74z"/>
		<path fill="#ABACAF" d="M216.092,143.975c0,10.602-8.59,19.194-19.191,19.194l0,0c-10.602,0-19.194-8.593-19.194-19.194l0,0
			c0-10.599,8.593-19.195,19.194-19.195l0,0C207.502,124.779,216.092,133.376,216.092,143.975L216.092,143.975z"/>
		<polygon fill="#ABACAF" points="109.503,145.888 85.497,145.888 85.497,121.883 63.91,121.883 63.91,145.888 39.909,145.888 
			39.909,167.471 63.91,167.471 63.91,191.477 85.497,191.477 85.497,167.471 109.503,167.471 		"/>
	</g>
	<path fill="#ABACAF" d="M84.118,239c-20.657,0-41.302-9.287-56.642-24.012C11.693,199.836,3,179.55,3,158.631
		c0-20.92,8.693-40.049,24.477-55.199C42.816,88.707,63.461,81,84.118,81H122V18h12v63h37.883c20.656,0,41.301,7.496,56.641,22.221
		C244.307,118.372,253,137.764,253,158.684s-8.693,41.39-24.477,56.542C213.184,229.95,192.539,239,171.883,239H84.118z M84.118,94
		c-9.417,0-18.203,0.705-26.116,3.989c-8.72,3.618-15.944,7.755-22.086,13.633c-6.477,6.198-11.569,13.116-15.137,21.034
		c-3.701,8.213-5.578,16.764-5.578,25.648c0,8.886,1.877,17.495,5.578,25.707c3.569,7.926,8.662,15.056,15.137,21.249
		c6.457,6.182,13.888,11.547,22.086,14.948C66.449,223.715,75.236,226,84.118,226h87.765c8.881,0,17.668-2.301,26.116-5.807
		c8.187-3.396,15.616-8.52,22.087-14.71c6.488-6.209,11.58-13.49,15.135-21.384c3.701-8.214,5.578-16.941,5.578-25.813
		c0-8.857-1.877-17.546-5.578-25.761c-3.523-7.824-8.615-14.97-15.135-21.208c-6.252-5.982-13.683-9.833-22.087-13.322
		C190.088,94.713,181.301,94,171.883,94H84.118z"/>
</g>
</svg>
