<?xml version="1.0" encoding="utf-8"?>
<!-- Generator: Adobe Illustrator 16.0.0, SVG Export Plug-In . SVG Version: 6.00 Build 0)  -->
<!DOCTYPE svg PUBLIC "-//W3C//DTD SVG 1.1//EN" "http://www.w3.org/Graphics/SVG/1.1/DTD/svg11.dtd">
<svg version="1.1" id="Layer_1" xmlns="http://www.w3.org/2000/svg" xmlns:xlink="http://www.w3.org/1999/xlink" x="0px" y="0px"
	 width="256px" height="256px" viewBox="0 0 256 256" enable-background="new 0 0 256 256" xml:space="preserve">
<path fill="#6B6B6B" d="M193.377,233C180.487,233,170,222.299,170,209.146V198H86v11.146C86,222.299,75.513,233,62.623,233H52.526
	C39.773,233,29,222.076,29,209.146V198H4v-69.18c0-8.727,3.292-17.119,9.27-23.631c4.771-5.196,10.915-8.792,17.767-10.397
	l0.571-0.134l11.421-39.981C49.815,33.669,61.296,23,77.142,23h101.718c15.818,0,27.287,10.65,34.087,31.653l0.047,0.24
	l11.364,39.71l0.571,0.134c6.861,1.609,13.017,5.214,17.801,10.425c5.979,6.51,9.271,14.911,9.271,23.658V198h-25v11.146
	C227,222.076,216.223,233,203.467,233H193.377z M182.121,192.774c-0.062,0.129-0.121,0.297-0.121,0.503v15.868
	c0,6.315,5.316,11.854,11.377,11.854h10.09c5.808,0,10.533-5.318,10.533-11.854v-15.397c0.182-0.181,0.342-0.442,0.313-0.815
	L214.149,186H240v-57.18c0-11.813-8.95-21.541-20.818-22.629l-4.26-0.384l-13.575-47.53C193.791,35,182.553,35,178.859,35H77.142
	c-3.682,0-14.886,0-22.43,23.243l-13.544,47.409l-4.363,0.457C24.95,107.196,16,116.961,16,128.82V186h25.775l-0.096,7.361
	l0.32,0.33v15.454C42,215.682,46.722,221,52.526,221h10.097C68.684,221,74,215.461,74,209.146v-15.868
	c0-0.217-0.066-0.393-0.123-0.513L73.358,186H182.57L182.121,192.774z M192.289,173.433c-15.167,0-27.506-12.337-27.506-27.502
	c0-15.168,12.339-27.509,27.506-27.509c15.17,0,27.512,12.341,27.512,27.509C219.801,161.096,207.459,173.433,192.289,173.433z
	 M192.289,130.655c-8.422,0-15.273,6.853-15.273,15.275c0,8.42,6.852,15.27,15.273,15.27c8.425,0,15.279-6.85,15.279-15.27
	C207.568,137.508,200.714,130.655,192.289,130.655z M63.7,173.433c-15.168,0-27.509-12.337-27.509-27.502
	c0-15.168,12.341-27.509,27.509-27.509c15.169,0,27.51,12.341,27.51,27.509C91.21,161.096,78.869,173.433,63.7,173.433z
	 M63.7,130.655c-8.424,0-15.276,6.853-15.276,15.275c0,8.42,6.853,15.27,15.276,15.27s15.277-6.85,15.277-15.27
	C78.978,137.508,72.124,130.655,63.7,130.655z M56.2,107l11.289-39.446C73.477,49,84.673,49,92.848,49h70.424
	c8.588,0,19.274,0.001,25.229,18.384l0.045,0.239L199.799,107H56.2z M92.088,61c-7.257,0-9.92,0.471-12.931,9.731L72.432,94h111.137
	l-6.716-23.238c-3.021-9.291-5.684-9.762-12.94-9.762H92.088z"/>
</svg>
