<?xml version="1.0" encoding="utf-8"?>
<!-- Generator: Adobe Illustrator 16.0.0, SVG Export Plug-In . SVG Version: 6.00 Build 0)  -->
<!DOCTYPE svg PUBLIC "-//W3C//DTD SVG 1.1//EN" "http://www.w3.org/Graphics/SVG/1.1/DTD/svg11.dtd">
<svg version="1.1" id="Layer_1" xmlns="http://www.w3.org/2000/svg" xmlns:xlink="http://www.w3.org/1999/xlink" x="0px" y="0px"
	 width="256px" height="256px" viewBox="0 0 256 256" enable-background="new 0 0 256 256" xml:space="preserve">
<path fill="#D51E31" d="M148.089,249.038h-38.184v-29.843c-10.082-1.385-19.889-3.654-29.222-6.765l-17.998-5.728l7.489-43.276
	l19.304,7.357c14.036,5.263,28.344,7.937,42.495,7.937c16.521,0,17.805-11.35,17.805-14.828c0-8.712-1.829-11.388-18.606-15.588
	l-20.767-4.748C79.705,136.42,63.49,117.938,63.49,90.103c0-30.403,17.633-51.599,46.415-56.444V4.362h38.184v29.255
	c9.631,1.345,19.022,3.562,28.552,6.734l18.697,5.689l-7.469,42.339l-19.63-6.246c-14.611-4.872-28.239-7.496-41.737-8.049
	c-11.737,0.032-17.687,4.819-17.687,14.232c0,5.196,1.644,10.898,13.838,13.801l0.13,0.033l24.99,6.545
	c31.413,7.679,46.73,25.353,46.73,54.006c0,16.613-5.314,30.71-15.37,40.765c-7.894,7.895-18.55,13.222-31.046,15.568V249.038z
	 M121.905,237.038h14.184v-28.502l5.307-0.617c12.36-1.438,41.109-8.722,41.109-45.217c0-22.936-11.62-36.004-37.676-42.374
	l-25.022-6.553c-19.001-4.549-22.991-16.352-22.991-25.459c0-16.181,11.42-26.232,29.804-26.232l0.24,0.005
	c14.682,0.587,29.433,3.412,45.096,8.634l6.479,2.061l3.238-18.359l-8.753-2.666c-10.484-3.495-20.775-5.741-31.46-6.866
	l-5.372-0.566V16.362h-14.184v28.032L116.46,44.9c-25.654,2.387-40.97,19.285-40.97,45.203c0,21.909,12.654,35.959,37.61,41.761
	l20.923,4.784c16.251,4.063,27.754,8.396,27.754,27.244c0,16.047-11.978,26.828-29.805,26.828c-15.595,0-31.32-2.931-46.738-8.712
	l-5.721-2.18l-3.221,18.612l8.106,2.579c10.239,3.413,21.024,5.723,32.133,6.892l5.372,0.564V237.038z"/>
</svg>
