<?xml version="1.0" encoding="utf-8"?>
<!-- Generator: Adobe Illustrator 16.0.0, SVG Export Plug-In . SVG Version: 6.00 Build 0)  -->
<!DOCTYPE svg PUBLIC "-//W3C//DTD SVG 1.1//EN" "http://www.w3.org/Graphics/SVG/1.1/DTD/svg11.dtd">
<svg version="1.1" xmlns="http://www.w3.org/2000/svg" xmlns:xlink="http://www.w3.org/1999/xlink" x="0px" y="0px" width="56px"
	 height="56px" viewBox="0 0 56 56" enable-background="new 0 0 56 56" xml:space="preserve">
<g id="Layer_3">
</g>
<g id="Layer_2">
</g>
<g id="Layer_1">
	<g>
		<g>
			<path fill="#666666" d="M3,27.998c0,13.76,11.193,24.916,25,24.916c13.806-0.002,25-11.156,25-24.916
				C53,14.24,41.806,3.086,28,3.086C14.193,3.086,3,14.24,3,27.998z M51.075,28.002c0,12.697-10.329,22.994-23.077,22.994
				c-12.744,0-23.075-10.297-23.075-22.994c-0.001-12.703,10.331-23,23.077-23C40.744,5.002,51.075,15.299,51.075,28.002z"/>
		</g>
		<polygon fill-rule="evenodd" clip-rule="evenodd" fill="#666666" points="42.595,20.193 24.104,37.898 13.405,27.205 
			15.499,25.111 24.162,33.771 40.503,18.102 		"/>
	</g>
</g>
</svg>
