<?xml version="1.0" encoding="utf-8"?>
<!-- Generator: Adobe Illustrator 23.0.0, SVG Export Plug-In . SVG Version: 6.00 Build 0)  -->
<svg version="1.1" id="Camada_1" xmlns="http://www.w3.org/2000/svg" xmlns:xlink="http://www.w3.org/1999/xlink" x="0px" y="0px"
	 viewBox="0 0 595.28 410.4" style="enable-background:new 0 0 595.28 410.4;" xml:space="preserve">
<style type="text/css">
	.st0{fill:#D52031;}
</style>
<g>
	<g>
		<path class="st0" d="M384.57,47.68H188.38c-81.09,0-147.09,66.01-147.09,147.09c0,81.14,66.01,147.14,147.09,147.14h196.19
			c81.08,0,147.09-66.01,147.09-147.14C531.66,113.68,465.66,47.68,384.57,47.68L384.57,47.68z M384.57,325.54H188.38
			c-72.06,0-130.73-58.66-130.73-130.78c0-72.06,58.66-130.72,130.73-130.72h196.19c72.06,0,130.72,58.66,130.72,130.72
			C515.3,266.88,456.64,325.54,384.57,325.54L384.57,325.54z M384.57,325.54"/>
		<path class="st0" d="M188.38,88.54c-58.58,0-106.23,47.65-106.23,106.23c0,58.59,47.65,106.28,106.23,106.28
			c58.59,0,106.28-47.69,106.28-106.28C294.66,136.19,246.97,88.54,188.38,88.54L188.38,88.54z M188.38,284.68
			c-49.56,0-89.86-40.3-89.86-89.91c0-49.56,40.3-89.86,89.86-89.86c49.61,0,89.91,40.3,89.91,89.86
			C278.29,244.38,237.99,284.68,188.38,284.68L188.38,284.68z M188.38,284.68"/>
		<path class="st0" d="M435.97,156.31l-59.58,59.62l-26.94-26.9c-3.19-3.2-8.34-3.2-11.53,0c-3.19,3.19-3.19,8.34,0,11.53
			l32.68,32.68c1.6,1.59,3.68,2.39,5.79,2.39c2.07,0,4.19-0.8,5.78-2.39l65.37-65.36c3.19-3.2,3.19-8.39,0-11.58
			C444.35,153.11,439.16,153.11,435.97,156.31L435.97,156.31z M435.97,156.31"/>
	</g>
</g>
</svg>
