<svg xmlns="http://www.w3.org/2000/svg" width="388" height="388" viewBox="0 0 388 388">
  <path id="iconfinder_icon-external-link_2867894" d="M347.889,76.5,125.867,298.527a21.556,21.556,0,1,1-30.178-30.609L317.28,46.111H240.111a21.556,21.556,0,0,1,0-43.111H369.444A21.556,21.556,0,0,1,391,24.556V153.889a21.556,21.556,0,1,1-43.111,0ZM304.778,240.111a21.556,21.556,0,0,1,43.111,0V347.889A43.111,43.111,0,0,1,304.778,391H46.111A43.111,43.111,0,0,1,3,347.889V89.222A43.238,43.238,0,0,1,46.111,46.111H153.889a21.556,21.556,0,1,1,0,43.111H46.111V347.889H304.778Z" transform="translate(-3 -3)" fill="#0270e1"/>
</svg>
