<?xml version="1.0" encoding="utf-8"?>
<!-- Generator: Adobe Illustrator 16.0.0, SVG Export Plug-In . SVG Version: 6.00 Build 0)  -->
<!DOCTYPE svg PUBLIC "-//W3C//DTD SVG 1.1//EN" "http://www.w3.org/Graphics/SVG/1.1/DTD/svg11.dtd">
<svg version="1.1" id="Layer_1" xmlns="http://www.w3.org/2000/svg" xmlns:xlink="http://www.w3.org/1999/xlink" x="0px" y="0px"
	 width="256px" height="256px" viewBox="0 0 256 256" enable-background="new 0 0 256 256" xml:space="preserve">
<g id="Layer_1_1_" display="none">
	<g display="inline">
		<g>
			<path fill="#DA355D" d="M83.548,105.393c-5.603,0-10.161-4.559-10.161-10.162c0-5.6,4.56-10.156,10.161-10.156
				s10.157,4.557,10.157,10.156C93.705,100.834,89.148,105.393,83.548,105.393z"/>
		</g>
		<g>
			<path fill="#DA355D" d="M127.98,105.393c-5.603,0-10.16-4.559-10.16-10.162c0-5.6,4.558-10.156,10.16-10.156
				c5.604,0,10.161,4.557,10.161,10.156C138.143,100.834,133.584,105.393,127.98,105.393z"/>
		</g>
		<g>
			<path fill="#DA355D" d="M172.414,105.393c-5.602,0-10.158-4.559-10.158-10.162c0-5.6,4.559-10.156,10.158-10.156
				c5.604,0,10.161,4.557,10.161,10.156C182.575,100.834,178.018,105.393,172.414,105.393z"/>
		</g>
		<g>
			<path fill="#DA355D" d="M106.652,82.289c-5.601,0-10.157-4.557-10.157-10.158c0-5.605,4.557-10.164,10.157-10.164
				c5.603,0,10.16,4.559,10.16,10.164C116.813,77.732,112.255,82.289,106.652,82.289z"/>
		</g>
		<g>
			<path fill="#DA355D" d="M151.085,82.289c-5.601,0-10.157-4.557-10.157-10.158c0-5.605,4.557-10.164,10.157-10.164
				c5.603,0,10.161,4.559,10.161,10.164C161.246,77.732,156.688,82.289,151.085,82.289z"/>
		</g>
		<path fill="#DA355D" d="M128,217.033c-26.28,0-56.032-1.111-77.441-9.352c-22.447-8.644-33.785-23.854-34.617-46.479
			C8.243,158.566,3,150.932,3,142.061c0-8.719,5.35-16.496,12.939-19.137C16.76,99.785,28.515,78.594,49.168,63.1
			C69.918,47.539,97.914,38.967,128,38.967c30.088,0,58.082,8.572,78.831,24.133c20.653,15.494,32.408,36.686,33.229,59.824
			c7.588,2.641,12.938,10.418,12.938,19.137c0,8.871-5.243,16.506-12.939,19.146c-0.834,22.625-12.172,37.836-34.617,46.479
			C184.032,215.922,154.279,217.033,128,217.033z M27.533,162c1.065,17,9.747,28.131,27.168,34.836
			c19.629,7.557,48.068,8.621,73.299,8.621c25.227,0,53.663-1.089,73.299-8.646C218.721,190.104,227.4,179,228.467,162H27.533z
			 M21.65,134c-3.924,0-7.117,3.178-7.117,7.498c0,4.322,3.193,7.502,7.117,7.502h212.7c3.924,0,7.117-3.18,7.117-7.502
			c0-4.32-3.193-7.498-7.117-7.498H21.65z M228.473,122c-1.117-19-11.197-36.596-28.562-49.621
			C181.068,58.246,155.529,50.512,128,50.512c-27.557,0-53.095,7.7-71.91,21.813C38.725,85.349,28.646,103,27.527,122H228.473z"/>
	</g>
</g>
<g id="Layer_2">
	<path fill="#6E6E6E" d="M218.877,58.251h-43.566V56.35c0-24.105-21.316-42.719-47.521-42.719S80.269,32.245,80.269,56.35v1.901
		H40.502L28.579,238.129h202.222L218.877,58.251z M87.871,57.35c0-19.914,17.908-36.116,39.918-36.116
		c22.008,0,39.918,16.202,39.918,36.116v1.901H87.871V57.35z M49.604,68.855h30.664v19.706c-4.42,1.569-7.603,5.747-7.603,10.707
		c0,6.3,5.104,11.405,11.405,11.405c6.299,0,11.405-5.105,11.405-11.405c0-4.96-3.185-9.138-7.604-10.707V68.855h79.837v19.706
		c-4.42,1.569-7.604,5.747-7.604,10.707c0,6.3,5.104,11.405,11.403,11.405c6.302,0,11.406-5.106,11.406-11.405
		c0-4.96-3.187-9.138-7.604-10.707V68.855h34.467l10.889,159.67H38.716L49.604,68.855z"/>
</g>
</svg>
