<?xml version="1.0" encoding="iso-8859-1"?>
<!-- Generator: Adobe Illustrator 19.0.0, SVG Export Plug-In . SVG Version: 6.00 Build 0)  -->
<svg version="1.1" id="Layer_2" xmlns="http://www.w3.org/2000/svg" xmlns:xlink="http://www.w3.org/1999/xlink" x="0px" y="0px"
	 viewBox="0 0 276 219" style="enable-background:new 0 0 276 219;" xml:space="preserve">
<path id="XMLID_76_" style="fill:#FFFFFF;" d="M203.333,131.667h-183c-3.314,0-6-2.686-6-6v-106c0-3.314,2.686-6,6-6h183
	c3.314,0,6,2.686,6,6v106C209.333,128.98,206.647,131.667,203.333,131.667z"/>
<path id="XMLID_82_" style="fill:#D51E31;" d="M211,20c0-4.418-3.582-8-8-8H20c-4.418,0-8,3.582-8,8v106c0,4.418,3.582,8,8,8h183
	c4.418,0,8-3.582,8-8V20z M20.333,16h183c2.206,0,3.667,1.461,3.667,3.667V34H16V19.667C16,17.461,18.128,16,20.333,16z
	 M203.333,130h-183c-2.206,0-4.333-2.127-4.333-4.333V58h191v67.667C207,127.873,205.539,130,203.333,130z"/>
<path id="XMLID_2_" style="fill:#FFFFFF;" d="M250.375,206.875H67.105c-3.314,0-6-2.686-6-6V94.712c0-3.314,2.686-6,6-6h183.27
	c3.314,0,6,2.686,6,6v106.163C256.375,204.189,253.689,206.875,250.375,206.875z"/>
<g id="XMLID_4_">
	<path id="XMLID_79_" style="fill:#D51E31;" d="M258,95c0-4.418-3.582-8-8-8H67c-4.418,0-8,3.582-8,8v106c0,4.418,3.582,8,8,8h183
		c4.418,0,8-3.582,8-8V95z M254,200.333c0,2.206-0.794,4.667-3,4.667H68c-2.206,0-5-2.461-5-4.667V132h191V200.333z M254,109H63
		V94.333C63,92.127,65.794,91,68,91h183c2.206,0,3,1.127,3,3.333V109z"/>
	<rect id="XMLID_91_" x="82" y="154" style="fill:#D51E31;" width="31" height="8"/>
	<rect id="XMLID_92_" x="82" y="172" style="fill:#D51E31;" width="69" height="8"/>
</g>
<g id="XMLID_75_">
	<g id="XMLID_89_">
		<circle id="XMLID_9_" style="fill:#FFFFFF;" cx="66.08" cy="104.15" r="32.5"/>
		<path id="XMLID_86_" style="fill:#D51E31;" d="M66.08,141.65c-20.678,0-37.5-16.822-37.5-37.5s16.822-37.5,37.5-37.5
			s37.5,16.822,37.5,37.5S86.758,141.65,66.08,141.65z M66.08,71.65c-17.92,0-32.5,14.579-32.5,32.5s14.58,32.5,32.5,32.5
			s32.5-14.579,32.5-32.5S84,71.65,66.08,71.65z"/>
	</g>
	<polygon id="XMLID_90_" style="fill:#D51E31;" points="82,100 70,100 70,88 62,88 62,100 51,100 51,108 62,108 62,119 70,119 
		70,108 82,108 	"/>
</g>
</svg>
