<?xml version="1.0" encoding="utf-8"?>
<!-- Generator: Adobe Illustrator 16.0.0, SVG Export Plug-In . SVG Version: 6.00 Build 0)  -->
<!DOCTYPE svg PUBLIC "-//W3C//DTD SVG 1.1//EN" "http://www.w3.org/Graphics/SVG/1.1/DTD/svg11.dtd">
<svg version="1.1" id="Layer_1" xmlns="http://www.w3.org/2000/svg" xmlns:xlink="http://www.w3.org/1999/xlink" x="0px" y="0px"
	 width="256px" height="256px" viewBox="0 0 256 256" enable-background="new 0 0 256 256" xml:space="preserve">
<g>
	<g>
		<path fill="#2DB4E5" d="M177.706,179.24c0,10.598-8.592,19.19-19.194,19.19l0,0c-10.594,0-19.191-8.593-19.191-19.19l0,0
			c0-10.601,8.598-19.194,19.191-19.194l0,0C169.114,160.046,177.706,168.64,177.706,179.24L177.706,179.24z"/>
		<path fill="#2DB4E5" d="M216.092,144.475c0,10.602-8.59,19.194-19.191,19.194l0,0c-10.602,0-19.194-8.593-19.194-19.194l0,0
			c0-10.599,8.593-19.195,19.194-19.195l0,0C207.502,125.279,216.092,133.876,216.092,144.475L216.092,144.475z"/>
		<polygon fill="#2DB4E5" points="109.503,146.388 85.497,146.388 85.497,122.383 63.91,122.383 63.91,146.388 39.909,146.388 
			39.909,167.971 63.91,167.971 63.91,191.977 85.497,191.977 85.497,167.971 109.503,167.971 		"/>
	</g>
	<path fill="#2DB4E5" d="M84.118,239c-20.657,0-41.302-9.037-56.641-23.762C11.693,200.086,3,179.925,3,159.006
		c0-20.92,8.693-40.236,24.477-55.387C42.816,88.895,63.461,81,84.118,81H122V18h12v63h37.883c20.656,0,41.301,7.746,56.641,22.471
		C244.307,118.622,253,138.139,253,159.059s-8.693,41.202-24.477,56.354C213.184,230.138,192.539,239,171.883,239H84.118z
		 M84.118,94c-9.417,0-18.203,0.955-26.116,4.239c-8.72,3.618-15.944,7.88-22.086,13.758c-6.477,6.198-11.569,13.179-15.136,21.097
		c-3.702,8.213-5.579,16.795-5.579,25.68c0,8.886,1.877,17.511,5.578,25.723c3.57,7.926,8.663,15.063,15.137,21.257
		c6.458,6.182,13.888,11.301,22.086,14.702C66.45,223.961,75.236,226,84.118,226h87.765c8.881,0,17.668-2.051,26.116-5.557
		c8.187-3.396,15.616-8.395,22.086-14.585c6.489-6.209,11.581-13.428,15.136-21.321c3.701-8.214,5.578-16.91,5.578-25.781
		c0-8.857-1.877-17.53-5.578-25.745c-3.523-7.824-8.615-14.962-15.136-21.2c-6.251-5.982-13.682-10.079-22.086-13.568
		C190.088,94.959,181.301,94,171.883,94H84.118z"/>
</g>
</svg>
