<?xml version="1.0" standalone="no"?>
<!DOCTYPE svg PUBLIC "-//W3C//DTD SVG 1.1//EN" "http://www.w3.org/Graphics/SVG/1.1/DTD/svg11.dtd" >
<svg xmlns="http://www.w3.org/2000/svg">
<metadata>Generated by IcoMoon</metadata>
<defs>
<font id="icomoon" horiz-adv-x="1024">
<font-face units-per-em="1024" ascent="960" descent="-64" />
<missing-glyph horiz-adv-x="1024" />
<glyph unicode="&#x20;" horiz-adv-x="512" d="" />
<glyph unicode="&#xe600;" glyph-name="icons_add" d="M512 894c-246.318 0-446-199.68-446-446s199.682-446 446-446c246.32 0 446 199.68 446 446s-199.68 446-446 446zM708 430h-182v-178h-30v178h-180v30h180v184h30v-184h182v-30z" />
<glyph unicode="&#xe601;" glyph-name="icons_add2" d="M958 506h-388v388h-120v-388h-384v-120h384v-384h120v384h388z" />
<glyph unicode="&#xe602;" glyph-name="icons_ajustes" d="M405.17 866.148l41.72-47.684c9.292-10.572 21.016-19.11 33.932-24.702 11.53-4.98 23.746-7.608 36.322-7.814 0.502-0.008 1-0.012 1.504-0.012 26.424 0 51.894 11.098 69.854 30.428l43.098 46.284 100.464-43.418-4.212-63.246c-1.688-25.934 7.394-51.746 24.92-70.818l0.154-0.168 0.156-0.166 1.354-1.428 0.11-0.118 0.112-0.116c8.646-8.934 18.92-16.004 30.512-21.006 11.918-5.154 25.040-7.876 37.946-7.876 1.152 0 2.304 0.020 3.406 0.062l63.188 2.246 40.314-101.742-47.684-41.74c-19.99-17.594-31.83-42.9-32.484-69.406l-0.070-2.76-0.054-2.12 0.206-1.78c1.112-24.788 12.096-48.61 30.286-65.562l46.328-43.13-43.414-100.458-63.138 4.192c-2.074 0.136-4.182 0.206-6.264 0.206-24.646 0-48.026-9.322-65.832-26.25l-3.824-3.636-1.172-1.508c-16.496-18.22-25.448-42.674-24.606-67.396l2.272-63.292-101.752-40.356-41.956 47.948c-9.194 10.47-20.836 18.93-33.62 24.44-11.448 4.958-23.494 7.57-35.816 7.76l-1.688 0.058-0.706-0.008c-26.51-0.34-51.942-11.512-69.782-30.66l-42.864-46.046-100.458 43.46 4.214 63.156c1.674 25.19-6.926 50.476-23.594 69.374l-0.218 0.248-0.222 0.242-2.066 2.244-0.352 0.358c-9.292 9.426-19.39 16.426-30.89 21.406-11.95 5.168-25.080 7.9-37.972 7.9-1.144 0-2.286-0.022-3.388-0.062l-63.16-2.262-40.326 101.766 47.596 41.654c19.458 17.004 31.302 41.582 32.492 67.428l0.018 0.384 0.008 0.384 0.070 3.444 0.010 0.55-0.008 0.548c-0.424 26.224-11.498 51.346-30.37 68.918l-46.322 43.16 43.41 100.448 63.206-4.204c2.052-0.134 4.138-0.202 6.198-0.202 24.986 0 48.6 9.55 66.494 26.894l0.232 0.226 0.228 0.23 0.84 0.85c18.558 18.716 28.626 44.526 27.626 70.74l-2.254 63.162 101.738 40.354zM511.824 284.038c65.552 0 124.696 38.824 150.674 98.914 35.86 82.986-2.47 179.69-85.448 215.57-20.658 8.93-42.478 13.458-64.866 13.458-65.558-0.002-124.7-38.824-150.672-98.908-35.856-82.986 2.466-179.688 85.428-215.568 20.664-8.936 42.494-13.466 64.884-13.466zM406.628 897.124c-3.094 0-6.19-0.584-9.148-1.75l-108.464-43.026c-9.756-3.854-16.056-13.522-15.688-24.024l2.382-66.76c0.688-18.016-6.204-35.696-18.948-48.548l-0.876-0.888c-12.208-11.834-28.634-18.436-45.614-18.436-1.414 0-2.83 0.044-4.25 0.138l-66.764 4.44c-0.554 0.038-1.108 0.056-1.658 0.056-9.848 0-18.886-5.882-22.844-15.030l-46.274-107.080c-4.164-9.646-1.796-20.94 5.906-28.074l48.944-45.604c12.954-12.060 20.528-29.114 20.826-47.454l-0.070-3.444c-0.818-17.734-8.948-34.582-22.266-46.22l-50.33-44.044c-7.898-6.928-10.616-18.156-6.74-27.912l42.988-108.486c2.452-6.182 7.152-11.022 13.258-13.674 3.11-1.338 6.386-2.024 9.75-2.024 0.336 0 0.674 0.006 1.012 0.020l66.764 2.392c0.77 0.028 1.542 0.042 2.314 0.042 8.864 0 17.842-1.878 26.064-5.434 7.85-3.4 14.708-8.11 21.432-14.93l1.726-1.874c11.402-12.926 17.306-30.272 16.16-47.542l-4.456-66.77c-0.688-10.48 5.338-20.344 14.984-24.49l107.062-46.318c3.172-1.366 6.524-2.028 9.846-2.028 6.774 0 13.43 2.75 18.228 7.906l45.334 48.7c12.266 13.166 29.622 20.864 48.208 21.102l1.288-0.044c8.456-0.096 16.738-1.884 24.61-5.294 8.792-3.79 16.728-9.56 23.002-16.706l44.31-50.638c2.474-2.794 5.458-4.98 8.84-6.454 3.156-1.364 6.496-2.048 9.846-2.048 3.11 0 6.226 0.588 9.208 1.766l108.46 43.016c9.77 3.844 16.084 13.5 15.698 23.992l-2.404 66.932c-0.59 17.302 5.788 34.354 17.556 46.934l0.546 0.704 2.188 2.080c12.152 11.552 28.39 17.994 45.162 17.994 1.428 0 2.862-0.046 4.294-0.14l66.716-4.428c0.554-0.038 1.11-0.056 1.66-0.056 9.844 0 18.89 5.884 22.846 15.030l46.27 107.068c4.168 9.658 1.802 20.94-5.906 28.106l-48.948 45.572c-12.734 11.866-20.28 28.54-20.794 45.906l-0.096 0.834 0.070 2.76c0.45 18.2 8.574 35.556 22.314 47.65l50.33 44.054c7.914 6.928 10.642 18.134 6.75 27.912l-42.978 108.464c-2.462 6.172-7.146 11.034-13.258 13.674-3.142 1.354-6.334 2.024-9.738 2.024-0.35 0-0.702-0.006-1.056-0.022l-66.754-2.372c-0.778-0.028-1.558-0.042-2.34-0.042-8.876 0-17.822 1.86-26.038 5.414-7.98 3.444-14.974 8.25-20.864 14.334l-1.354 1.428c-12.028 13.090-18.232 30.782-17.074 48.57l4.446 66.748c0.698 10.514-5.316 20.366-14.962 24.556l-107.072 46.282c-3.176 1.372-6.532 2.036-9.856 2.036-6.78 0-13.44-2.76-18.246-7.926l-45.55-48.916c-12.352-13.294-29.74-20.872-47.898-20.872-0.344 0-0.684 0.002-1.028 0.008-8.602 0.14-16.982 1.938-24.902 5.36-8.878 3.844-16.928 9.722-23.294 16.966l-44.050 50.346c-2.462 2.804-5.434 4.98-8.84 6.442-3.184 1.374-6.546 2.064-9.908 2.064v0zM511.824 314.038c-17.714 0-35.708 3.534-52.978 11.002-67.792 29.32-99.094 108.324-69.796 176.132 21.846 50.534 71.294 80.804 123.134 80.806 17.71 0 35.696-3.532 52.96-10.994 67.804-29.32 99.104-108.346 69.812-176.132-21.85-50.546-71.294-80.814-123.132-80.814v0z" />
<glyph unicode="&#xe603;" glyph-name="icons_atencao" d="M512 893.192c-246.318 0-446-199.68-446-446 0-246.318 199.682-446 446-446s446 199.682 446 446c0 246.32-199.682 446-446 446zM486 702h52v-341.708l-52-9.468v351.176zM512 192.578c-20.964 0-33.812 14.204-33.812 37.872 0 23.67 12.848 37.872 33.812 37.872s33.812-14.202 33.812-37.872c0-23.67-12.848-37.872-33.812-37.872z" />
<glyph unicode="&#xe604;" glyph-name="icons_atencao2" d="M512 864c56.172 0 110.648-10.994 161.916-32.678 49.534-20.952 94.026-50.95 132.24-89.166 38.214-38.214 68.214-82.706 89.164-132.24 21.684-51.266 32.68-105.744 32.68-161.916s-10.996-110.648-32.68-161.916c-20.95-49.534-50.95-94.026-89.164-132.24s-82.708-68.214-132.24-89.164c-51.268-21.686-105.744-32.68-161.916-32.68s-110.648 10.994-161.916 32.68c-49.534 20.95-94.026 50.95-132.24 89.164s-68.214 82.708-89.164 132.24c-21.684 51.268-32.68 105.744-32.68 161.916s10.996 110.65 32.68 161.916c20.95 49.534 50.95 94.026 89.164 132.24s82.708 68.214 132.24 89.166c51.268 21.684 105.744 32.678 161.916 32.678zM512 894c-246.318 0-446-199.68-446-446 0-246.318 199.682-446 446-446s446 199.682 446 446c0 246.32-199.682 446-446 446v0zM512.002 813.988c-202.128 0-365.988-163.86-365.988-365.988s163.86-365.988 365.988-365.988 365.988 163.858 365.988 365.988-163.86 365.988-365.988 365.988zM492 658h44v-281.312l-44-7.77v289.082zM512.002 239.062c-17.206 0-27.746 11.652-27.746 31.074 0 19.426 10.542 31.080 27.746 31.080s27.746-11.654 27.746-31.080c0-19.422-10.54-31.074-27.746-31.074z" />
<glyph unicode="&#xe605;" glyph-name="icons_atendimento" d="M448 488h462v-30h-462v30zM448 398h462v-30h-462v30zM448 308h462v-30h-462v30zM955.608 640h-243.608v192.708c0 35.506-29.478 63.292-64.99 63.292h-578.616c-35.512 0-64.394-27.786-64.394-63.292v-385.746c0-35.502 28.882-64.962 64.394-64.962h63.606v-123.086l162.428 123.086h17.572v-192.2c0-35.504 29.478-63.8 64.99-63.8h65.010v-124.25l161.024 124.25h352.584c35.51 0 64.392 28.296 64.392 63.8v385.746c0 35.504-28.882 64.454-64.392 64.454zM312 575.546v-163.546h-27.732l-8.412-5.838-113.856-86.52v92.358h-93.606c-18.908 0-34.394 16.056-34.394 34.964v385.744c0 18.91 15.486 33.292 34.394 33.292h578.618c18.906 0 34.988-14.382 34.988-33.292v-192.708h-305.010c-35.512 0-64.99-28.95-64.99-64.454zM990 189.8c0-18.908-15.484-33.8-34.392-33.8h-362.746l-7.708-6.42-113.154-87.1v93.52h-95.012c-18.908 0-34.99 14.892-34.99 33.8v385.746c0 18.908 16.082 34.454 34.99 34.454h578.618c18.908 0 34.392-15.546 34.392-34.454v-385.746z" />
<glyph unicode="&#xe606;" glyph-name="icons_atualizar" d="M711.594 593.676c7.706-11.132 15.918-21.956 23.006-33.468 12.374-20.106 20.85-41.98 27.752-65.1-2.026-0.196-3.554-0.47-5.082-0.472-16.448-0.022-32.894 0.15-49.332-0.096-4.164-0.062-5.99 1.25-7.418 5.164-10.086 27.688-25.334 51.948-47.43 71.832-52.586 47.33-132.686 56.688-194.6 22.198-8.47-4.718-16.458-10.368-24.338-16.048-4.906-3.538-9.192-7.94-14.226-12.372 19.872-19.872 39.464-39.464 59.058-59.058-0.144-0.858-0.292-1.718-0.434-2.578-52.764 0.578-105.526 1.156-158.762 1.738-0.060 2-0.184 4.184-0.184 6.37-0.036 48.724-0.046 97.452-0.122 146.178-0.004 2.126-0.54 4.25-0.824 6.376 0.288 0.288 0.574 0.574 0.862 0.862 20.010-20.008 40.018-40.018 59.47-59.468 11.158 8.822 21.126 17.466 31.846 25.054 72.424 51.26 173.816 53.818 248.648 6.308 10.224-6.492 19.818-13.982 29.704-21.010 7.47-7.472 14.938-14.942 22.406-22.41zM368.638 295.53c-7.704 11.124-15.912 21.934-22.998 33.438-12.382 20.112-20.89 41.984-27.792 65.178 2.212 0.172 3.944 0.424 5.674 0.426 16.246 0.020 32.496-0.154 48.738 0.094 4.154 0.062 5.986-1.23 7.414-5.152 9.934-27.296 24.87-51.332 46.558-71.012 50.934-46.218 126.812-57.016 188.556-26.684 16.702 8.206 31.71 18.742 45.354 32.342-19.72 19.718-39.306 39.306-58.376 58.376 52.716 0.086 105.504 0.174 157.922 0.26-0.094-51.672-0.192-104.402-0.29-157.066-19.016 19.016-38.558 38.556-58.2 58.2-8.544-7.072-16.296-14.182-24.732-20.358-58.866-43.086-123.96-55.186-194.494-37.768-32.37 7.992-61.294 23.258-86.88 44.73-1.218 1.022-2.698 1.734-4.052 2.594-7.466 7.466-14.934 14.934-22.402 22.402zM536 864c56.174 0 110.65-10.994 161.918-32.678 49.534-20.952 94.024-50.95 132.238-89.166 38.214-38.214 68.214-82.706 89.164-132.24 21.684-51.266 32.68-105.744 32.68-161.916s-10.996-110.648-32.68-161.916c-20.95-49.534-50.95-94.026-89.164-132.24s-82.706-68.214-132.238-89.164c-51.268-21.686-105.746-32.68-161.918-32.68s-110.648 10.994-161.916 32.68c-49.534 20.95-94.026 50.95-132.24 89.164s-68.214 82.708-89.164 132.24c-21.684 51.268-32.68 105.744-32.68 161.916s10.996 110.65 32.68 161.916c20.95 49.534 50.95 94.026 89.164 132.24s82.708 68.214 132.24 89.166c51.268 21.684 105.744 32.678 161.916 32.678zM536 894c-246.318 0-446-199.68-446-446 0-246.318 199.682-446 446-446 246.32 0 446 199.682 446 446 0 246.32-199.68 446-446 446v0z" />
<glyph unicode="&#xe607;" glyph-name="icons_auto" d="M755.908 114.816h-32.61c-39.106 0-70.922 31.816-70.922 70.922v39.542h-280.752v-39.542c0-39.106-31.816-70.922-70.922-70.922h-32.632c-39.114 0-70.934 31.816-70.934 70.922v39.542h-80.684v220.070c0 27.17 10.114 53.146 28.48 73.148 15.858 17.272 36.666 28.818 59.422 33.152l37.578 131.054c21.114 65.348 56.674 98.48 105.694 98.48h328.752c49.018 0 84.58-33.132 105.692-98.48l0.146-0.478 37.432-130.576c22.754-4.334 43.564-15.88 59.422-33.152 18.368-20.002 28.482-45.978 28.482-73.148v-220.068h-80.712v-39.542c0-39.108-31.82-70.924-70.932-70.924zM340.446 255.282h342.926l-0.926-16.872c-0.030-0.46-0.070-0.92-0.070-1.386v-51.286c0-22.564 18.358-40.922 40.922-40.922h32.61c22.57 0 40.932 18.358 40.932 40.922v51.286c0 0.518-0.048 1.026-0.084 1.54l-1.092 16.718h81.884v190.068c0 40.69-30.53 74.172-71.014 77.884l-10.22 0.938-42.87 149.542c-22.5 69.438-54.754 77.47-77.070 77.47h-328.75c-22.316 0-54.57-8.034-77.070-77.47l-42.87-149.542-10.22-0.938c-40.484-3.712-71.012-37.196-71.012-77.884v-190.068h81.69l-0.94-17.042c-0.028-0.404-0.066-0.806-0.066-1.214v-51.286c0-22.564 18.364-40.922 40.934-40.922h32.632c22.564 0 40.922 18.358 40.922 40.922v51.286c0 0.51-0.046 1.010-0.084 1.518l-1.094 16.738zM719.78 305.93c-46.39 0-84.13 37.734-84.13 84.118 0 46.394 37.74 84.14 84.13 84.14 46.402 0 84.152-37.746 84.152-84.14 0-46.384-37.75-84.118-84.152-84.118zM719.78 444.188c-29.848 0-54.13-24.288-54.13-54.14 0-29.84 24.282-54.118 54.13-54.118 29.86 0 54.152 24.278 54.152 54.118 0 29.852-24.292 54.14-54.152 54.14zM304.184 305.93c-46.396 0-84.142 37.734-84.142 84.118 0 46.394 37.746 84.14 84.142 84.14s84.142-37.746 84.142-84.14c0-46.384-37.746-84.118-84.142-84.118zM304.184 444.188c-29.854 0-54.142-24.288-54.142-54.14 0-29.84 24.288-54.118 54.142-54.118s54.142 24.278 54.142 54.118c0 29.852-24.288 54.14-54.142 54.14zM737.724 521.554h-451.448l34.662 120.844c18.212 56.45 51.058 56.45 77.448 56.45h227.228c26.39 0 59.236 0 77.45-56.45l0.144-0.47 34.516-120.374zM326.088 551.554h371.824l-23.474 81.866c-11.49 35.426-24.766 35.428-48.824 35.428h-227.228c-24.058 0-37.334 0-48.824-35.432l-23.474-81.862z" />
<glyph unicode="&#xe608;" glyph-name="icons_beneficos" d="M742.662 594c43.888 26 60.448 84.246 36.718 131.472-17.852 35.524-53.69 55.94-90.908 55.938-15.334-0.002-30.912-3.534-45.55-10.888-20.202-10.15-47.396-43.116-72.678-78.842 19.568 39.77 36.298 80.568 36.298 103.868 0 56.136-45.504 101.638-101.642 101.638-56.136 0-101.642-45.51-101.642-101.648 0-27.074 24.7-77.786 50.276-123.040-28.636 42.488-62.114 86.026-85.898 97.976-14.638 7.354-30.214 10.838-45.548 10.838-37.216 0-73.056-20.318-90.908-55.842-23.732-47.224-7.174-105.47 36.718-131.47h-211.898v-180h70v-354.236c0-33.51 28.318-59.764 61.836-59.764h655.366c33.518 0 60.798 26.254 60.798 59.764v354.236h66v180h-227.338zM657.434 742.094c9.772 4.908 20.214 7.906 31.040 7.906h0.004c26.404 0 50.166-15.154 62.014-38.728 8.312-16.542 9.684-35.584 3.864-53.16-5.822-17.574-18.138-31.958-34.684-40.272-5.040-2.532-27.376-10.86-103.124-10.86-21.928 0-43.708 0.668-62.282 1.536 7.4 11.994 15.932 25.75 25.050 39.486 51.814 78.052 74.166 92.104 78.118 94.092zM504.9 864.85c38.22 0 69.314-31.094 69.314-69.314 0-6.354-3.224-33.264-44.706-112.716-7.304-13.992-14.648-27.392-21.304-39.232-7.394 11.998-15.6 25.67-23.78 39.984-46.484 81.342-48.838 107.54-48.838 111.964 0 38.22 31.094 69.314 69.314 69.314zM260.066 710.762c11.848 23.576 35.612 38.222 62.022 38.222 10.822 0 21.264-2.49 31.036-7.398 3.946-1.982 26.242-15.808 77.916-93.596 9.184-13.826 17.79-27.416 25.252-39.506-18.558-0.868-40.328-1.566-62.282-1.566-75.75 0-98.082 8.262-103.126 10.796-16.544 8.312-28.862 22.57-34.682 40.144-5.822 17.574-4.448 36.362 3.864 52.904zM414 32h-226.164c-15.634 0-29.836 12.132-29.836 27.764v354.236h256v-382zM414 446h-326v116h326v-116zM574 32h-126v530h126v-530zM872 59.764c0-15.632-13.164-27.764-28.796-27.764h-237.204v382h266v-354.236zM938 446h-332v116h332v-116z" />
<glyph unicode="&#xe609;" glyph-name="icons_casa" d="M512 855.216l410.948-371.428h-87.522v-453.44h-190.678v359.536h-265.496v-359.538h-190.642v453.44h-87.558l410.948 371.43zM512 895.654l-488.88-441.866h135.49v-453.44h250.642v359.536h205.496v-359.538h250.678v453.44h135.456l-488.882 441.868z" />
<glyph unicode="&#xe60a;" glyph-name="icons_checkin" d="M513.65 866.688c82.23 0 159.534-31.904 217.67-89.836 58.108-57.904 90.11-134.884 90.11-216.76 0-37.522-16.594-88.694-49.32-152.096-27.286-52.864-65.504-113.468-113.59-180.13-56.888-78.864-114.364-147.704-144.872-183.182-30.438 35.392-87.722 104.002-144.56 182.758-48.164 66.738-86.446 127.412-113.784 180.336-32.8 63.502-49.432 114.748-49.432 152.314 0 81.876 32 158.856 90.11 216.76 58.136 57.932 135.438 89.836 217.668 89.836zM513.65 473.996c63.106 0 114.446 51.208 114.446 114.154 0 62.948-51.34 114.16-114.446 114.16s-114.444-51.212-114.444-114.16c0-62.946 51.338-114.154 114.444-114.154zM513.65 896.688c-186.548 0-337.778-150.698-337.778-336.598s337.778-560.988 337.778-560.988 337.78 375.086 337.78 560.988-151.23 336.598-337.78 336.598v0zM513.65 503.996c-46.636 0-84.444 37.676-84.444 84.154 0 46.472 37.808 84.16 84.444 84.16s84.446-37.688 84.446-84.16c0-46.478-37.808-84.154-84.446-84.154v0z" />
<glyph unicode="&#xe60b;" glyph-name="icons_digital" d="M557.832 0.606c-46.048 0-85.578 5.268-103.432 8.088l-0.948 0.182c-129.222 29.042-194.69 103.606-226.854 161.044-33.526 59.87-38.626 113.086-39.112 119.142-1.586 12.428-24.496 197.926 0.126 341.366 0.752 4.786 12.828 77.070 64.326 146.382 57.636 77.574 141.648 118.564 242.986 118.564 0.236 0 0.47-0.002 0.706-0.002 1.444 0.016 2.88 0.022 4.31 0.022 126.654 0 208.374-56.082 254.75-103.438 53.348-54.472 76.788-113.214 79.29-131.65 22.882-168.8 10.314-314.832 10.186-316.29-0.286-2.914-7.17-68.998-48.428-133.962-36.43-57.364-106.894-123.628-237.874-123.632-7.364-0.002-14.904 0.208-22.654 0.64-91.8 4.786-164.184 36.146-215.084 93.208-54.046 60.588-69 133.706-72.026 184.376l-0.598 9.874c-7.864 129.484-21.024 346.2 161.68 418.85 97.97 38.954 174.78 17.338 221.962-7.652 64.984-34.418 116.364-99.012 130.896-164.558 25.242-113.818 60.080-385.68-161.048-451.698l-0.474-0.134c-47.026-12.364-130.384-1.106-192.286 44.114-54.078 39.506-84.652 98.814-88.418 171.514-6.312 116.014-0.212 181.208 0.050 183.926l0.076 0.652c0.218 1.544 5.644 38.29 32.046 75.548 24.432 34.48 72.014 76.014 159.938 78.072 48.4 1.128 92.408-17.014 127.274-52.478 44.486-45.25 63.106-106.482 61.58-144.224-0.624-15.428-0.192-34.632 0.266-54.964 1.404-62.4 2.996-133.126-22.758-165.718-19.936-25.24-72.444-62.986-135.386-63.526-51.74-0.488-100.132 24.946-139.788 73.422l-0.688 0.842-0.558 0.93c-31.864 53.032-13.418 222.478-11.208 241.626l0.158 1.048c0.186 0.992 4.772 24.548 23.134 47.73 16.924 21.364 49.126 46.704 106.412 46.294l1.404-0.076c71.152-7.244 108.316-74.458 108.254-137.108-0.010-10.858 0.782-24.126 1.618-38.174 3.316-55.618 7.072-118.654-26.6-145.204-23.040-18.168-59.894-21.226-91.714-7.61-29.938 12.81-48.82 37.554-51.876 67.938-4.442 27.744-16.072 118.25 14.212 152.098 8.126 9.082 18.608 13.632 30.42 13.148 14.586-0.078 31.030-1.3 42.332-14.154 9.464-10.766 12.634-26.6 9.942-49.754 2.38-45.428 0.032-89.31-0.072-91.172l-29.954 1.64c0.024 0.446 2.404 45.012-0.002 89.216l-0.072 1.34 0.166 1.33c2.434 19.528-0.964 25.798-2.538 27.588-3.010 3.424-11.504 3.93-20.234 3.966l-0.668 0.018c-2.346 0.11-4.462-0.378-6.962-3.172-13.71-15.324-16.54-67.872-6.878-127.784l0.126-0.976c2.504-26.478 22.292-38.74 33.866-43.692 21.328-9.13 47.126-7.622 61.334 3.586 21.37 16.848 17.82 76.388 15.228 119.862-0.864 14.514-1.682 28.222-1.67 39.988 0.040 39.622-21.408 100.68-80.604 107.158-0.184 0.002-0.366 0.002-0.548 0.002-35.658 0-63.040-11.748-81.402-34.93-12.484-15.76-16.488-31.644-17.084-34.264-5.636-49.392-15.116-182.614 6.69-221.186 33.708-40.83 72.21-61.526 114.462-61.526 0.37 0 0.738 0.002 1.11 0.004 52.026 0.446 96.372 32.208 112.102 52.124 19.058 24.122 17.468 94.822 16.306 146.448-0.468 20.818-0.91 40.482-0.25 56.852 1.314 32.492-16.468 84.826-52.996 121.982-29.32 29.822-64.778 44.504-105.178 43.518-60.594-1.418-106.406-23.43-136.164-65.424-21.096-29.774-26.262-58.934-26.774-62.112-0.482-5.432-5.856-69.978 0.082-179.080 3.33-64.32 28.954-114.396 76.156-148.88 57.656-42.12 132.084-48.378 166.722-39.384 85.264 25.542 136.644 89.406 152.73 189.822 13.040 81.388 0.328 168.128-12.63 226.562-12.708 57.328-58.106 114.064-115.648 144.542-41.6 22.036-109.522 41.008-196.836 6.288-71.060-28.258-115.112-83.686-134.67-169.454-16.972-74.428-11.874-158.392-8.15-219.702l0.598-9.902c3.316-55.518 31.782-237.58 258.78-249.416 105.3-5.862 183.878 30.846 233.588 109.122 37.464 58.992 43.822 120.064 43.882 120.676 0.114 1.288 12.366 144.148-10.042 309.46-3.586 26.404-84.408 211.352-308.5 209.1-0.222 0-0.454 0-0.676 0-92.938 0-166.57-35.812-219.058-106.456-38.216-51.44-55.158-109.618-58.778-133.194l-0.042-0.264c-24.2-140.828-0.152-331.052 0.094-332.958l0.088-0.894c0.036-0.482 4.050-51.632 36.028-108.156 42.452-75.040 111.808-123.89 206.154-145.202 75.742-11.902 215.656-16.944 262.048 39.314l23.144-19.086c-25.59-31.034-72.396-49.812-139.12-55.82-16.284-1.468-32.412-2.056-47.806-2.056z" />
<glyph unicode="&#xe60c;" glyph-name="icons_editar" d="M536 856c56.174 0 110.65-10.994 161.918-32.68 49.534-20.95 94.024-50.95 132.238-89.164s68.214-82.708 89.164-132.238c21.684-51.27 32.68-105.746 32.68-161.918s-10.996-110.648-32.68-161.916c-20.95-49.534-50.95-94.026-89.164-132.24s-82.706-68.214-132.238-89.164c-51.268-21.686-105.746-32.68-161.918-32.68s-110.648 10.994-161.916 32.68c-49.534 20.95-94.026 50.95-132.24 89.164s-68.214 82.708-89.164 132.24c-21.684 51.268-32.68 105.744-32.68 161.916s10.996 110.648 32.68 161.918c20.95 49.532 50.95 94.024 89.164 132.238s82.708 68.214 132.24 89.164c51.268 21.686 105.744 32.68 161.916 32.68zM536 886c-246.318 0-446-199.68-446-446 0-246.318 199.682-446 446-446 246.32 0 446 199.682 446 446 0 246.32-199.68 446-446 446v0zM711.57 607.746l-49.774 50.83c-6.438 6.58-13.458 10.54-21.378 11.964-2.046 0.356-3.808 0.584-5.272 0.584-5.564 0-10.548-2.076-14.354-5.968l-49.48-50.828-241.896-246.036c-0.878-0.908-1.858-3.568-2.928-8.37l-20.208-90.598c-0.584-1.798-0.88-3.578-0.88-5.070 0-3.902 1.76-7.786 4.982-11.066 2.63-2.708 6.142-4.19 9.958-4.19 1.462 0 2.946 0.218 4.39 0.592l86.972 23.32c2.056 0.564 5.27 3.292 6.734 4.792l290.792 297.456c6.15 6.286 9.374 12.558 9.374 18.24 0 5.082-2.486 9.712-7.032 14.348zM398.522 304.608l-57.11-14.642 14.642 58.29 2.938 3.596 43.042-43.958-3.512-3.286zM424.876 330.91l-43.042 44.258 200.022 204.478 43.338-43.654-200.318-205.082zM648.032 558.718l-43.328 43.95 33.086 33.784 43.050-43.95-32.808-33.784zM355.204 224.874l118.060 33.084h212.512v-33.084h-330.572z" />
<glyph unicode="&#xe60d;" glyph-name="icons_encerrar" d="M734 706v188h-730v-892h730v216h-34v-170.022l-382 85.246v620.082l382 97.058v-144.364h34zM282 780.61v-675.524l304.87-67.086h-546.87v820h550.352l-308.352-77.39zM798 576v-34h180v-186h-180v-35.868l-127.476 127.698 127.586 127.342zM840 677.586l-229.758-229.756 229.758-229.758v95.928h180v272h-180v91.586z" />
<glyph unicode="&#xe60e;" glyph-name="icons_entretenimento" d="M672.856 281.56c0-34.294-27.804-62.104-62.118-62.104v0c-34.282 0-62.104 27.808-62.104 62.104v0c0 34.306 27.822 62.116 62.104 62.116v0c34.312 0 62.118-27.808 62.118-62.116v0zM797.076 394.068c0-34.308-27.798-62.116-62.106-62.116v0c-34.306 0-62.116 27.806-62.116 62.116v0c0 34.296 27.808 62.118 62.116 62.118v0c34.308 0 62.106-27.82 62.106-62.118v0zM452.14 387.876h-77.684v77.684h-69.86v-77.684h-77.67v-69.844h77.67v-77.686h69.86v77.686h77.684zM654.010 596h-130.010v202h-24v-202h-130.008c-134.678 0-254.51-111.334-254.51-248 0-136.654 119.832-248 254.51-248h284.018c134.678 0 254.508 111.346 254.508 248 0 136.666-119.83 248-254.508 248zM815.532 190.082c-21.576-20.648-46.454-36.964-73.938-48.37-28.228-11.716-57.696-17.712-87.584-17.712h-284.018c-29.888 0-59.356 5.996-87.582 17.712-27.488 11.404-52.366 27.69-73.94 48.34-21.708 20.77-38.78 44.788-50.746 71.354-12.448 27.618-18.758 56.786-18.758 86.676s6.31 59.054 18.758 86.674c11.966 26.564 29.040 50.566 50.746 71.34 21.574 20.646 46.452 35.874 73.94 47.28 28.226 11.712 57.694 16.626 87.582 16.626h284.018c29.888 0 59.358-4.91 87.584-16.624 27.486-11.408 52.362-27.146 73.938-47.792 21.708-20.772 38.782-44.516 50.744-71.078 12.448-27.624 18.758-56.652 18.758-86.544 0-29.89-6.31-58.984-18.758-86.606-11.964-26.566-29.038-50.502-50.744-71.276z" />
<glyph unicode="&#xe60f;" glyph-name="icons_extratocartao" d="M310 618h242v-30h-242v30zM310 556h242v-28h-242v28zM310 496h242v-28h-242v28zM830.942 410h-146.942v327.15l-160.84 160.85h-395.16v-712h162v-124.386c0-35.090 28.716-63.614 63.886-63.614h477.054c34.83 0 65.060 27.928 65.060 63.614v282.336c0 35.962-30.812 66.050-65.058 66.050zM647.312 732h-127.312v127.262l127.312-127.262zM290 343.95v-127.95h-132v650h328v-168h168v-288h-300.114c-34.572 0-63.886-30.698-63.886-66.050zM864 61.614c0-19.056-14.86-35.614-33.058-35.614h-477.056c-18.82 0-33.886 16.876-33.886 35.614v190.386h544v-190.386zM864 308h-544v35.95c0 18.946 15.706 36.050 33.886 36.050h477.054c17.896 0 33.058-16.44 33.058-36.050v-35.95z" />
<glyph unicode="&#xe610;" glyph-name="icons_fechar" d="M827.37 763.37c-174.174 174.174-456.564 174.174-630.738 0s-174.174-456.566 0-630.74c174.174-174.174 456.564-174.174 630.738 0 174.172 174.174 174.174 456.566 0 630.74zM724.13 216.070l-212.13 212.13-212.13-212.13-21.214 21.212 212.13 212.132-210.718 210.718 21.214 21.212 210.718-210.716 210.716 210.716 21.214-21.212-210.716-210.718 212.13-212.132-21.214-21.212z" />
<glyph unicode="&#xe611;" glyph-name="icons_fechar2" d="M868.382 173.642l-274.358 274.358 274.358 274.358-84.852 84.852-274.358-274.356-271.53 271.528-84.852-84.852 271.528-271.53-271.528-271.53 84.852-84.85 271.53 271.526 274.358-274.356z" />
<glyph unicode="&#xe612;" glyph-name="icons_help" d="M512 866c56.308 0 110.916-11.022 162.306-32.758 49.652-21 94.252-51.072 132.558-89.378s68.378-82.906 89.378-132.558c21.736-51.39 32.758-105.998 32.758-162.306s-11.022-110.916-32.758-162.306c-21-49.652-51.072-94.252-89.378-132.558s-82.906-68.378-132.558-89.378c-51.39-21.736-105.998-32.758-162.306-32.758s-110.916 11.022-162.306 32.758c-49.652 21-94.252 51.072-132.558 89.378s-68.378 82.906-89.378 132.558c-21.736 51.39-32.758 105.998-32.758 162.306s11.022 110.916 32.758 162.306c21 49.652 51.072 94.252 89.378 132.558s82.906 68.378 132.558 89.378c51.39 21.736 105.998 32.758 162.306 32.758zM512 896c-246.872 0-447-200.128-447-447s200.128-447 447-447 447 200.128 447 447-200.128 447-447 447v0zM417.892 640.938l-29.010-8.094-9.444 43.85 28.334 8.77c42.5 13.492 76.906 17.54 108.612 17.54 76.232 0 128.176-40.476 128.176-110.636 0-51.27-20.24-80.278-51.27-112.66l-62.064-64.762v-55.318l-47.898-8.77v41.824c0 29.684 2.024 39.802 22.262 61.39l48.572 51.27c29.008 31.708 41.826 48.572 41.826 86.35 0 39.126-25.636 64.762-80.278 64.762-25.634 0.002-59.366-4.722-97.818-15.516zM507.614 192.998c-20.914 0-33.73 14.166-33.73 37.778s12.816 37.778 33.73 37.778 33.732-14.166 33.732-37.778-12.818-37.778-33.732-37.778z" />
<glyph unicode="&#xe613;" glyph-name="icons_info" d="M511 1.192c246.318 0 446 199.68 446 446 0 246.318-199.682 446-446 446s-446-199.682-446-446c0-246.318 199.682-446 446-446zM538 192h-52v342.092l52 9.468v-351.56zM511 701.808c20.964 0 33.812-14.204 33.812-37.872 0-23.67-12.848-37.872-33.812-37.872s-33.812 14.202-33.812 37.872c0 23.668 12.848 37.872 33.812 37.872z" />
<glyph unicode="&#xe614;" glyph-name="icons_limitecartao" d="M960.062 782h-896.384c-34.87 0-63.678-27.382-63.678-62.242v-542.884c0-34.86 28.808-62.874 63.678-62.874h896.384c34.874 0 63.938 28.014 63.938 62.874v542.884c0 34.86-29.064 62.242-63.938 62.242zM63.678 752h896.384c18.336 0 33.938-13.91 33.938-32.242v-79.758h-966v79.758c0 18.332 17.35 32.242 35.678 32.242zM960.062 144h-896.384c-18.328 0-35.678 14.542-35.678 32.874v345.126h966v-345.126c0-18.332-15.602-32.874-33.938-32.874zM94 422h176v-48h-176v48zM94 324h368v-52h-368v52z" />
<glyph unicode="&#xe615;" glyph-name="icons_maisfuncoes" d="M640.242 765.758c0-70.826-57.416-128.242-128.242-128.242s-128.242 57.416-128.242 128.242c0 70.826 57.416 128.242 128.242 128.242s128.242-57.416 128.242-128.242zM640.242 447.194c0-70.826-57.416-128.242-128.242-128.242s-128.242 57.416-128.242 128.242c0 70.826 57.416 128.242 128.242 128.242s128.242-57.416 128.242-128.242zM640.242 128.626c0-70.826-57.416-128.242-128.242-128.242s-128.242 57.416-128.242 128.242c0 70.826 57.416 128.242 128.242 128.242s128.242-57.416 128.242-128.242z" />
<glyph unicode="&#xe616;" glyph-name="icons_menos" d="M156 506h712v-120h-712v120z" />
<glyph unicode="&#xe617;" glyph-name="icons_menuslider" d="M1024 684.864h-1024v157.962h1024v-157.962zM1024 369.062h-1024v157.918h1024v-157.918zM1024 53.174h-1024v157.96h1024v-157.96z" />
<glyph unicode="&#xe618;" glyph-name="icons_meuscartoes" d="M511.998 871.632c102.746 0 186.336-83.548 186.336-186.244 0-49.748-19.38-96.518-54.572-131.694-35.194-35.178-81.988-54.552-131.764-54.552-49.774 0-96.566 19.374-131.76 54.552-35.192 35.176-54.572 81.946-54.572 131.694 0 102.696 83.588 186.244 186.332 186.244zM511.998 898.024c-117.484 0-212.724-95.206-212.724-212.634 0-117.442 95.24-212.638 212.724-212.638 117.488 0 212.728 95.198 212.728 212.638 0 117.428-95.24 212.634-212.728 212.634v0zM522.134 406.6c81.534 0 150.788-20.91 205.84-62.148 44.204-33.112 79.9-79.628 106.094-138.254 31.948-71.502 41.996-144.126 45.152-181.828h-734.83c4.034 56.594 23.4 192.196 115.744 285.19 63.938 64.392 152.088 97.040 262 97.040zM522.134 432.992c-411.124 0-405.186-432.12-405.186-435.016 66.672 0 790.108 0 790.108 0s-0.312 435.016-384.922 435.016v0z" />
<glyph unicode="&#xe619;" glyph-name="icons_pgtofatura" d="M490.284 384.102v47.34c-30.748 0.976-61.496 9.76-79.062 21.474l13.178 45.876c19.034-11.226 46.366-21.474 76.132-21.474 30.748 0 51.734 15.13 51.734 38.556 0 21.96-17.084 36.114-53.196 49.292-51.244 18.544-84.432 41.97-84.432 87.358 0 41.97 29.282 74.18 78.574 82.964v47.826h40.016v-45.388c30.746-0.976 51.734-8.296 67.352-16.106l-13.178-44.898c-11.712 5.37-33.186 16.594-66.374 16.594-34.162 0-46.366-17.568-46.366-34.162 0-20.010 17.572-31.234 59.052-47.828 54.66-20.498 79.062-46.85 79.062-90.286 0-41.482-28.796-78.084-82.476-86.87v-50.268h-40.016zM824 864v-834h-624v834h624zM854 894h-684v-894h684v894zM394 312h234v-30h-234v30zM394 254h234v-30h-234v30zM394 194h234v-30h-234v30z" />
<glyph unicode="&#xe61a;" glyph-name="icons_restaurante" d="M377.156 569.782c0-16.364-13.24-29.602-29.588-29.602-16.362 0-29.602 13.238-29.602 29.602 0 16.348 13.24 29.59 29.602 29.59 16.348 0 29.588-13.244 29.588-29.59zM541.602 569.782c0-16.364-13.268-29.602-29.602-29.602s-29.602 13.238-29.602 29.602c0 16.348 13.268 29.59 29.602 29.59s29.602-13.244 29.602-29.59zM706.038 569.782c0-16.364-13.24-29.602-29.604-29.602-16.348 0-29.588 13.238-29.588 29.602 0 16.348 13.24 29.59 29.588 29.59 16.362 0 29.604-13.244 29.604-29.59zM462.672 655.27c0-16.336-13.254-29.59-29.602-29.59s-29.588 13.254-29.588 29.59c0 16.364 13.24 29.618 29.588 29.618 16.346-0.002 29.602-13.256 29.602-29.618zM627.104 655.27c0-16.336-13.254-29.59-29.602-29.59s-29.588 13.254-29.588 29.59c0 16.364 13.242 29.618 29.588 29.618 16.348-0.002 29.602-13.256 29.602-29.618zM966.658 396.484c0 31.696-20.434 58.196-47.738 64.798-1.17 85.412-43.632 163.782-119.922 221.004-75.406 56.56-177.306 87.708-286.928 87.708s-211.52-31.148-286.928-87.708c-76.29-57.222-118.75-135.592-119.92-221.004-27.304-6.604-47.738-33.104-47.738-64.798 0-31.712 20.436-58.214 47.742-64.816 1.238-83.32 41.532-139.152 123.13-170.562 78.006-30.024 187.196-34.072 283.714-34.072s205.708 4.048 283.716 34.072c81.6 31.41 121.892 87.242 123.13 170.562 27.306 6.602 47.742 33.104 47.742 64.816zM241.152 660.504c70.818 53.118 167.032 82.59 270.918 82.59s200.1-29.584 270.918-82.702c68.916-51.69 107.538-122.392 109.226-198.392h-760.288c1.69 76 40.312 146.812 109.226 198.504zM786.202 185.968c-73.93-28.456-180.062-32.274-274.132-32.274s-200.2 3.808-274.13 32.266c-70.554 27.158-104.352 74.040-106.014 144.040h760.29c-1.664-70-35.46-116.876-106.014-144.032zM905.636 360h-787.13c-18.936 0-34.342 16.398-34.342 37.008 0 20.598 15.406 36.992 34.342 36.992h787.13c18.936 0 34.34-16.394 34.34-36.992 0-20.61-15.404-37.008-34.34-37.008z" />
<glyph unicode="&#xe61b;" glyph-name="icons_saude" d="M894.534 636.548c-15.688 30.348-40.692 55.986-72.304 74.146-30.994 17.802-66.156 27.212-101.686 27.212l-1.202-0.004c-2.472 0-4.076-0.012-5.112-0.022-0.314-0.002-0.796 0.004-1.926-0.018-0.994-0.010-2.558-0.022-5.070-0.034-43.688-0.28-87.428-15.33-121.92-41.644-34.494 26.314-78.246 41.366-121.97 41.644-2.46 0.012-4.050 0.024-4.952 0.034-1.248 0.022-1.696 0.016-2.014 0.018-1.020 0.010-2.712 0.056-5.018 0.022l-1.298 0.004c-35.532 0-70.696-9.41-101.69-27.21-31.616-18.16-56.62-43.892-72.306-74.24-26.16-50.6-24.29-108.456 4.572-166.456h-154.638v-30h172.054c1.808-2 3.658-5.368 5.59-8.090 83.302-117.52 143.944-170.224 235.736-250.078 10.976-9.548 22.406-19.468 34.378-29.962l9.588-8.39 9.838 8.114c7.37 6.072 181.508 150.212 273.774 280.408 49.712 70.138 59.502 142.786 27.576 204.546zM842.482 449.35c-77.722-109.676-220.238-233.796-258.642-266.414-8.52 7.442-16.764 14.518-24.77 21.482-87.714 76.308-146.48 127.582-224.396 235.582h164.586l72.74 72.466v-191.262l106.866 146.796h81.134v30h-96.318l-61.682-85.292v172.176l-115.166-114.884h-172.104c-31.092 54-35.496 107.262-12.014 152.68 26.322 50.922 85.538 85.182 147.346 85.182l1.202 0.020c2.47 0 4.034 0 4.964-0.010l0.040-0.050 0.63 0.058c0.216 0 0.542-0.004 1.054-0.012 1.036-0.014 2.688-0.024 5.224-0.036 40.898-0.262 81.816-15.678 112.264-42.292l9.874-8.63 9.874 8.63c30.448 26.616 71.358 42.032 112.21 42.292 2.59 0.012 4.216 0.024 5.346 0.038 0.516 0.010 0.848 0.014 1.084 0.014l0.15-0.006 0.392 0.006c0.956 0.010 2.496 0.022 5.068 0.022l1.104 0.004c61.804 0 121.016-34.212 147.34-85.134 26.522-51.304 17.5-112.894-25.4-173.426z" />
<glyph unicode="&#xe61c;" glyph-name="icons_servicos" d="M454.904 390.058l32.716 130.844 246.182 246.148c13.11 13.11 30.538 20.328 49.074 20.328s35.964-7.218 49.074-20.328c27.042-27.046 27.042-71.066 0.004-98.126l-246.184-246.162-130.866-32.704zM514.708 505.562l-18.572-74.278 74.298 18.566 240.304 240.286c15.346 15.36 15.348 40.348-0.002 55.704-7.442 7.442-17.336 11.54-27.86 11.54s-20.418-4.098-27.862-11.542l-240.306-240.276zM709.363 721.42l76.918-76.918-21.213-21.213-76.918 76.918 21.213 21.213zM694.47 108.622h-435.174c-48.264 0-87.53 39.266-87.53 87.528v435.12c0 48.258 39.266 87.52 87.53 87.52h253.852v-30h-253.852c-31.722 0-57.53-25.8-57.53-57.52v-435.122c0-31.722 25.808-57.528 57.53-57.528h435.174c31.722 0 57.53 25.804 57.53 57.528v253.82h30v-253.82c0-48.262-39.266-87.526-87.53-87.526z" />
<glyph unicode="&#xe61d;" glyph-name="icons_setadown" d="M874.134 708.184l-370.49-350.382-350.478 350.382-86.186-86.2 434.274-434.168 459.066 434.168z" />
<glyph unicode="&#xe61e;" glyph-name="icons_setaleft" d="M772.184 808.484l-86.2 86.186-434.168-434.274 434.168-459.066 86.2 86.186-350.382 370.49z" />
<glyph unicode="&#xe61f;" glyph-name="icons_setaright" d="M338.016 894.67l-86.2-86.186 350.382-370.49-350.382-350.478 86.2-86.186 434.168 434.274z" />
<glyph unicode="&#xe620;" glyph-name="icons_setatop" d="M958.67 274.016l-434.272 434.168-459.066-434.168 86.184-86.2 370.492 350.382 350.478-350.382z" />
<glyph unicode="&#xe621;" glyph-name="icons_supermercado" d="M420.142 117.568c-39.478 0-71.596 32.098-71.596 71.55 0 28.568 17.030 54.36 43.382 65.706l7.976 2.758-135.984 486.418h-98.77c-11.494 0-15.572 9.158-15.572 17s4.078 17 15.572 17h111.258c4.068 0 7.296-0.786 9.86-2.844l0.4-0.164c2.624-1.95 4.458-5.118 5.602-9.206 11.896-42.614 36.822-131.786 41.636-149.786h523.902c3.614 0 8.768-0.32 12.196-4.864l0.85-0.678 0.13-0.092c3.376-3.768 4.256-8.274 2.688-13.83l-67.724-240.238c-0.956-3.392-2.524-5.974-4.792-7.908l-0.54-0.444-0.19-0.334c-2.58-2.286-5.97-3.614-10.346-3.614h-379.976l23.308-84h302.75c0.126 0 0.256 0.226 0.392 0.238 0.332 0.020 0.678 0.148 1.044 0.148 0.228 0 0.462 0.044 0.704 0.028l0.99 0.062 0.14 0.010c38.746-1.358 69.098-32.674 69.098-71.298 0-39.39-32.118-71.432-71.598-71.432-39.476 0-71.59 32.056-71.59 71.458 0 8.222 1.494 15.774 4.702 24.222l5.056 12.564h-193.114l5.038-12.512c3.184-8.386 4.72-16.396 4.72-24.766-0.004-39.29-32.122-71.152-71.602-71.152zM736.93 227.886c-21.35 0-38.72-17.348-38.72-38.672 0-21.322 17.37-38.67 38.72-38.67 21.354 0 38.726 17.348 38.726 38.67 0 21.326-17.372 38.672-38.726 38.672zM420.142 227.886c-21.352 0-38.724-17.348-38.724-38.672 0-21.322 17.372-38.67 38.724-38.67 21.35 0 38.72 17.348 38.72 38.67 0.002 21.326-17.368 38.672-38.72 38.672zM777.62 376l24.636 88h-76.242l-12.124-88h63.73zM681.16 376l12.112 88h-87.272v-88h75.16zM574 376v88h-87.726l12.124-88h75.602zM465.656 376l-12.114 88h-76.966l24.394-88h64.686zM811.48 496l24.642 88h-93.458l-12.118-88h80.934zM697.816 496l12.114 88h-103.93v-88h91.816zM574 496v88h-104.374l12.116-88h92.258zM449.008 496l-12.126 88h-93.834l24.39-88h81.57z" />
<glyph unicode="&#xe622;" glyph-name="icons_termosdeuso" d="M274 328h474v-30h-474v30zM274 210h474v-30h-474v30zM276 444h474v-30h-474v30zM274 560h474v-30h-474v30zM344 716h334v-30h-334v30zM170 894v-894h525.772l158.228 159.228v734.772h-684zM690 164v-134h-490v834h624v-700h-134z" />
<glyph unicode="&#xe623;" glyph-name="icons_vestuario" d="M812.618 558.55c-6.484 53.716-14.602 61.862-30.836 91.148-10.852 19.622-106.102 45.792-167.876 60.958 0.018-0.218 0.376-0.444 0.396-0.662l-80.302 18.452v20.178c26 8.702 50.594 34.996 50.594 64.708 0 37.362-32.344 67.762-72.024 67.762-35.402 0-66.106-24.73-71.372-57.634-0.584-1.84-1.2-3.608-1.2-5.39v-15.068c0-10.546 7.806-19.132 18.994-19.132 11.208 0 19.006 8.586 19.006 19.132v13.776c2 15.010 16.816 26.268 32.912 26.268 17.41 0 32.366-13.324 32.366-29.712 0-12.876-8.12-24.228-20.544-28.078-0.934-0.222-22.716-5.506-29.108-23.25-1.136-2.492-1.626-5.080-1.626-7.718v-25.566l-80.852-18.506c0.014 0.15-0.278 0.296-0.262 0.444-61.77-15.166-157.14-41.338-168.018-60.958-16.218-29.286-24.42-37.43-30.908-91.148-6.496-53.71-17.84-187.184-17.84-187.184l103.882-58.608v-296.498l216.020-0.264 209.98 0.264v296.498l106.778 58.606c0 0-11.66 133.472-18.16 187.182zM497.964 690.976c7.668-7.186 21.638-7.266 29.3-0.216l82.66-18.936c-12.738-42.268-51.55-73.154-97.672-73.926-46.14 0.774-84.968 31.692-97.68 73.992l83.392 19.086zM709.27 338.162l-15.27-8.236v-285.154l-183.286-2.772-180.714 2.778v284.89l-16.304 8.308-88.426 49.454c3.362 38.504 10.84 126.944 15.76 167.652 4.974 41.162 9.61 49.632 21.292 70.098 1.418 2.49 2.898 5.242 4.552 8.198 3.268 2.398 15.87 10.132 56.708 23.212 17.154 5.494 37.714 11.424 60.622 17.47 12.786-59.020 65.122-104.066 127.57-105.116l0.486-0.006 0.482 0.006c62.458 1.050 114.812 46.092 127.59 105.114 22.898-6.044 43.484-11.97 60.636-17.46 40.84-13.084 53.49-20.818 56.752-23.21 1.654-2.954 3.224-5.702 4.642-8.18 11.696-20.472 16.532-28.944 21.504-70.138 4.918-40.61 12.658-128.73 16.018-167.372l-90.614-49.536z" />
<glyph unicode="&#xe624;" glyph-name="icons_viagem" d="M760.144 115.744c-13.924 0-25.092 3.98-26.32 4.436l-3.232 1.196-191.954 199.95c-17.338-14.836-34.668-28.73-51.522-42.244-17.212-13.802-33.608-26.95-48.21-39.686l18.338-58.726c5.472-9.626 9.274-28.71-8.506-46.476-5.858-5.858-13.494-8.958-22.076-8.958-9.588 0-17.332 3.934-18.788 4.722l-65.006 35.822c-25.262-16.264-52.824-26.14-73.65-26.14-16.874 0-26.708 6.298-31.988 11.582-22.77 22.752-9.034 69.044 14.556 105.638l-35.782 64.914c-4.824 8.924-9.294 27.446 4.172 40.948 10.796 10.802 21.696 13.068 28.94 13.068 7.92 0 14.062-2.634 17.434-4.514l58.84-18.384c12.686 14.57 25.786 30.906 39.54 48.058 13.558 16.906 27.498 34.29 42.378 51.688l-199.908 191.928-1.196 3.224c-0.608 1.64-14.604 40.464 10.63 65.7 14.894 14.892 32.73 22.766 51.582 22.766 16.704 0 28.81-6.164 31.234-7.496l240.62-126.862c66.142 84.082 128.99 126.686 186.93 126.686 39.476 0 61.774-20.852 64.084-23.124v0.002c0.020-0.022 0.050-0.050 0.088-0.088 0.036-0.036 0.062-0.062 0.080-0.082 2.428-2.468 25.704-27.368 22.888-71.458-3.576-55.982-46.104-116.35-126.462-179.552l126.848-240.554c8.52-15.118 16.144-51.51-15.224-82.878-9.884-9.886-23.494-15.106-39.358-15.106zM747.13 147.466c2.912-0.748 7.714-1.722 13.014-1.722 7.846 0 13.95 2.126 18.14 6.316 23.382 23.384 10.402 46.764 10.268 46.998l-0.256 0.464-138.77 263.162 10.122 7.694c98.43 74.814 122.128 130.652 124.676 164.322 2.418 31.952-13.528 48.798-14.208 49.5-0.536 0.518-15.16 14.382-42.918 14.382-34.606 0-92.336-21.672-170.834-124.912l-7.692-10.12-263.628 139.004c-0.006 0-7 3.7-16.626 3.7-10.874 0-21.092-4.704-30.368-13.98-8.964-8.964-6.184-24.732-4.542-31.184l215.23-206.634-9.486-10.784c-18.024-20.486-34.742-41.334-50.91-61.494-16.336-20.372-31.766-39.612-46.996-56.538l-6.438-7.154-82.054 25.638-1.166 1.084c-0.446 0.208-1.402 0.578-2.566 0.578-2.85 0-5.766-2.318-7.71-4.266-0.404-0.834 0.056-3.566 0.992-5.492l44.642-80.986-5.464-7.682c-24.51-34.452-30.156-67.914-23.134-74.93 1.778-1.78 5.702-2.794 10.774-2.794 16.588 0 42.368 10.42 64.148 25.928l7.68 5.468 81.004-44.638c0.84-0.402 2.934-1.162 4.61-1.162 0.556 0 0.77 0.086 0.772 0.088 6.414 6.4 3.98 10.148 3.954 10.186l-1.466 2.006-25.41 81.372 7.134 6.438c16.958 15.294 36.262 30.776 56.702 47.162 20.108 16.124 40.9 32.794 61.318 50.776l10.784 9.496 206.678-215.29z" />
</font>
</defs>
</svg>
