<svg xmlns="http://www.w3.org/2000/svg" width="21.051" height="16.812" viewBox="0 0 21.051 16.812"><defs><style>.a{fill:#2166a1;}</style></defs><g transform="translate(-21.128 -680)"><path class="a" d="M8.407,16.812a8.417,8.417,0,0,1-7.59-4.787l1-1A7.093,7.093,0,0,0,15.5,8.553L16.741,7.3a8.557,8.557,0,0,1,.071,1.1,8.4,8.4,0,0,1-8.406,8.406ZM.13,9.89h0A8.484,8.484,0,0,1,0,8.406,8.408,8.408,0,0,1,16.132,5.088L15.117,6.108a7.093,7.093,0,0,0-13.8,2.3c0,.095,0,.192.006.288L.131,9.889Z" transform="translate(23.139 680)"/><g transform="translate(28.966 683.248)"><path class="a" d="M102.544,45.95V44.691l-.222-.017a4.26,4.26,0,0,1-1.82-.532l.34-1.165a4.084,4.084,0,0,0,2,.554c.835,0,1.4-.421,1.4-1.047,0-.575-.412-.96-1.423-1.328-1.152-.417-2.217-.981-2.217-2.279a2.13,2.13,0,0,1,1.879-2.128l.189-.042V35.5h1.081v1.141l.22.019a4.638,4.638,0,0,1,1.5.394l-.341,1.14-.047-.021a3.754,3.754,0,0,0-1.695-.408c-.924,0-1.254.481-1.254.931,0,.56.509.862,1.577,1.29,1.48.555,2.082,1.237,2.082,2.357a2.278,2.278,0,0,1-1.974,2.233l-.19.041V45.95Z" transform="translate(-100.502 -35.5)"/></g><g transform="translate(39.359 692.034) rotate(-135)"><g transform="translate(0 0)"><path class="a" d="M.007,0H1.051L1.043,3.987H0Z" transform="translate(0 3.988) rotate(-90)"/><path class="a" d="M0,0H1.043l.007,3.987H.007Z" transform="translate(2.937 0)"/></g></g><g transform="translate(23.948 685) rotate(45)"><g transform="translate(0 0)"><path class="a" d="M.007,0H1.051L1.043,3.987H0Z" transform="translate(0 3.988) rotate(-90)"/><path class="a" d="M0,0H1.043l.007,3.987H.007Z" transform="translate(2.937 0)"/></g></g></g></svg>