<svg xmlns="http://www.w3.org/2000/svg" viewBox="0 0 32 32">
  <defs>
    <style>
      .cls-1 {
        fill: #363636;
      }

      .cls-2 {
        fill: #e3173e;
      }

      .cls-3 {
        fill: #fff;
      }
    </style>
  </defs>
  <g id="Group_957" data-name="Group 957" transform="translate(-32 -216)">
    <rect id="Rectangle_1964" data-name="Rectangle 1964" class="cls-1" width="32" height="32" rx="6" transform="translate(32 216)"/>
    <g id="bradesco" transform="translate(-28.85 220)">
      <path id="Path_764" data-name="Path 764" class="cls-2" d="M107.74,40.182H88.993s-5.253,0-5.253-5.253V16.18h18.747s5.253,0,5.253,5.253Z" transform="translate(-18.89 -16.18)"/>
      <path id="Path_765" data-name="Path 765" class="cls-3" d="M125.131,94.524H123.95V88.47h1.181v6.054Z" transform="translate(-49.364 -73.896)"/>
      <path id="Path_766" data-name="Path 766" class="cls-3" d="M139.586,83.081H137.65V74.77h1.936v8.311Z" transform="translate(-60.807 -62.453)"/>
      <path id="Path_767" data-name="Path 767" class="cls-3" d="M110.977,42.666a6.091,6.091,0,0,1,5.239-1.28,5.6,5.6,0,0,1,2.557,1.211s.165.155.292.028c0,0,.165-.127-.018-.316a5.858,5.858,0,0,0-2.837-1.906,7.453,7.453,0,0,0-5.242.329,5.484,5.484,0,0,0-2.542,2.524,14.768,14.768,0,0,0-2.262.962s-.287.112-.178.329c0,0,.092.165.343.041,0,0,.9-.311,1.768-.5a6.687,6.687,0,0,0,1.852,6.891.25.25,0,0,0,.308.049.2.2,0,0,0,.041-.267,7.7,7.7,0,0,1-1-2.636,6.306,6.306,0,0,1,.751-4.374,14.4,14.4,0,0,1,6.163.6s4.818,1.573,3.606,4.489a4.414,4.414,0,0,1-1.684,1.927s-.222.13-.1.316a.26.26,0,0,0,.329.053,5.613,5.613,0,0,0,2.916-2.306s1.782-2.73-2.422-4.955a11.586,11.586,0,0,0-2.644-.949,15.512,15.512,0,0,0-5.232-.277" transform="translate(-37.45 -36.138)"/>
    </g>
  </g>
</svg>
