<?xml version="1.0" encoding="utf-8"?>
<!-- Generator: Adobe Illustrator 19.2.1, SVG Export Plug-In . SVG Version: 6.00 Build 0)  -->
<svg version="1.1" id="Layer_1" xmlns="http://www.w3.org/2000/svg" xmlns:xlink="http://www.w3.org/1999/xlink" x="0px" y="0px"
	 viewBox="0 0 64 64" enable-background="new 0 0 64 64" xml:space="preserve">
<g>
	<path fill="#F7F7F7" d="M56.643,3.607H7.357C4.403,3.607,2,6.011,2,8.964v46.071c0,2.954,2.403,5.357,5.357,5.357h49.286
		c2.954,0,5.357-2.403,5.357-5.357V8.964C62,6.011,59.597,3.607,56.643,3.607z M59.857,55.036c0,1.772-1.442,3.214-3.214,3.214
		H7.357c-1.772,0-3.214-1.442-3.214-3.214V8.964c0-1.772,1.442-3.214,3.214-3.214h49.286c1.772,0,3.214,1.442,3.214,3.214V55.036z"
		/>
	<path fill="#F7F7F7" d="M27.714,19.679h-6.429V13.25c0-0.592-0.479-1.071-1.071-1.071c-0.592,0-1.071,0.48-1.071,1.071v6.429
		h-6.429c-0.592,0-1.071,0.48-1.071,1.071c0,0.592,0.479,1.071,1.071,1.071h6.429v6.429c0,0.592,0.479,1.071,1.071,1.071
		c0.592,0,1.071-0.48,1.071-1.071v-6.429h6.429c0.592,0,1.071-0.48,1.071-1.071C28.786,20.158,28.307,19.679,27.714,19.679z"/>
	<path fill="#F7F7F7" d="M51.286,19.679h-15c-0.592,0-1.071,0.48-1.071,1.071c0,0.592,0.479,1.071,1.071,1.071h15
		c0.592,0,1.071-0.48,1.071-1.071C52.357,20.158,51.878,19.679,51.286,19.679z"/>
	<path fill="#F7F7F7" d="M51.286,38.964h-15c-0.592,0-1.071,0.48-1.071,1.071c0,0.592,0.479,1.071,1.071,1.071h15
		c0.592,0,1.071-0.48,1.071-1.071C52.357,39.444,51.878,38.964,51.286,38.964z"/>
	<path fill="#F7F7F7" d="M51.286,46.464h-15c-0.592,0-1.071,0.48-1.071,1.071c0,0.592,0.479,1.071,1.071,1.071h15
		c0.592,0,1.071-0.48,1.071-1.071C52.357,46.944,51.878,46.464,51.286,46.464z"/>
	<path fill="#F7F7F7" d="M27.4,37.135c-0.418-0.418-1.096-0.418-1.515,0l-5.671,5.671l-5.671-5.671
		c-0.418-0.418-1.096-0.418-1.515,0c-0.418,0.419-0.418,1.097,0,1.515l5.671,5.671l-5.671,5.671c-0.418,0.419-0.418,1.097,0,1.515
		c0.209,0.209,0.483,0.314,0.757,0.314c0.274,0,0.548-0.105,0.757-0.314l5.671-5.671l5.671,5.671
		c0.209,0.209,0.483,0.314,0.757,0.314c0.274,0,0.548-0.105,0.757-0.314c0.419-0.419,0.419-1.097,0-1.515l-5.671-5.671L27.4,38.65
		C27.819,38.232,27.819,37.554,27.4,37.135z"/>
</g>
</svg>
