<?xml version="1.0" encoding="utf-8"?>
<!-- Generator: Adobe Illustrator 19.2.1, SVG Export Plug-In . SVG Version: 6.00 Build 0)  -->
<svg version="1.1" id="Layer_1" xmlns="http://www.w3.org/2000/svg" xmlns:xlink="http://www.w3.org/1999/xlink" x="0px" y="0px"
	 viewBox="0 0 64 64" enable-background="new 0 0 64 64" xml:space="preserve">
<g>
	<path fill="#F7F7F7" d="M60.157,53.734c-5.742,0-10.584-9.935-10.584-21.692v-7.898c0-8.163-5.618-14.985-13.176-16.951
		c0.256-0.582,0.397-1.217,0.397-1.892c0-2.646-2.152-4.793-4.798-4.793c-2.637,0-4.789,2.148-4.789,4.793
		c0,0.675,0.132,1.305,0.397,1.892c-7.558,1.967-13.177,8.78-13.177,16.951v7.898c0,11.757-4.842,21.692-10.583,21.692
		C2.82,53.734,2,54.563,2,55.581c0,1.023,0.82,1.852,1.843,1.852h20.603c0.847,3.444,3.837,6.059,7.55,6.059
		c3.704,0,6.694-2.615,7.549-6.059h20.612c1.023,0,1.843-0.829,1.843-1.852C62,54.563,61.18,53.734,60.157,53.734z M31.996,4.203
		c0.608,0,1.093,0.494,1.093,1.098c0.009,1.217-2.178,1.235-2.178,0C30.911,4.697,31.396,4.203,31.996,4.203z M31.996,59.788
		c-1.667,0-3.105-0.961-3.793-2.354h7.585C35.091,58.827,33.653,59.788,31.996,59.788z M38.063,53.734H25.919H11.375
		c4.083-4.423,6.755-12.4,6.755-21.692v-7.898c0-7.66,6.218-13.882,13.865-13.882c7.655,0,13.882,6.222,13.882,13.882v7.898
		c0,9.291,2.672,17.269,6.747,21.692H38.063z"/>
</g>
</svg>
