<?xml version="1.0" encoding="utf-8"?>
<!-- Generator: Adobe Illustrator 16.0.0, SVG Export Plug-In . SVG Version: 6.00 Build 0)  -->
<!DOCTYPE svg PUBLIC "-//W3C//DTD SVG 1.1//EN" "http://www.w3.org/Graphics/SVG/1.1/DTD/svg11.dtd">
<svg version="1.1" xmlns="http://www.w3.org/2000/svg" xmlns:xlink="http://www.w3.org/1999/xlink" x="0px" y="0px" width="56px"
	 height="56px" viewBox="0 0 56 56" enable-background="new 0 0 56 56" xml:space="preserve">
<g id="Layer_3">
</g>
<g id="Layer_2">
</g>
<g id="Layer_1">
	<g>
		<linearGradient id="SVGID_1_" gradientUnits="userSpaceOnUse" x1="32.3955" y1="31.2734" x2="41.0668" y2="25.2017">
			<stop  offset="0" style="stop-color:#B51B29"/>
			<stop  offset="1" style="stop-color:#E3263A"/>
		</linearGradient>
		<path fill="url(#SVGID_1_)" d="M42.228,29.027H31.233c-0.436,0-0.79-0.354-0.79-0.79s0.354-0.789,0.79-0.789h10.995
			c0.436,0,0.79,0.353,0.79,0.789S42.664,29.027,42.228,29.027z"/>
		<linearGradient id="SVGID_2_" gradientUnits="userSpaceOnUse" x1="32.395" y1="35.2275" x2="41.0663" y2="29.1558">
			<stop  offset="0" style="stop-color:#B51B29"/>
			<stop  offset="1" style="stop-color:#E3263A"/>
		</linearGradient>
		<path fill="url(#SVGID_2_)" d="M42.228,32.98H31.233c-0.436,0-0.79-0.353-0.79-0.789s0.354-0.79,0.79-0.79h10.995
			c0.436,0,0.79,0.354,0.79,0.79S42.664,32.98,42.228,32.98z"/>
		<linearGradient id="SVGID_3_" gradientUnits="userSpaceOnUse" x1="32.395" y1="39.1826" x2="41.0664" y2="33.1108">
			<stop  offset="0" style="stop-color:#B51B29"/>
			<stop  offset="1" style="stop-color:#E3263A"/>
		</linearGradient>
		<path fill="url(#SVGID_3_)" d="M42.228,36.937H31.233c-0.436,0-0.79-0.354-0.79-0.79s0.354-0.789,0.79-0.789h10.995
			c0.436,0,0.79,0.353,0.79,0.789S42.664,36.937,42.228,36.937z"/>
		<linearGradient id="SVGID_4_" gradientUnits="userSpaceOnUse" x1="16.0669" y1="38.5254" x2="49.1475" y2="15.3621">
			<stop  offset="0" style="stop-color:#B51B29"/>
			<stop  offset="1" style="stop-color:#E3263A"/>
		</linearGradient>
		<path fill="url(#SVGID_4_)" d="M45.329,12.667h-11.31c-1.292-5.571-6.828-9.772-13.442-9.772c-7.568,0-13.725,5.5-13.725,12.261
			s6.157,12.262,13.725,12.262c1.298,0,2.587-0.173,3.843-0.505v22.373c0,2.048,1.667,3.715,3.715,3.715h17.194
			c2.048,0,3.714-1.667,3.714-3.715V16.382C49.042,14.333,47.376,12.667,45.329,12.667z M8.81,15.155c0-5.68,5.279-10.3,11.767-10.3
			c6.489,0,11.769,4.62,11.769,10.3c0,3.018-1.512,5.876-4.149,7.843l-0.395,0.296v4.003l-2.647-2.647l-0.571,0.18
			c-1.3,0.417-2.648,0.629-4.007,0.629C14.088,25.458,8.81,20.836,8.81,15.155z M47.463,49.285c0,1.178-0.958,2.136-2.135,2.136
			H28.135c-1.179,0-2.136-0.958-2.136-2.136v-5.145h21.465V49.285z M47.463,42.562H25.999V28.264l3.764,3.764v-7.762
			c1.348-1.085,2.413-2.389,3.18-3.818h14.521V42.562z M47.463,18.868H33.654c0.423-1.188,0.65-2.438,0.65-3.713
			c0-0.307-0.027-0.608-0.052-0.909h11.076c1.177,0,2.135,0.958,2.135,2.136V18.868z"/>
		<g>
			<linearGradient id="SVGID_5_" gradientUnits="userSpaceOnUse" x1="17.2168" y1="17.4766" x2="23.5942" y2="13.011">
				<stop  offset="0" style="stop-color:#B51B29"/>
				<stop  offset="1" style="stop-color:#E3263A"/>
			</linearGradient>
			<path fill="url(#SVGID_5_)" d="M20.4,21.156c-0.67,0-1.066-0.396-1.066-1.035c0-0.64,0.396-1.036,1.066-1.036
				c0.654,0,1.05,0.396,1.05,1.036C21.451,20.76,21.055,21.156,20.4,21.156z M19.501,17.608V9.689h1.767v7.6L19.501,17.608z"/>
		</g>
		<g>
			<linearGradient id="SVGID_6_" gradientUnits="userSpaceOnUse" x1="35.5376" y1="48.6074" x2="37.8961" y2="46.956">
				<stop  offset="0" style="stop-color:#B51B29"/>
				<stop  offset="1" style="stop-color:#E3263A"/>
			</linearGradient>
			<path fill="url(#SVGID_6_)" d="M38.156,47.78c0,0.796-0.645,1.44-1.44,1.44c-0.794,0-1.438-0.645-1.438-1.44
				c0-0.794,0.645-1.438,1.438-1.438C37.511,46.342,38.156,46.986,38.156,47.78"/>
		</g>
	</g>
</g>
</svg>
