<?xml version="1.0" encoding="UTF-8" standalone="no"?>
<!-- Generator: Adobe Illustrator 16.0.0, SVG Export Plug-In . SVG Version: 6.00 Build 0)  -->

<svg
   xmlns:dc="http://purl.org/dc/elements/1.1/"
   xmlns:cc="http://creativecommons.org/ns#"
   xmlns:rdf="http://www.w3.org/1999/02/22-rdf-syntax-ns#"
   xmlns="http://www.w3.org/2000/svg"
   xmlns:sodipodi="http://sodipodi.sourceforge.net/DTD/sodipodi-0.dtd"
   xmlns:inkscape="http://www.inkscape.org/namespaces/inkscape"
   version="1.1"
   id="Layer_1"
   x="0px"
   y="0px"
   width="256px"
   height="256px"
   viewBox="0 0 256 256"
   enable-background="new 0 0 256 256"
   xml:space="preserve"
   inkscape:version="0.91 r13725"
   sodipodi:docname="icon-04.svg"><metadata
   id="metadata4231"><rdf:RDF><cc:Work
       rdf:about=""><dc:format>image/svg+xml</dc:format><dc:type
         rdf:resource="http://purl.org/dc/dcmitype/StillImage" /><dc:title></dc:title></cc:Work></rdf:RDF></metadata><defs
   id="defs4229" /><sodipodi:namedview
   pagecolor="#ffffff"
   bordercolor="#666666"
   borderopacity="1"
   objecttolerance="10"
   gridtolerance="10"
   guidetolerance="10"
   inkscape:pageopacity="0"
   inkscape:pageshadow="2"
   inkscape:window-width="1366"
   inkscape:window-height="706"
   id="namedview4227"
   showgrid="false"
   inkscape:zoom="1.4142136"
   inkscape:cx="183.66003"
   inkscape:cy="117.48257"
   inkscape:window-x="-8"
   inkscape:window-y="-8"
   inkscape:window-maximized="1"
   inkscape:current-layer="Layer_1" />

<g
   id="g4202"
   transform="matrix(0.35373426,0,0,0.35391997,-11.49909,-16.436735)"><g
     style="opacity:1;stroke-width:30;stroke-miterlimit:4;stroke-dasharray:none"
     id="g3357"><path
       style="fill:none;stroke:#cc092f;stroke-width:30;stroke-miterlimit:4;stroke-dasharray:none"
       id="path3359"
       d="m 624.5,535.7 c 13.4,-4 49.9,-15 73.2,-34.1 C 720.5,483 736,453.4 736,410.9 736,368.3 720.6,338.8 697.7,320.2 651.1,282.3 571.2,279.6 548.3,257.6 526.3,234.7 523.6,154.8 485.7,108.2 467.1,85.4 437.5,70 395,70 c -42.6,0 -72.1,15.4 -90.7,38.3 -37.9,46.6 -40.6,126.5 -62.6,149.4 -12.1,11.6 -41.7,18.2 -72.2,27"
       class="st0"
       inkscape:connector-curvature="0" /></g><g
     style="stroke-width:30;stroke-miterlimit:4;stroke-dasharray:none"
     id="g3361"><path
       style="fill:none;stroke:#cc092f;stroke-width:30;stroke-miterlimit:4;stroke-dasharray:none"
       id="path3363"
       d="m 169.4,284.7 c 0,0 0.1,0 0,0 -27,7.9 -55.9,17.9 -77.5,35.5 -22.8,18.6 -38.3,48.2 -38.3,90.7 0,42.6 15.4,72.1 38.3,90.7 46.6,37.9 126.5,40.6 149.4,62.6 22,22.9 24.7,102.8 62.6,149.4 18.6,22.8 48.2,38.3 90.7,38.3 42.6,0 72.1,-15.4 90.7,-38.3 37.9,-46.6 40.6,-126.5 62.6,-149.4 17.4,-16.6 67.4,-22.2 110.9,-40.4 2.2,-0.9 4.4,-1.9 6.6,-2.9"
       class="st0"
       inkscape:connector-curvature="0" /></g><path
     id="path3367"
     d="M 170.7,285.7"
     class="st0"
     style="fill:none;stroke:#cc092f;stroke-width:18;stroke-miterlimit:10"
     inkscape:connector-curvature="0" /><path
     id="path3369"
     d="m 236.3,387.1 -18.7,-7.8 -9,21.5 18.9,7.8 0,70.6 21.6,0 0,-70.9 c 0,-5.9 -1.5,-10.3 -3.6,-13.5 -2.1,-3.1 -4.9,-5.9 -9.2,-7.7 z m 2.2,-46.4 c -8.5,0 -15.5,6.9 -15.5,15.5 0,8.6 6.9,15.5 15.5,15.5 8.6,0 15.5,-7 15.5,-15.5 0,-8.5 -6.9,-15.5 -15.5,-15.5 z m -55.9,2 -21.6,0 0,109.4 c 0,5.9 1.5,10.3 3.6,13.5 2.2,3.2 5,6 9.2,7.8 l 18.7,7.7 9,-21.5 -18.9,-7.8 0,-109.1 z m 406.5,111.9 c -16.6,-8 -23.6,-27.9 -15.6,-44.4 l -21,-10.1 c -13.5,28.1 -1.7,61.9 26.5,75.4 21.4,10.3 46,5.9 62.5,-9.2 l -15.6,-17.2 c -9.7,9 -24.2,11.6 -36.8,5.5 z m -265.2,-6.1 -23,-61.5 c 0,0 -2.7,-7.5 -10.9,-11 l -14.4,-6 -8.9,21.5 15.2,6.4 30.5,81.3 0,0 23,0 40.3,-107.5 -23.1,0 -28.7,76.8 z m 113.3,9.4 c -6.4,-0.1 -12.2,-2 -17.2,-5.2 l -12.4,19.7 c 8.5,5.4 18.5,8.5 29.2,8.7 15.6,0.2 30,-5.9 40.4,-16.1 l -16.3,-16.7 c -6.1,6.1 -14.5,9.8 -23.7,9.6 z m 87.6,-115.2 -21.6,0 0,109.4 c 0,5.9 1.5,10.3 3.6,13.5 2.2,3.2 5,6 9.2,7.8 l 18.7,7.7 8.9,-21.5 -18.9,-7.8 0,-109.1 z m -86.2,25.5 c -31.2,-0.5 -56.9,24.4 -57.4,55.6 -0.2,11.7 3.2,22.6 9.2,31.7 L 492.7,411.8 C 486.9,387.1 465,368.6 438.6,368.2 Z m -34,60 c -0.2,-1.3 -0.2,-2.7 -0.2,-4 0.3,-18.3 15.4,-33 33.8,-32.8 10,0.2 18.9,4.7 24.9,11.8 l -58.5,25 z M 628,373.7 c -21.4,-10.2 -46,-5.9 -62.5,9.2 l 15.6,17.2 c 9.7,-8.9 24.2,-11.4 36.8,-5.4 16.5,8 23.5,27.8 15.6,44.4 l 20.9,10.1 C 668,421 656.1,387.2 628,373.7 Z"
     class="st2"
     inkscape:connector-curvature="0"
     style="fill:#cc092f;stroke:#cc092f;stroke-miterlimit:10" /></g></svg>