<?xml version="1.0" encoding="iso-8859-1"?>
<!-- Generator: Adobe Illustrator 19.0.0, SVG Export Plug-In . SVG Version: 6.00 Build 0)  -->
<svg xmlns="http://www.w3.org/2000/svg" xmlns:xlink="http://www.w3.org/1999/xlink" version="1.1" id="Capa_1" x="0px" y="0px" viewBox="0 0 490 490" style="enable-background:new 0 0 490 490;" xml:space="preserve" width="512px" height="512px">
<g id="Black_29_">
	<path d="M245,0C109.684,0,0,109.684,0,245c0,135.317,109.684,245,245,245c135.316,0,245-109.684,245-245   C490,109.684,380.316,0,245,0z M245,459.375c-118.213,0-214.375-96.163-214.375-214.375S126.788,30.625,245,30.625   S459.375,126.787,459.375,245S363.213,459.375,245,459.375z" fill="#62819c"/>
	<path d="M245,196c-27.057,0-49,21.943-49,49c0,27.057,21.943,49,49,49c27.057,0,49-21.943,49-49C294,217.943,272.057,196,245,196z    M245,263.375c-10.137,0-18.375-8.238-18.375-18.375c0-10.137,8.238-18.375,18.375-18.375c10.137,0,18.375,8.238,18.375,18.375   C263.375,255.137,255.137,263.375,245,263.375z" fill="#62819c"/>
	<path d="M344.24,187.027l31.666-38.71l-34.132-34.132l-40.257,32.937c-8.422-4.425-17.472-7.84-26.996-9.984l-5.298-52.997h-24.132   h-0.199H220.76l-5.298,52.997c-9.524,2.144-18.574,5.558-26.996,9.984l-40.257-32.937l-34.116,34.132l31.666,38.71   c-5.497,8.897-9.8,18.605-12.602,28.941l-49.122,4.915v48.265l49.184,4.9c2.833,10.305,7.074,20.013,12.556,28.895l-31.697,38.741   l34.116,34.132l40.257-32.937c8.422,4.425,17.472,7.84,26.996,9.984l5.298,52.996h24.133h0.199h24.133l5.298-52.996   c9.524-2.144,18.574-5.559,26.996-9.984l40.257,32.937l34.132-34.132l-31.697-38.741c5.482-8.881,9.723-18.605,12.556-28.895   l49.184-4.915v-48.265l-49.122-4.915C354.04,205.632,349.737,195.908,344.24,187.027z M245,317.581   c-40.088,0-72.597-32.493-72.597-72.581c0-40.088,32.493-72.596,72.597-72.596c40.088,0,72.581,32.493,72.581,72.596   C317.581,285.088,285.088,317.581,245,317.581z" fill="#62819c"/>
</g>
<g>
</g>
<g>
</g>
<g>
</g>
<g>
</g>
<g>
</g>
<g>
</g>
<g>
</g>
<g>
</g>
<g>
</g>
<g>
</g>
<g>
</g>
<g>
</g>
<g>
</g>
<g>
</g>
<g>
</g>
</svg>
