<?xml version="1.0" encoding="utf-8"?>
<!-- Generator: Adobe Illustrator 16.0.0, SVG Export Plug-In . SVG Version: 6.00 Build 0)  -->
<!DOCTYPE svg PUBLIC "-//W3C//DTD SVG 1.1//EN" "http://www.w3.org/Graphics/SVG/1.1/DTD/svg11.dtd">
<svg version="1.1" id="Layer_1" xmlns="http://www.w3.org/2000/svg" xmlns:xlink="http://www.w3.org/1999/xlink" x="0px" y="0px"
	 width="256px" height="256px" viewBox="0 0 256 256" enable-background="new 0 0 256 256" xml:space="preserve">
<path fill="#6B6B6B" d="M203.903,240.085c-13.707,0-24.858-11.16-24.858-24.878c0-2.685,0.468-5.096,1.563-8.026l2.068-3.267h-64.85
	l2.479,3.25c1.063,2.873,1.558,5.506,1.558,8.265c0,13.559-11.152,24.589-24.86,24.589s-24.86-11.146-24.86-24.846
	c0-9.806,5.777-18.669,14.75-22.677l2.659,0.096L43.753,28.915H10.952c-4.699,0-5.953-4.086-5.953-6.5s1.254-6.5,5.953-6.5h37.545
	c1.571,0,2.69,0.27,3.521,0.85l0.421,0.293l0.132,0.014c0.854,0.689,1.534,1.822,1.954,3.324l1.555,5.809
	c4.315,15.457,9.888,35.484,11.955,43.227l0.396,1.484l176.581-0.003l0.392-0.004c1.264,0,2.703,0.174,3.795,1.466l0.586,0.693
	l0.247,0.005c0.998,1.36,1.223,2.949,0.689,4.837l-22.854,81.053c-0.336,1.191-0.911,2.164-1.708,2.892l-0.218,0.198l-0.148,0.248
	l-0.145,0.193c-1.124,0.943-2.405,1.422-3.81,1.422H94.536l7.476,27h101.11c0.27,0,0.525-0.049,0.768-0.145l0.27,0.145h0.683
	c13.19,0,23.922,10.99,23.922,24.498C228.764,229.017,217.611,240.085,203.903,240.085z M203.903,202.79
	c-6.818,0-12.366,5.541-12.366,12.352c0,6.81,5.548,12.35,12.366,12.35c6.82,0,12.369-5.54,12.369-12.35
	C216.272,208.331,210.724,202.79,203.903,202.79z M97.002,202.79c-6.82,0-12.368,5.541-12.368,12.352
	c0,6.81,5.548,12.35,12.368,12.35c6.818,0,12.366-5.54,12.366-12.35C109.368,208.331,103.82,202.79,97.002,202.79z M196.939,151.915
	h20.175l7.892-29h-24.183L196.939,151.915z M159.999,151.915h24.48l3.879-29h-28.359V151.915z M124.013,151.915h23.986v-29h-27.868
	L124.013,151.915z M91.053,151.915h20.496l-3.88-29h-24.43L91.053,151.915z M202.548,110.915h25.978l7.938-28h-30.012
	L202.548,110.915z M159.999,110.915h30.091l3.903-28h-33.994V110.915z M118.401,110.915h29.598v-28h-33.5L118.401,110.915z
	 M79.754,110.915h26.191l-3.907-28H71.896L79.754,110.915z"/>
</svg>
