<?xml version="1.0" encoding="UTF-8" standalone="no"?>
<!-- Generator: Adobe Illustrator 16.0.0, SVG Export Plug-In . SVG Version: 6.00 Build 0)  -->

<svg
   xmlns:dc="http://purl.org/dc/elements/1.1/"
   xmlns:cc="http://creativecommons.org/ns#"
   xmlns:rdf="http://www.w3.org/1999/02/22-rdf-syntax-ns#"
   xmlns:svg="http://www.w3.org/2000/svg"
   xmlns="http://www.w3.org/2000/svg"
   xmlns:sodipodi="http://sodipodi.sourceforge.net/DTD/sodipodi-0.dtd"
   xmlns:inkscape="http://www.inkscape.org/namespaces/inkscape"
   version="1.1"
   id="Layer_1"
   x="0px"
   y="0px"
   width="256px"
   height="256px"
   viewBox="0 0 256 256"
   enable-background="new 0 0 256 256"
   xml:space="preserve"
   inkscape:version="0.48.0 r9654"
   sodipodi:docname="icon-31.svg"><metadata
   id="metadata3017"><rdf:RDF><cc:Work
       rdf:about=""><dc:format>image/svg+xml</dc:format><dc:type
         rdf:resource="http://purl.org/dc/dcmitype/StillImage" /><dc:title></dc:title></cc:Work></rdf:RDF></metadata><defs
   id="defs3015" /><sodipodi:namedview
   pagecolor="#ffffff"
   bordercolor="#666666"
   borderopacity="1"
   objecttolerance="10"
   gridtolerance="10"
   guidetolerance="10"
   inkscape:pageopacity="0"
   inkscape:pageshadow="2"
   inkscape:window-width="1440"
   inkscape:window-height="838"
   id="namedview3013"
   showgrid="false"
   inkscape:zoom="1.1367188"
   inkscape:cx="-9.2371134"
   inkscape:cy="128"
   inkscape:window-x="-8"
   inkscape:window-y="-8"
   inkscape:window-maximized="1"
   inkscape:current-layer="Layer_1" />
<g
   id="g3003">
	<path
   fill="#6B6B6B"
   d="M3,128c0,69.033,55.964,125,125.002,125C197.036,253,253,197.033,253,128C253,58.966,197.036,3,128.002,3   C58.964,3,3,58.966,3,128z M243.391,128c0,63.724-51.66,115.386-115.389,115.386c-63.725,0-115.385-51.662-115.385-115.386   c0-63.725,51.66-115.387,115.385-115.387C191.73,12.613,243.391,64.275,243.391,128z"
   id="path3005" />
	<g
   id="g3007">
		<g
   id="g3009">
			<path
   fill-rule="evenodd"
   clip-rule="evenodd"
   fill="#6B6B6B"
   d="M81.384,135.196c0,0,4.49-0.008,4.49-6.713     c0-30.026,22.283-45.737,45.359-45.737c20.933,0,29.648,12.187,30.146,11.672l-8.739,10.386     c-6.735,6.869,0.878,6.769,0.878,6.769l30.902,4.513c4.918,0.812,3.736-3.726,3.736-3.726l-4.762-37.13     c-0.093-7.11-6.836-0.172-6.836-0.172l-6.075,9.178c0,0-16.135-15.711-39.25-15.32c-32.228,0-59.121,26.673-59.121,59.576     C72.112,128.491,72.112,135.196,81.384,135.196z M178.765,120.99c0,0-4.49,0.008-4.49,6.713     c0,23.563-22.287,45.736-45.359,45.736c-20.929,0-29.688-12.187-30.181-11.672l13.253-10.378     c6.731-6.876-0.882-6.775-0.882-6.775l-35.373-4.514c-4.922-0.812-3.744,3.727-3.744,3.727l4.77,37.137     c0.093,7.104,6.828,0.164,6.828,0.164l6.075-9.178c0,0,16.143,15.719,39.254,15.321c32.224,0,58.737-26.673,58.737-59.568     C187.652,127.703,188.04,120.99,178.765,120.99z"
   id="path3011" />
		</g>
	</g>
</g>
<path
   style="fill:#1290c2;fill-opacity:0.96862745;stroke:none"
   d="M 115.23105,251.87584 C 65.961274,246.69821 24.37481,212.74868 9.3279139,165.42073 5.4405051,153.19341 3.7889934,141.78205 3.8230652,127.38419 3.8703438,107.40551 7.5562082,91.439989 16.211971,73.720962 22.653348,60.534956 29.77857,50.509363 40.047954,40.182382 57.323995,22.809443 79.0524,11.0182 103.3677,5.8209779 c 10.62161,-2.2702952 38.64299,-2.2702952 49.2646,0 50.82477,10.8634331 88.98035,50.4116111 98.17441,101.7575721 1.78289,9.95686 1.78177,29.78493 -0.003,40.68754 -8.34179,50.97749 -47.65822,91.54236 -98.61197,101.74327 -10.33862,2.06979 -27.01377,2.91185 -36.96139,1.86648 l 3.4e-4,0 z m 33.8785,-10.23568 c 19.32901,-3.35089 39.20585,-12.9678 54.87319,-26.54901 35.86431,-31.08895 48.8724,-81.6785 32.61813,-126.854724 C 230.86525,72.295145 222.52949,59.455192 209.44457,46.406366 192.45466,29.463311 174.38415,19.657058 150.87285,14.621475 145.25584,13.418441 139.56443,13.019931 128,13.019931 c -11.56443,0 -17.25584,0.39851 -22.87285,1.601544 C 81.609842,19.658344 63.534482,29.468505 46.563038,46.406366 23.996107,68.92864 12.657039,96.123944 12.642125,127.76132 c -0.01363,28.90196 9.442647,54.49473 28.098038,76.04548 26.713867,30.85991 67.154637,44.97839 108.369387,37.83336 l 0,0 z"
   id="path3021"
   inkscape:connector-curvature="0" /><path
   style="fill:#1290c2;fill-opacity:0.96862745;stroke:none"
   d="m 113.9244,184.68583 c -7.4332,-2.23688 -12.67706,-4.74829 -18.474228,-8.84774 -2.17732,-1.53969 -4.432043,-3.08584 -5.010496,-3.43591 -0.671427,-0.40632 -2.338047,1.25771 -4.609024,4.60187 -3.421863,5.03892 -6.514919,7.24277 -7.958121,5.67028 -1.195853,-1.30298 -5.766971,-40.65634 -4.82938,-41.57677 0.541674,-0.53177 7.124477,-0.0579 18.008395,1.29627 23.329864,2.90274 22.872854,2.80785 22.872854,4.74927 0,1.64409 -5.45219,6.95914 -11.63758,11.34485 -1.8041,1.27919 -3.288633,2.77243 -3.298965,3.31832 -0.0279,1.47429 8.560205,7.11252 14.076895,9.24171 6.85027,2.6439 19.10516,3.22337 25.98427,1.22867 18.69024,-5.41953 33.47784,-22.71892 35.26533,-41.25544 0.68933,-7.14844 2.11635,-9.35523 6.04957,-9.35523 4.72374,0 6.57766,2.43986 6.57766,8.65653 0,11.12134 -5.19779,24.83853 -13.24319,34.94932 -13.966,17.55131 -38.97354,25.67352 -59.77399,19.414 z"
   id="path3023"
   inkscape:connector-curvature="0" /><path
   style="fill:#428bd5;fill-opacity:0.96862745;stroke:none"
   d="m 76.536082,133.84601 c -2.976785,-1.62818 -3.95939,-3.55418 -3.943487,-7.72962 0.04054,-10.64302 5.903267,-25.99525 13.35157,-34.962598 7.966437,-9.591156 19.575575,-17.012775 31.353585,-20.044078 7.97612,-2.052811 20.89882,-1.854026 29.17648,0.448811 7.03157,1.956176 14.9751,5.989395 20.59546,10.457067 l 3.44083,2.735142 3.33107,-5.016076 c 3.23946,-4.87815 7.18092,-8.267246 8.3061,-7.142071 0.30556,0.305567 1.74811,9.728845 3.20564,20.940616 1.98218,15.247397 2.39756,20.637557 1.64816,21.386957 -0.7494,0.7494 -5.20745,0.38817 -17.6886,-1.43327 -17.23858,-2.51571 -19.31976,-2.96183 -19.31976,-4.14137 0,-0.38269 2.57319,-3.7908 5.71821,-7.57359 3.14502,-3.782785 5.71821,-7.12104 5.71821,-7.418343 0,-0.987658 -7.80179,-6.161518 -12.61149,-8.36347 -8.1606,-3.736045 -21.95031,-4.349401 -31.84324,-1.416364 -18.115562,5.370867 -31.201624,22.630197 -31.201624,41.152127 0,7.64227 -3.878005,11.05133 -9.237114,8.12013 z"
   id="path3027"
   inkscape:connector-curvature="0" /><path
   style="fill:none;stroke:none"
   d="m 121.86763,185.81047 c -7.88638,-0.92047 -17.71135,-4.69053 -25.712542,-9.86648 l -6.243296,-4.03876 -4.567045,5.2718 c -7.081864,8.1747 -7.463305,7.69761 -9.917591,-12.40452 -0.738418,-6.04811 -1.608246,-13.91764 -1.93295,-17.48784 l -0.59037,-6.49127 6.038804,0.61823 c 14.879311,1.52329 33.37849,4.16853 34.08668,4.87413 1.11275,1.10868 -1.60293,4.33917 -8.53053,10.14767 l -5.994677,5.02629 2.016407,2.14636 c 5.43996,5.79058 17.03768,9.97862 27.53235,9.94217 12.56867,-0.0436 22.08062,-4.13248 31.67108,-13.61423 8.03695,-7.94585 12.17175,-15.71501 14.57196,-27.3802 0.97794,-4.75285 2.15153,-9.015 2.60797,-9.47145 0.45646,-0.45645 2.09243,-0.82991 3.6355,-0.82991 5.82121,0 7.45411,6.10526 4.72676,17.67286 -7.10462,30.13297 -33.66418,49.35565 -63.39851,45.88515 l 0,0 z"
   id="path3904"
   inkscape:connector-curvature="0" /><path
   style="fill:none;stroke:none"
   d="m 119.29072,185.52215 c -7.79281,-1.48914 -15.98574,-4.82609 -22.88433,-9.32069 -2.964245,-1.93129 -5.71843,-3.51143 -6.120412,-3.51143 -0.401982,0 -3.038247,2.46274 -5.858367,5.47275 -3.245731,3.46427 -5.426919,5.15926 -5.943386,4.61855 -1.208359,-1.26506 -5.344411,-31.64316 -5.370602,-39.44551 l -0.0085,-2.5226 6.817869,0.61408 c 12.345317,1.11194 32.245256,3.99459 33.036206,4.78553 1.32346,1.32346 -0.74364,3.91443 -7.74008,9.70169 l -6.710127,5.55042 1.914207,2.03758 c 3.00836,3.20226 13.04858,8.04513 19.14561,9.23483 14.63283,2.85527 29.02051,-1.79472 40.4599,-13.07633 7.60812,-7.50318 11.84919,-15.68947 14.19359,-27.39698 2.04208,-10.19783 3.81269,-12.05313 9.17237,-9.6111 7.6016,3.46352 0.97789,29.78679 -10.93058,43.43916 -2.53226,2.90309 -6.5612,6.75945 -8.9532,8.56969 -12.21418,9.24358 -29.92214,13.5926 -44.2202,10.86036 z"
   id="path3906"
   inkscape:connector-curvature="0" /><path
   style="fill:#428bd5;stroke:none;fill-opacity:0.96862745"
   d="m 121.86763,185.81047 c -7.88638,-0.92047 -17.71135,-4.69053 -25.712542,-9.86648 l -6.243296,-4.03876 -4.567045,5.2718 c -7.081864,8.1747 -7.463305,7.69761 -9.917591,-12.40452 -0.738418,-6.04811 -1.608246,-13.91764 -1.93295,-17.48784 l -0.59037,-6.49127 6.038804,0.61823 c 14.879311,1.52329 33.37849,4.16853 34.08668,4.87413 1.11275,1.10868 -1.60293,4.33917 -8.53053,10.14767 l -5.994677,5.02629 2.016407,2.14636 c 5.43996,5.79058 17.03768,9.97862 27.53235,9.94217 12.56867,-0.0436 22.08062,-4.13248 31.67108,-13.61423 8.03695,-7.94585 12.17175,-15.71501 14.57196,-27.3802 0.97794,-4.75285 2.15153,-9.015 2.60797,-9.47145 0.45646,-0.45645 2.09243,-0.82991 3.6355,-0.82991 5.82121,0 7.45411,6.10526 4.72676,17.67286 -7.10462,30.13297 -33.66418,49.35565 -63.39851,45.88515 l 0,0 z"
   id="path3908"
   inkscape:connector-curvature="0" /><path
   style="fill:#428bd5;fill-opacity:0.96862745;stroke:none"
   d="M 107.8543,250.49705 C 83.375757,246.36097 58.900102,233.90381 41.442449,216.69601 22.20925,197.73808 10.059289,174.49486 5.7929856,148.49759 4.0760542,138.03525 4.1118175,117.26333 5.8641733,107.15052 14.291206,58.518243 50.811932,19.331643 99.085812,7.1240541 106.20485,5.3237782 109.03465,5.1298564 128.08797,5.1365802 c 23.06818,0.00814 26.13561,0.4457378 40.90722,5.8358018 10.11645,3.691426 20.04942,8.716035 29.01829,14.678957 8.58,5.704381 23.17135,19.773612 29.66359,28.60216 9.29958,12.646109 16.88997,29.025942 21.18501,45.716577 2.10491,8.179754 2.30421,10.473304 2.34396,26.974254 0.0479,19.90787 -0.62606,24.92335 -5.27423,39.24639 -14.62426,45.06378 -54.02551,78.08778 -100.6892,84.39225 -11.3746,1.53676 -28.0111,1.49852 -37.38831,-0.0859 l 0,3e-5 z m 43.52136,-9.18336 c 55.02013,-11.21238 94.36318,-61.3771 92.11215,-117.4484 C 242.7508,105.50707 239.15972,91.468857 231.18631,75.776411 225.2491,64.091403 218.16452,54.806066 207.13225,44.250172 190.80423,28.627204 173.08567,19.082859 152.12416,14.619304 c -10.40968,-2.216641 -37.72248,-2.201363 -48.22863,0.02698 -9.554656,2.02653 -24.161007,7.518971 -32.147338,12.0884 C 45.332579,41.84854 23.538414,69.625751 16.246068,97.47354 c -7.1013021,27.11823 -4.156975,57.024 8.054915,81.81443 17.222998,34.9631 50.989546,58.79881 90.304057,63.74537 9.27722,1.16726 26.57367,0.35836 36.77062,-1.71965 l 0,0 z"
   id="path3910"
   inkscape:connector-curvature="0" /></svg>