<?xml version="1.0" encoding="utf-8"?>
<!-- Generator: Adobe Illustrator 16.0.0, SVG Export Plug-In . SVG Version: 6.00 Build 0)  -->
<!DOCTYPE svg PUBLIC "-//W3C//DTD SVG 1.1//EN" "http://www.w3.org/Graphics/SVG/1.1/DTD/svg11.dtd">
<svg version="1.1" id="Layer_1" xmlns="http://www.w3.org/2000/svg" xmlns:xlink="http://www.w3.org/1999/xlink" x="0px" y="0px"
	 width="256px" height="256px" viewBox="0 0 256 256" enable-background="new 0 0 256 256" xml:space="preserve">
<g>
	<g>
		<path fill-rule="evenodd" clip-rule="evenodd" fill="#6B6B6B" d="M127.994,71.183c18.408,0,33.337-15.259,33.337-34.088
			S146.402,3,127.994,3S94.669,18.265,94.669,37.094S109.586,71.183,127.994,71.183z M127.994,93.912
			c-18.408,0-33.325,15.259-33.325,34.088s14.917,34.094,33.325,34.094s33.337-15.265,33.337-34.094S146.402,93.912,127.994,93.912z
			 M127.994,184.817c-18.408,0-33.325,15.265-33.325,34.095c0,18.829,14.917,34.088,33.325,34.088s33.337-15.259,33.337-34.088
			C161.331,200.083,146.402,184.817,127.994,184.817z"/>
	</g>
</g>
</svg>
