<?xml version="1.0" encoding="utf-8"?>
<!-- Generator: Adobe Illustrator 16.0.0, SVG Export Plug-In . SVG Version: 6.00 Build 0)  -->
<!DOCTYPE svg PUBLIC "-//W3C//DTD SVG 1.1//EN" "http://www.w3.org/Graphics/SVG/1.1/DTD/svg11.dtd">
<svg version="1.1" id="Layer_1" xmlns="http://www.w3.org/2000/svg" xmlns:xlink="http://www.w3.org/1999/xlink" x="0px" y="0px"
	 width="256px" height="256px" viewBox="0 0 256 256" enable-background="new 0 0 256 256" xml:space="preserve">
<g>
	<g>
		<path fill="#0071E5" d="M3,127.999C3,197.036,58.963,253,128,253c69.035,0,125-55.964,125-125.001C253,58.966,197.035,3,128,3
			C58.963,3,3,58.966,3,127.999z M243.385,127.999c0,63.719-51.659,115.387-115.385,115.387S12.614,191.718,12.614,127.999
			c0-63.725,51.66-115.386,115.386-115.386S243.385,64.274,243.385,127.999z"/>
	</g>
	<polygon fill-rule="evenodd" clip-rule="evenodd" fill="#0071E5" points="67.305,114.863 112.299,160.016 190.202,81.842 
		197.939,89.606 112.09,175.755 59.355,122.835 	"/>
</g>
</svg>
