<?xml version="1.0" encoding="utf-8"?>
<!-- Generator: Adobe Illustrator 16.0.0, SVG Export Plug-In . SVG Version: 6.00 Build 0)  -->
<!DOCTYPE svg PUBLIC "-//W3C//DTD SVG 1.1//EN" "http://www.w3.org/Graphics/SVG/1.1/DTD/svg11.dtd">
<svg version="1.1" id="Layer_1" xmlns="http://www.w3.org/2000/svg" xmlns:xlink="http://www.w3.org/1999/xlink" x="0px" y="0px"
	 width="256px" height="256px" viewBox="0 0 256 256" enable-background="new 0 0 256 256" xml:space="preserve">
<g>
	<g>
		<linearGradient id="SVGID_1_" gradientUnits="userSpaceOnUse" x1="221.1816" y1="264.2007" x2="83.6073" y2="126.6263">
			<stop  offset="0" style="stop-color:#B51B29"/>
			<stop  offset="1" style="stop-color:#E3263A"/>
		</linearGradient>
		<path fill="url(#SVGID_1_)" d="M77.413,253c-6.702,0-12.155-5.484-12.155-12.222v-90.803c0-6.682,5.453-12.117,12.155-12.117
			h149.929c6.729,0,12.2,5.435,12.2,12.117v90.803c0,6.738-5.472,12.222-12.2,12.222H77.413z M72.551,240.778
			c0,2.049,2.408,4.059,4.862,4.059h149.929c2.266,0,4.039-1.782,4.039-4.059v-56.489H72.551V240.778z M77.413,146.019
			c-1.937,0-4.862,1.578-4.862,3.956v11.366h158.83v-11.366c0-2.218-1.773-3.956-4.039-3.956H77.413z"/>
	</g>
	<linearGradient id="SVGID_2_" gradientUnits="userSpaceOnUse" x1="122.835" y1="74.6548" x2="63.4836" y2="15.3034">
		<stop  offset="0" style="stop-color:#B51B29"/>
		<stop  offset="1" style="stop-color:#E3263A"/>
	</linearGradient>
	<path fill="url(#SVGID_2_)" d="M93.16,86.958c-23.158,0-41.997-18.833-41.997-41.98C51.163,21.831,70.002,3,93.16,3
		c23.155,0,41.995,18.831,41.995,41.978C135.155,68.125,116.315,86.958,93.16,86.958z M93.16,11.066
		c-18.71,0-33.932,15.212-33.932,33.912c0,9.058,3.53,17.575,9.938,23.979c6.408,6.406,14.929,9.935,23.993,9.935
		c9.063,0,17.585-3.529,23.991-9.935c6.408-6.404,9.938-14.921,9.938-23.979C127.09,26.278,111.869,11.066,93.16,11.066z"/>
	<linearGradient id="SVGID_3_" gradientUnits="userSpaceOnUse" x1="112.6504" y1="176.1938" x2="44.4622" y2="108.0057">
		<stop  offset="0" style="stop-color:#B51B29"/>
		<stop  offset="1" style="stop-color:#E3263A"/>
	</linearGradient>
	<path fill="url(#SVGID_3_)" d="M59.157,169.286h-34.29c0.983-10.457,5.016-35.143,21.452-51.693
		c11.868-11.953,28.277-18.041,48.768-18.041c15.176,0,28.047,3.884,38.253,11.527c6.428,4.818,11.878,11.206,16.29,18.993h9.142
		c-5.242-10.529-12.098-19.056-20.454-25.355c-11.657-8.786-26.203-13.239-43.232-13.239c-22.718,0-41.056,6.862-54.493,20.397
		c-10.022,10.091-17.365,24.18-21.23,40.744c-2.884,12.362-2.903,22.068-2.903,23.147V178h42.699V169.286z"/>
</g>
</svg>
