<?xml version="1.0" encoding="UTF-8" standalone="no"?>
<svg
   xmlns:dc="http://purl.org/dc/elements/1.1/"
   xmlns:cc="http://creativecommons.org/ns#"
   xmlns:rdf="http://www.w3.org/1999/02/22-rdf-syntax-ns#"
   xmlns:svg="http://www.w3.org/2000/svg"
   xmlns="http://www.w3.org/2000/svg"
   xmlns:sodipodi="http://sodipodi.sourceforge.net/DTD/sodipodi-0.dtd"
   xmlns:inkscape="http://www.inkscape.org/namespaces/inkscape"
   version="1.0"
   width="617"
   height="617"
   viewBox="0 0 6170 6170"
   preserveAspectRatio="xMidYMid meet"
   id="svg11"
   sodipodi:docname="icone_cotacao.svg"
   inkscape:version="0.92.2 5c3e80d, 2017-08-06"
   inkscape:export-filename="/Users/scopus/Downloads/icone_cotacao.png"
   inkscape:export-xdpi="461.43399"
   inkscape:export-ydpi="461.43399">
  <metadata
     id="metadata17">
    <rdf:RDF>
      <cc:Work
         rdf:about="">
        <dc:format>image/svg+xml</dc:format>
        <dc:type
           rdf:resource="http://purl.org/dc/dcmitype/StillImage" />
        <dc:title></dc:title>
      </cc:Work>
    </rdf:RDF>
  </metadata>
  <defs
     id="defs15" />
  <sodipodi:namedview
     pagecolor="#ffffff"
     bordercolor="#666666"
     borderopacity="1"
     objecttolerance="10"
     gridtolerance="10"
     guidetolerance="10"
     inkscape:pageopacity="0"
     inkscape:pageshadow="2"
     inkscape:window-width="1603"
     inkscape:window-height="932"
     id="namedview13"
     showgrid="false"
     fit-margin-top="0"
     fit-margin-left="0"
     fit-margin-right="0"
     fit-margin-bottom="0"
     inkscape:zoom="0.6788225"
     inkscape:cx="153.66267"
     inkscape:cy="255.8439"
     inkscape:window-x="1463"
     inkscape:window-y="20"
     inkscape:window-maximized="0"
     inkscape:current-layer="layer101" />
  <g
     id="layer101"
     style="fill:#d51f32;stroke:none"
     transform="translate(-2915,391.56118)">
    <path
       style="stroke-width:1"
       d="m 6016.1328,138.37891 c -116.625,-0.875 -232.6328,2.625 -301.1328,10.625 -862,105 -1594.0039,609.99219 -1989.0039,1371.99219 C 3578.9961,1805.9961 3493,2090 3455,2415 c -9,76 -17.9961,141.0039 -20.9961,144.0039 C 3431.0039,2562.0039 3364,2499 3285,2420 L 3140,2275 3028.0078,2388.0078 2915,2500 l 340,340 340,340 340,-340 340,-340 L 4163.0078,2388.0078 4050,2275 3911.9922,2413.0078 c -75,75 -139.9844,136.9922 -143.9844,136.9922 -13,0 25.9883,-269 57.9883,-395 C 3991.9961,1501 4421,972 5025,680 c 146,-71 329,-136.0039 475,-169.0039 189,-42.00001 230,-46.00001 505,-45.00001 251,0 280.0078,2.01172 408.0078,27.01171 405,80 766.9883,259 1087.9883,540 C 7686.9961,1196.0078 7885,1452 8000,1680 l 31.9922,63.0078 119.0039,-120 120,-119.0039 -41.9922,-75 C 7988.0039,1003.0039 7589,625.0078 7145,403.00781 c -245,-123 -540.0039,-212.0039 -824.0039,-249.0039 -71,-9.5 -188.2383,-14.75 -304.8633,-15.625 z M 5850,1030 v 193.0078 192.9883 l -70,17.0117 c -297,71 -486.9961,231.9922 -560.9961,476.9922 -30,98 -33,284 -5,375 70,234 259.9922,390.0078 661.9922,543.0078 236,90 354.9961,162.9844 415.9961,253.9844 49,71 61.0156,117.0117 56.0156,197.0117 -10,134 -84.0078,222.9922 -233.0078,281.9922 -54,21 -76,23.0039 -225,24.0039 -148,0 -175.9961,-3.0078 -270.9961,-28.0078 -113,-29 -195.9961,-59.9883 -290.9961,-107.9883 -43,-22 -60.0078,-26.0117 -63.0078,-17.0117 -25,70 -101.9922,355 -96.9922,360 18,17 134.9961,69.0078 205.9961,93.0078 103,33 256.9922,63.9922 356.9922,71.9922 L 5810,3963.0078 V 4160 c 0,108 2.9922,200.0039 6.9922,204.0039 4,3 81.0117,5.0039 172.0117,4.0039 L 6155,4365 6158.0078,4153.0078 6160,3940 l 28.0078,-5.9961 c 76,-17 112,-27 160,-45 245,-89 409.9883,-258.0039 472.9883,-484.0039 18,-64 22.0117,-105 22.0117,-200 -2,-199 -53.0078,-332 -178.0078,-460 -104,-106 -251,-192 -500,-290 -289,-114 -433,-213.0039 -470,-324.0039 -46,-140 28,-282.9883 180,-342.9883 111,-44 315,-43.0078 490,1.9922 61,16 188.9961,62.9961 260.9961,95.9961 6,3 32.0039,-68.9961 64.0039,-175.9961 45,-151 51.0039,-183 39.0039,-190 -26,-17 -224.0039,-79.0039 -299.0039,-94.0039 -41,-8 -109.9922,-17.9922 -151.9922,-21.9922 L 6200,1396.9922 V 1214.0039 1030 h -175 z m 2555,790 -340,340 -340,340 111.9922,111.9922 L 7950,2725 8089.0039,2585.9961 8228.0078,2446.9922 8235,2490 c 11,68 9,355 -5,465 -100,843 -656.9922,1550 -1456.9922,1850 -221,84 -435.0078,123.9922 -698.0078,131.9922 -211,6 -331.0078,-3.9922 -523.0078,-41.9922 -753,-153 -1402,-715.0078 -1660,-1438.0078 L 3854.0039,3350.9961 3726.9922,3478.0078 3600,3605 l 49.0039,113.0078 c 368,852 1174.9961,1439 2110.9961,1535 82,9 419.0078,5.9922 508.0078,-3.0078 476,-52 910.9961,-226.0078 1295.9961,-518.0078 141,-107 372.9883,-341.9844 482.9883,-488.9844 209,-279 351.0117,-573.0156 437.0117,-906.0156 60,-233 70.9961,-327.9844 70.9961,-638.9844 V 2420 L 8708.0078,2573.0078 8860,2725 8971.9922,2611.9922 9085,2500 8745,2160 Z"
       id="path2"
       inkscape:connector-curvature="0"
       sodipodi:nodetypes="scccsscccccccccsscccccccccccccsccccccccccccccccccsccccccccccccccccccccccccccccccccccccccccccccccsccccccc" />
  </g>
</svg>
