<svg xmlns="http://www.w3.org/2000/svg" width="264" height="208.01" viewBox="0 0 264 208.01"><defs><style>.a{fill:#2166a1;}.b{fill:#c9def1;}.c{fill:#c8d8e8;}</style></defs><g transform="translate(-48 -80)"><g transform="translate(48 51)"><path class="a" d="M64,117.01H200a8,8,0,0,1,8,8v72a8,8,0,0,1-8,8H64a8,8,0,0,1-8-8v-72A8,8,0,0,1,64,117.01Z"/><rect class="b" width="64" height="3" transform="translate(128 133.01)"/><rect class="b" width="64" height="3" transform="translate(128 146.01)"/><rect class="b" width="8" height="2" transform="translate(184 157.01)"/><rect class="b" width="48" height="2" transform="translate(128 164.01)"/><rect class="b" width="48" height="2" transform="translate(128 157.01)"/><rect class="b" width="48" height="2" transform="translate(128 171.01)"/><path class="b" d="M145.41,190.45a2.006,2.006,0,0,1-1.22-.37c-1.06-.78-1.13-2.63-.21-5.19a11.049,11.049,0,0,0,.51-1.71c-.23.13-.54.34-.78.51a8.631,8.631,0,0,1-2.49,1.32c-1.35.34-1.43.68-1.7,1.81a12.183,12.183,0,0,1-.53,1.8c-.26.68-.51,1.12-.97,1.21-.5.1-.84-.29-1.32-.82a8.8,8.8,0,0,0-3.17-2.41,2.851,2.851,0,0,0-2.35-.09c-1.76.73-2.71,3.13-2.72,3.15l-.93-.36c.04-.11,1.1-2.81,3.26-3.71a3.875,3.875,0,0,1,3.14.1,9.817,9.817,0,0,1,3.51,2.66c.13.14.28.31.39.42a4.571,4.571,0,0,0,.22-.49,12.391,12.391,0,0,0,.49-1.67,2.725,2.725,0,0,1,2.43-2.55,7.936,7.936,0,0,0,2.17-1.17c.9-.61,1.56-1.06,2.07-.66.47.37.4,1.1-.3,3.03-.87,2.42-.65,3.67-.14,4.05s1.72.24,3.67-1.23c.5-.38.94-.74,1.34-1.1-.17-.13-.34-.27-.52-.42-1.75-1.45-1.91-2.77-1.73-3.63a3.1,3.1,0,0,1,2.21-2.25,2.425,2.425,0,0,1,2.47.54,3.032,3.032,0,0,1,.92,2.36,5.683,5.683,0,0,1-1.82,3.31c2.01,1.46,2.77,1.38,4.24,1.21.42-.05.9-.1,1.46-.13l.05,1c-.54.03-.99.08-1.4.13-1.79.2-2.76.22-5.08-1.5-.45.41-.97.84-1.54,1.27A6.725,6.725,0,0,1,145.41,190.45Zm5.17-8.94a2.181,2.181,0,0,0-2.06,1.58c-.17.84.31,1.75,1.39,2.65.21.18.42.34.61.5a4.939,4.939,0,0,0,1.63-2.78,1.991,1.991,0,0,0-.64-1.59A1.282,1.282,0,0,0,150.58,181.51Z"/><path class="b" d="M72.68,191.01v-.69H74.9v-6.05h-.48a2.872,2.872,0,0,0-1.13.18l-.19-.67a3.371,3.371,0,0,1,1.28-.21h.59a.637.637,0,0,1,.73.68v6.07h1.8v.69H72.68Z"/><path class="b" d="M85.94,185.57a3.291,3.291,0,0,1-1.32,2.47l-2.49,2.31h3.83v.66H81.73a.447.447,0,0,1-.47-.49.677.677,0,0,1,.22-.49l2.58-2.45a2.7,2.7,0,0,0,1.14-2.03c0-.99-.69-1.33-1.51-1.33a6.758,6.758,0,0,0-1.81.34l-.44.13-.15-.69.43-.13a6.877,6.877,0,0,1,1.99-.37A1.991,1.991,0,0,1,85.94,185.57Z"/><path class="b" d="M90.25,190.71l-.45-.12.16-.69.46.13a8.338,8.338,0,0,0,1.96.37c1.08,0,1.62-.49,1.62-1.25a1.4,1.4,0,0,0-.43-1l-.53-.55H91.62v-.66h1.43l.41-.57a1.876,1.876,0,0,0,.33-1.02c0-.67-.4-1.14-1.44-1.14a7.493,7.493,0,0,0-1.8.34l-.44.12-.15-.69.43-.12a7.441,7.441,0,0,1,1.97-.36c1.43,0,2.17.69,2.17,1.84a2.287,2.287,0,0,1-.41,1.27l-.46.62.56.59a1.8,1.8,0,0,1,.52,1.29c0,1.2-.93,1.98-2.34,1.98A8.341,8.341,0,0,1,90.25,190.71Z"/><path class="b" d="M98.78,189.61a.434.434,0,0,1-.47-.48.682.682,0,0,1,.17-.43l3.18-4.85a.693.693,0,0,1,.6-.34.464.464,0,0,1,.52.53v4.91h.89v.66h-.89v1.4h-.73v-1.4H98.78Zm3.27-5.05-2.87,4.4h2.87Z"/><path class="b" d="M111.29,188.64c0-1.18-.65-1.69-1.77-1.69a5.278,5.278,0,0,0-1.29.2l-.7.2v-3.78h4.16v.72h-3.47v2.2a4.812,4.812,0,0,1,1.4-.23,2.147,2.147,0,0,1,2.4,2.38,2.3,2.3,0,0,1-2.47,2.45,7.063,7.063,0,0,1-1.92-.35l-.43-.12.15-.69.44.12a7.14,7.14,0,0,0,1.75.34A1.594,1.594,0,0,0,111.29,188.64Z"/><path class="a" d="M1,109.01H0v-16a8,8,0,0,1,8-8H24v1H8a7,7,0,0,0-7,7Z"/><path class="a" d="M263,213.01h1v16a8,8,0,0,1-8,8H240v-1h16a7,7,0,0,0,7-7Z"/><path class="a" d="M24,237.01H8a8,8,0,0,1-8-8v-16H1v16a7.008,7.008,0,0,0,7,7H24Z"/><path class="a" d="M240,85.01h16a8,8,0,0,1,8,8v16h-1v-16a7.008,7.008,0,0,0-7-7H240Z"/><path class="b" d="M92,155.51a8.75,8.75,0,1,0-8.75-8.75A8.753,8.753,0,0,0,92,155.51Zm-4.59-7.73a6.075,6.075,0,0,0,4.69,2.62,5.536,5.536,0,0,0,4.47-2.6l.85.53a6.553,6.553,0,0,1-5.32,3.07,7.047,7.047,0,0,1-5.51-3.05Z"/><path class="b" d="M72,133.01v40h40v-40Zm32.1,39H79.9q-.03-.435-.03-.87a12.125,12.125,0,0,1,24.25.01A8.3,8.3,0,0,1,104.1,172.01Zm6.9,0h-5.9c.02-.29.03-.58.03-.88a13.125,13.125,0,1,0-26.25,0c0,.29.01.58.03.88H73v-38h38Z"/></g><g transform="translate(120 80)"><rect class="c" width="50.92" height="2.39" transform="translate(57.29 0.23)"/><rect class="c" width="6.36" height="1.59" transform="translate(101.84 8.98)"/><rect class="c" width="38.19" height="1.59" transform="translate(57.29 14.55)"/><rect class="c" width="38.19" height="1.59" transform="translate(57.29 8.98)"/><rect class="c" width="38.19" height="1.59" transform="translate(57.29 20.12)"/><path class="c" d="M59.85,32.54a2.191,2.191,0,0,1,1.79.07,6.869,6.869,0,0,1,2.48,1.89c.39.43.69.77,1.15.69s.67-.55.85-1.02a10.487,10.487,0,0,0,.43-1.45c.21-.9.26-1.11,1.28-1.36a7.046,7.046,0,0,0,2.01-1.06c.13-.09.28-.19.42-.28-.06.23-.16.59-.35,1.11-.97,2.67-.43,3.79.2,4.25a1.723,1.723,0,0,0,1.03.32,5.292,5.292,0,0,0,2.96-1.31c.44-.33.83-.65,1.18-.97a4.648,4.648,0,0,0,4.04,1.16c.32-.04.68-.08,1.11-.1l-.05-1c-.45.02-.83.06-1.17.1A3.654,3.654,0,0,1,76,32.71a4.57,4.57,0,0,0,1.4-2.61,2.491,2.491,0,0,0-.76-1.96,2.027,2.027,0,0,0-2.07-.46,2.553,2.553,0,0,0-1.83,1.87c-.12.58-.1,1.74,1.41,2.99.11.09.21.18.32.26-.28.25-.61.51-.97.79-1.5,1.14-2.45,1.24-2.8.98-.37-.27-.53-1.23.15-3.1.58-1.58.63-2.2.21-2.52-.47-.36-1.01.01-1.77.52a6.356,6.356,0,0,1-1.7.92,2.257,2.257,0,0,0-2.01,2.1,10,10,0,0,1-.39,1.32c-.04.11-.08.19-.11.26-.07-.07-.14-.15-.21-.23a7.929,7.929,0,0,0-2.83-2.14,3.178,3.178,0,0,0-2.58-.08,5.7,5.7,0,0,0-2.65,3.01l.93.36A4.953,4.953,0,0,1,59.85,32.54Zm13.87-2.78a1.567,1.567,0,0,1,1.13-1.11,1.4,1.4,0,0,1,.41-.06.919.919,0,0,1,.67.25,1.48,1.48,0,0,1,.48,1.19A3.845,3.845,0,0,1,75.2,32.1c-.13-.1-.27-.22-.41-.33C73.97,31.09,73.59,30.37,73.72,29.76Z"/><path class="c" d="M15.02,34.65a.886.886,0,0,1-.23,0,5.152,5.152,0,0,1-1.23-.24l-.31-.08-.1.48.3.08a4.671,4.671,0,0,0,1.34.25,1.613,1.613,0,0,0,1.73-1.49.885.885,0,0,0,0-.23,1.5,1.5,0,0,0-1.31-1.67,2.164,2.164,0,0,0-.36,0,3.3,3.3,0,0,0-.98.16V30.37H16.3v-.5H13.39v2.65l.49-.14a3.924,3.924,0,0,1,.9-.14c.78,0,1.24.36,1.24,1.18A1.116,1.116,0,0,1,15.02,34.65Z"/><path class="c" d="M20.89,34.63a5.218,5.218,0,0,1-1.24-.23l-.31-.08-.1.48.3.08a5.25,5.25,0,0,0,1.37.24,1.525,1.525,0,0,0,1.6-1.46V31.57a1.622,1.622,0,0,0-1.49-1.74.81.81,0,0,0-.22,0,1.559,1.559,0,0,0-1.66,1.46,2.083,2.083,0,0,0,0,.25,1.521,1.521,0,0,0,1.33,1.67,1.612,1.612,0,0,0,.38-.01,3.6,3.6,0,0,0,1.13-.22v.48C21.98,34.17,21.64,34.63,20.89,34.63Zm0-1.93c-.9,0-1.23-.47-1.23-1.17a1.09,1.09,0,0,1,.92-1.23,1.34,1.34,0,0,1,.2-.01,1.158,1.158,0,0,1,1.21,1.09,1.477,1.477,0,0,1-.01.21v.92A4.022,4.022,0,0,1,20.89,32.7Z"/><path class="c" d="M26.71,35.08l1.91-4.58a1.089,1.089,0,0,0,.08-.31.338.338,0,0,0-.36-.32H25.31v.48h2.82l-1.99,4.73Z"/><path class="c" d="M33.18,34.65a.886.886,0,0,1-.23,0,5.152,5.152,0,0,1-1.23-.24l-.31-.08-.1.48.3.08a4.671,4.671,0,0,0,1.34.25,1.613,1.613,0,0,0,1.73-1.49.886.886,0,0,0,0-.23,1.488,1.488,0,0,0-1.29-1.67,1.21,1.21,0,0,0-.38,0,3.3,3.3,0,0,0-.98.16V30.37h2.43v-.5H31.55v2.65l.49-.14a3.924,3.924,0,0,1,.9-.14c.78,0,1.24.36,1.24,1.18A1.116,1.116,0,0,1,33.18,34.65Z"/><path class="c" d="M40.34,35.09v-.98h.62v-.46h-.62V30.2a.327.327,0,0,0-.27-.37h-.09a.491.491,0,0,0-.42.24l-2.23,3.4a.471.471,0,0,0-.12.3.3.3,0,0,0,.27.34h2.35v.98Zm-2.52-1.45,2.01-3.08v3.08Z"/><path class="c" d="M28.73,4.62a5.312,5.312,0,0,0,4.32-2.49L32.2,1.6a4.27,4.27,0,0,1-3.46,2.02,4.737,4.737,0,0,1-3.66-2.04l-.83.56A5.726,5.726,0,0,0,28.73,4.62Z"/><path class="c" d="M119.93,0V38.18a7.008,7.008,0,0,1-7,7H8a7.008,7.008,0,0,1-7-7V0H0V38.18a8.011,8.011,0,0,0,8,8H112.93a8.011,8.011,0,0,0,8-8V0Z"/><path class="c" d="M44.55,0h-1V20.71h-4.5c.01-.16.03-.33.03-.49a10.45,10.45,0,0,0-20.9,0c0,.16.03.33.03.49h-4.5V0h-.99V21.71H44.54V0ZM38.08,20.71H19.21c-.01-.16-.01-.33-.01-.49a9.445,9.445,0,0,1,18.89-.01C38.09,20.38,38.08,20.55,38.08,20.71Z"/><path class="c" d="M28.64,7.79A6.965,6.965,0,0,0,35.6.83,7.55,7.55,0,0,0,35.55,0H34.54a5.69,5.69,0,0,1,.07.83,5.96,5.96,0,1,1-11.92,0A5.69,5.69,0,0,1,22.76,0H21.75a7.55,7.55,0,0,0-.05.83A6.929,6.929,0,0,0,28.64,7.79Z"/></g></g></svg>