<?xml version="1.0" encoding="utf-8"?>
<!-- Generator: Adobe Illustrator 16.0.0, SVG Export Plug-In . SVG Version: 6.00 Build 0)  -->
<!DOCTYPE svg PUBLIC "-//W3C//DTD SVG 1.1//EN" "http://www.w3.org/Graphics/SVG/1.1/DTD/svg11.dtd">
<svg version="1.1" id="Layer_1" xmlns="http://www.w3.org/2000/svg" xmlns:xlink="http://www.w3.org/1999/xlink" x="0px" y="0px"
	 width="256px" height="256px" viewBox="0 0 256 256" enable-background="new 0 0 256 256" xml:space="preserve">
<path fill="#ABACAF" d="M65,252.923v-85.069l-30-16.694v-1.453c0-0.379,3.254-38.086,5.082-53.191
	c1.66-13.749,3.825-17.526,7.401-23.785c0.514-0.896,1.06-1.852,1.644-2.903c1.006-1.816,4.069-7.34,49.118-18.401l3.141-0.771
	l0.211,0.2L120,46.694V41.25c0-1.076-0.023-2.1,0.393-3.044c2.145-5.796,8.538-7.655,9.635-7.931
	c2.498-0.802,4.113-3.116,4.113-5.779c0-3.339-2.745-6.16-6.493-6.16c-3.453,0-6.648,2.387-6.648,5.348v3.744
	c0,4.316-3.705,7.698-8.002,7.698c-4.295,0-7.998-3.382-7.998-7.698v-4.275c0-0.803,0.106-1.499,0.286-2.062
	C107.032,10.765,116.601,3,127.694,3c12.521,0,23.185,9.643,23.185,21.496c0,9.206-6.879,16.847-13.879,19.923v2.355l17.397,4.113
	l-0.269-0.214l2.933,0.751c45.012,11.052,48.008,16.585,49.014,18.402c0.57,1.029,1.075,1.967,1.579,2.85
	c3.58,6.268,5.726,10.051,7.39,23.839c1.828,15.102,5.119,52.807,5.152,53.186l0.676,1.475L191,167.871v85.052L128.859,253
	L65,252.923z M127.148,241h0.84L177,240.332v-80.029l5.45-2.98l24.36-13.338c-1.971-22.601-3.471-38.051-4.426-45.937
	c-1.357-11.236-2.582-13.363-5.83-19.047c-0.326-0.575-0.691-1.2-1.066-1.867c-1.174-0.736-4.952-2.759-15.081-6.005
	c-4.279-1.369-9.274-2.822-14.87-4.328c-4.725,16.827-20.261,29.012-37.81,29.308l-0.206,0.002l-0.141-0.002
	c-17.549-0.295-33.082-12.48-37.809-29.308c-5.566,1.498-10.557,2.952-14.863,4.331c-10.104,3.236-13.883,5.262-15.063,6.003
	c-0.105,0.189-0.209,0.376-0.309,0.561c-0.254,0.46-0.496,0.897-0.73,1.312c-3.193,5.594-4.389,7.687-5.76,19.038
	c-1.229,10.154-3.016,30.777-4.082,43.099l-0.256,2.933l24.217,13.295L79,160.34v79.989L127.148,241z M102.813,66.275
	c4.037,10.116,13.695,16.877,24.738,17.077c11.033-0.2,20.689-6.954,24.734-17.059l-19.953-4.571
	c-1.318,0.84-2.947,1.306-4.631,1.306c-1.727,0-3.395-0.487-4.74-1.364L102.813,66.275z"/>
</svg>
