<?xml version="1.0" encoding="utf-8"?>
<!-- Generator: Adobe Illustrator 19.2.1, SVG Export Plug-In . SVG Version: 6.00 Build 0)  -->
<svg version="1.1" id="Camada_1" xmlns="http://www.w3.org/2000/svg" xmlns:xlink="http://www.w3.org/1999/xlink" x="0px" y="0px"
	 viewBox="0 0 21 40" style="enable-background:new 0 0 21 40;" xml:space="preserve">
<style type="text/css">
	.st0{fill:none;stroke:#ABACAF;}
</style>
<path id="_" class="st0" d="M9.2,16.9c-2.1-0.5-3.1-1.6-3.1-3.3c0-2.3,1.6-3.4,4-3.4c2.5,0.1,4.9,0.6,7.3,1.4l2.2,0.7l0.9-5.1
	l-2.3-0.7c-1.8-0.6-3.6-1-5.5-1.2V0.5H8.3v4.8C4,5.7,0.5,8.5,0.5,13.9c0,4.5,2.8,7,7.1,8l3.5,0.8c2.8,0.7,3.9,1.3,3.9,3.6
	c0,2.3-1.8,3.5-4,3.5c-2.6,0-5.1-0.5-7.5-1.4l-2.1-0.8l-0.9,5.2l2.2,0.7c1.8,0.6,3.7,1,5.6,1.2v4.9h4.4v-4.9
	c4.3-0.5,7.8-3.2,7.8-8.6c0-4.6-2.6-7-7.1-8.1L9.2,16.9z"/>
</svg>
