<?xml version="1.0" encoding="utf-8"?>
<!-- Generator: Adobe Illustrator 16.0.0, SVG Export Plug-In . SVG Version: 6.00 Build 0)  -->
<!DOCTYPE svg PUBLIC "-//W3C//DTD SVG 1.1//EN" "http://www.w3.org/Graphics/SVG/1.1/DTD/svg11.dtd">
<svg version="1.1" id="Layer_1" xmlns="http://www.w3.org/2000/svg" xmlns:xlink="http://www.w3.org/1999/xlink" x="0px" y="0px"
	 width="256px" height="256px" viewBox="0 0 256 256" enable-background="new 0 0 256 256" xml:space="preserve">
<g>
	<path fill="#ABACAF" d="M215.558,165.442c-20.646,0-37.441-16.797-37.441-37.442s16.796-37.442,37.441-37.442S253,107.354,253,128
		S236.203,165.442,215.558,165.442z M215.558,100.104c-15.382,0-27.896,12.515-27.896,27.896s12.514,27.896,27.896,27.896
		s27.896-12.515,27.896-27.896S230.939,100.104,215.558,100.104z"/>
	<path fill="#ABACAF" d="M128,165.442c-20.646,0-37.442-16.797-37.442-37.442S107.354,90.558,128,90.558
		c20.645,0,37.441,16.797,37.441,37.442S148.645,165.442,128,165.442z M128,100.104c-15.382,0-27.896,12.515-27.896,27.896
		s12.515,27.896,27.896,27.896s27.896-12.515,27.896-27.896S143.382,100.104,128,100.104z"/>
	<path fill="#ABACAF" d="M40.441,165.442C19.797,165.442,3,148.646,3,128s16.797-37.442,37.441-37.442
		c20.646,0,37.441,16.797,37.441,37.442S61.087,165.442,40.441,165.442z M40.441,100.104c-15.382,0-27.896,12.515-27.896,27.896
		s12.514,27.896,27.896,27.896c15.383,0,27.896-12.515,27.896-27.896S55.824,100.104,40.441,100.104z"/>
</g>
</svg>
