<svg xmlns="http://www.w3.org/2000/svg" width="360" height="640" viewBox="0 0 360 640"><defs><style>.a,.k{fill:#c9def1;}.b,.c,.d,.e,.f,.g,.h,.i,.m{fill:none;}.b,.c,.d,.e,.f,.g,.h,.k{stroke:#2166a1;}.b{stroke-dasharray:3 5;}.c{stroke-dasharray:2 9;}.d{stroke-dasharray:1 12;}.e{stroke-dasharray:3 1;}.g{stroke-width:0.5px;}.h,.i{stroke-linecap:round;}.i{stroke-linejoin:round;}.j,.n{fill:#2166a1;}.k{stroke-miterlimit:10;}.l,.n{stroke:none;}</style></defs><rect class="a" width="360" height="640"/><g transform="translate(-14587 -22317)"><g class="b" transform="translate(14694 22426)"><circle class="l" cx="73" cy="73" r="73"/><circle class="m" cx="73" cy="73" r="72.5"/></g><g class="c" transform="translate(14663 22395)"><circle class="l" cx="104" cy="104" r="104"/><circle class="m" cx="104" cy="104" r="103.5"/></g><g class="d" transform="translate(14627 22359)"><circle class="l" cx="140" cy="140" r="140"/><circle class="m" cx="140" cy="140" r="139.5"/></g><rect class="a" width="164" height="51" transform="translate(14687 22594)"/><g class="e" transform="translate(14729 22461)"><circle class="l" cx="38" cy="38" r="38"/><circle class="m" cx="38" cy="38" r="37.5"/></g><g class="f" transform="translate(14749 22481)"><circle class="l" cx="18" cy="18" r="18"/><circle class="m" cx="18" cy="18" r="17.5"/></g><g class="g" transform="translate(14752 22484)"><circle class="l" cx="15" cy="15" r="15"/><circle class="m" cx="15" cy="15" r="14.75"/></g></g><g transform="translate(48 51.838)"><line class="h" y1="173.601" transform="translate(130 130) rotate(135)"/><g class="i" transform="translate(34.098 20.459) rotate(135)"><path class="l" d="M0,28.933l9.644-4.711,9.644,4.711V6.028L9.811,0,0,6.028Z"/><path class="n" d="M 18.2889461517334 27.33197975158691 L 18.28895568847656 6.576911449432373 L 9.802271842956543 1.179288268089294 L 1.000005006790161 6.587088108062744 L 1.000005006790161 27.33197975158691 L 9.205545425415039 23.32355117797852 C 9.344035148620605 23.25589561462402 9.494255065917969 23.22206878662109 9.644474983215332 23.22206878662109 C 9.794694900512695 23.22206878662109 9.944914817810059 23.25589561462402 10.08340454101563 23.32355117797852 L 18.2889461517334 27.33197975158691 M 19.28894424438477 28.93342018127441 L 9.644474983215332 24.22207069396973 L 4.983215148968156e-06 28.93342018127441 L 4.983215148968156e-06 6.027801036834717 L 9.811445236206055 1.044311488840322e-06 L 19.28895568847656 6.027801036834717 L 19.28894424438477 28.93342018127441 Z"/></g></g><g transform="translate(174.5 172)"><path class="j" d="M104.605,56.5V53.969l-.446-.034a8.561,8.561,0,0,1-3.657-1.069l.683-2.341a8.206,8.206,0,0,0,4.015,1.114c1.678,0,2.8-.845,2.8-2.1,0-1.155-.828-1.929-2.859-2.67-2.314-.837-4.454-1.971-4.454-4.58,0-2.19,1.376-3.749,3.776-4.277l.379-.083V35.5h2.172v2.293l.441.038a9.32,9.32,0,0,1,3.018.792l-.685,2.291-.1-.043a7.544,7.544,0,0,0-3.405-.82c-1.857,0-2.519.966-2.519,1.871,0,1.126,1.022,1.733,3.168,2.591,2.975,1.115,4.184,2.486,4.184,4.735a4.577,4.577,0,0,1-3.968,4.488l-.381.082V56.5Z" transform="translate(-100.502 -35.5)"/></g><path class="j" d="M24.93,11.86a9.239,9.239,0,0,0-3.33-1.441,5.2,5.2,0,0,1-1.68-.639,5.257,5.257,0,0,1-.639-1.68A9.239,9.239,0,0,0,17.84,4.77,4.2,4.2,0,0,0,14.4,3.3a4.245,4.245,0,0,0-3.435,1.47A9.239,9.239,0,0,0,9.528,8.1,5.144,5.144,0,0,1,8.9,9.78a5.54,5.54,0,0,1-1.727.649c-.143.038-.3.086-.439.124h-.01l-.067.019A7.9,7.9,0,0,0,3.87,11.86,4.2,4.2,0,0,0,2.4,15.3a4.232,4.232,0,0,0,1.47,3.435A9.239,9.239,0,0,0,7.2,20.172a5.2,5.2,0,0,1,1.68.639,5.257,5.257,0,0,1,.639,1.68,9.239,9.239,0,0,0,1.441,3.33A4.2,4.2,0,0,0,14.4,27.29a4.245,4.245,0,0,0,3.435-1.47,9.239,9.239,0,0,0,1.441-3.33,5.257,5.257,0,0,1,.639-1.68,5.436,5.436,0,0,1,1.68-.639,17.007,17.007,0,0,0,1.909-.62,2.594,2.594,0,0,0,.239-.1h0a5.573,5.573,0,0,0,1.193-.716A4.2,4.2,0,0,0,26.4,15.3,4.29,4.29,0,0,0,24.93,11.86ZM6.923,11.488l.506-.143a5.426,5.426,0,0,0,2.138-.887l.01-.01a5.227,5.227,0,0,0,.878-2.09,8.428,8.428,0,0,1,1.26-2.987A3.266,3.266,0,0,1,14.4,4.254,3.266,3.266,0,0,1,17.1,5.371a8.355,8.355,0,0,1,1.26,2.987,5.167,5.167,0,0,0,.878,2.09l.01.01a5.227,5.227,0,0,0,2.09.878c.334.094.683.191,1.252.377a5.452,5.452,0,0,1,1.725.883,3.266,3.266,0,0,1,1.117,2.691,3.307,3.307,0,0,1-1.117,2.691A7.028,7.028,0,0,1,22,19.036h0c-.239.067-.468.134-.7.2a5.227,5.227,0,0,0-2.09.878l-.019.019a5.227,5.227,0,0,0-.878,2.09,8.428,8.428,0,0,1-1.26,2.987,3.266,3.266,0,0,1-2.691,1.116,3.336,3.336,0,0,1-2.691-1.116,8.355,8.355,0,0,1-1.26-2.987,5.167,5.167,0,0,0-.878-2.09l-.01-.01a5.227,5.227,0,0,0-2.09-.878,8.309,8.309,0,0,1-2.977-1.26A3.266,3.266,0,0,1,3.345,15.3,3.307,3.307,0,0,1,4.461,12.6a7.154,7.154,0,0,1,2.462-1.117Z" transform="translate(269.6 100.71)"/><path class="j" d="M24.93,11.86a9.239,9.239,0,0,0-3.33-1.441,5.2,5.2,0,0,1-1.68-.639,5.257,5.257,0,0,1-.639-1.68A9.239,9.239,0,0,0,17.84,4.77,4.2,4.2,0,0,0,14.4,3.3a4.245,4.245,0,0,0-3.435,1.47A9.239,9.239,0,0,0,9.528,8.1,5.144,5.144,0,0,1,8.9,9.78a5.54,5.54,0,0,1-1.727.649c-.143.038-.3.086-.439.124h-.01l-.067.019A7.9,7.9,0,0,0,3.87,11.86,4.2,4.2,0,0,0,2.4,15.3a4.232,4.232,0,0,0,1.47,3.435A9.239,9.239,0,0,0,7.2,20.172a5.2,5.2,0,0,1,1.68.639,5.257,5.257,0,0,1,.639,1.68,9.239,9.239,0,0,0,1.441,3.33A4.2,4.2,0,0,0,14.4,27.29a4.245,4.245,0,0,0,3.435-1.47,9.239,9.239,0,0,0,1.441-3.33,5.257,5.257,0,0,1,.639-1.68,5.436,5.436,0,0,1,1.68-.639,17.007,17.007,0,0,0,1.909-.62,2.594,2.594,0,0,0,.239-.1h0a5.573,5.573,0,0,0,1.193-.716A4.2,4.2,0,0,0,26.4,15.3,4.29,4.29,0,0,0,24.93,11.86ZM6.923,11.488l.506-.143a5.426,5.426,0,0,0,2.138-.887l.01-.01a5.227,5.227,0,0,0,.878-2.09,8.428,8.428,0,0,1,1.26-2.987A3.266,3.266,0,0,1,14.4,4.254,3.266,3.266,0,0,1,17.1,5.371a8.355,8.355,0,0,1,1.26,2.987,5.167,5.167,0,0,0,.878,2.09l.01.01a5.227,5.227,0,0,0,2.09.878c.334.094.683.191,1.252.377a5.452,5.452,0,0,1,1.725.883,3.266,3.266,0,0,1,1.117,2.691,3.307,3.307,0,0,1-1.117,2.691A7.028,7.028,0,0,1,22,19.036h0c-.239.067-.468.134-.7.2a5.227,5.227,0,0,0-2.09.878l-.019.019a5.227,5.227,0,0,0-.878,2.09,8.428,8.428,0,0,1-1.26,2.987,3.266,3.266,0,0,1-2.691,1.116,3.336,3.336,0,0,1-2.691-1.116,8.355,8.355,0,0,1-1.26-2.987,5.167,5.167,0,0,0-.878-2.09l-.01-.01a5.227,5.227,0,0,0-2.09-.878,8.309,8.309,0,0,1-2.977-1.26A3.266,3.266,0,0,1,3.345,15.3,3.307,3.307,0,0,1,4.461,12.6a7.154,7.154,0,0,1,2.462-1.117Z" transform="translate(13.6 252.71)"/><path class="j" d="M17.42,9.007a6.159,6.159,0,0,0-2.22-.961,3.468,3.468,0,0,1-1.12-.426,3.5,3.5,0,0,1-.426-1.12,6.159,6.159,0,0,0-.961-2.22A2.8,2.8,0,0,0,10.4,3.3a2.83,2.83,0,0,0-2.29.98A6.159,6.159,0,0,0,7.152,6.5a3.429,3.429,0,0,1-.42,1.12,3.693,3.693,0,0,1-1.151.433c-.1.025-.2.057-.293.083H5.282l-.045.013a5.27,5.27,0,0,0-1.858.859A2.8,2.8,0,0,0,2.4,11.3a2.821,2.821,0,0,0,.98,2.29,6.159,6.159,0,0,0,2.22.961,3.468,3.468,0,0,1,1.12.426,3.5,3.5,0,0,1,.426,1.12,6.159,6.159,0,0,0,.961,2.22,2.8,2.8,0,0,0,2.29.98,2.83,2.83,0,0,0,2.29-.98,6.159,6.159,0,0,0,.961-2.22,3.5,3.5,0,0,1,.426-1.12,3.624,3.624,0,0,1,1.12-.426,11.338,11.338,0,0,0,1.272-.414,1.73,1.73,0,0,0,.159-.07h0a3.715,3.715,0,0,0,.8-.477,2.8,2.8,0,0,0,.98-2.29A2.86,2.86,0,0,0,17.42,9.007Zm-12-.248.337-.1a3.617,3.617,0,0,0,1.425-.592l.006-.006a3.485,3.485,0,0,0,.585-1.393,5.619,5.619,0,0,1,.84-1.991A2.178,2.178,0,0,1,10.4,3.936a2.178,2.178,0,0,1,1.794.744,5.57,5.57,0,0,1,.84,1.991,3.444,3.444,0,0,0,.585,1.393l.006.006a3.485,3.485,0,0,0,1.393.585c.223.062.455.128.835.251a3.634,3.634,0,0,1,1.15.588,2.178,2.178,0,0,1,.744,1.794,2.2,2.2,0,0,1-.744,1.794,4.686,4.686,0,0,1-1.54.706h0c-.159.045-.312.089-.464.134a3.485,3.485,0,0,0-1.393.585l-.013.013a3.485,3.485,0,0,0-.585,1.393,5.619,5.619,0,0,1-.84,1.991,2.178,2.178,0,0,1-1.794.744,2.224,2.224,0,0,1-1.794-.744,5.57,5.57,0,0,1-.84-1.991,3.444,3.444,0,0,0-.585-1.393l-.006-.006a3.485,3.485,0,0,0-1.393-.585,5.539,5.539,0,0,1-1.985-.84A2.178,2.178,0,0,1,3.03,11.3,2.2,2.2,0,0,1,3.774,9.5a4.769,4.769,0,0,1,1.641-.744Z" transform="translate(327.6 298.71)"/><path class="k" d="M369.214,117.961l3.861,7.824a1.38,1.38,0,0,0,1.039.754l8.634,1.254a1.38,1.38,0,0,1,.764,2.353l-6.247,6.09a1.38,1.38,0,0,0-.4,1.221l1.475,8.6a1.38,1.38,0,0,1-2,1.455l-7.722-4.061a1.384,1.384,0,0,0-1.284,0l-7.722,4.061a1.38,1.38,0,0,1-2-1.455l1.475-8.6a1.38,1.38,0,0,0-.4-1.221l-6.247-6.09a1.38,1.38,0,0,1,.764-2.353l8.634-1.254a1.38,1.38,0,0,0,1.039-.754l3.86-7.824A1.38,1.38,0,0,1,369.214,117.961Z" transform="matrix(0.891, 0.454, -0.454, 0.891, 32.386, -32.235)"/><path class="k" d="M362.021,117.64l2.245,4.55a.8.8,0,0,0,.6.438l5.021.73a.8.8,0,0,1,.444,1.369l-3.633,3.541a.8.8,0,0,0-.231.71l.858,5a.8.8,0,0,1-1.164.846l-4.491-2.361a.8.8,0,0,0-.747,0l-4.49,2.361a.8.8,0,0,1-1.164-.846l.858-5a.8.8,0,0,0-.231-.71l-3.633-3.541a.8.8,0,0,1,.444-1.369l5.021-.73a.8.8,0,0,0,.6-.438l2.245-4.55A.8.8,0,0,1,362.021,117.64Z" transform="matrix(0.966, -0.259, 0.259, 0.966, -224.872, 34.505)"/><path class="k" d="M365.132,117.779l2.944,5.966a1.052,1.052,0,0,0,.792.575l6.583.957a1.052,1.052,0,0,1,.583,1.794l-4.763,4.643a1.052,1.052,0,0,0-.3.931l1.125,6.556a1.052,1.052,0,0,1-1.527,1.109l-5.888-3.1a1.055,1.055,0,0,0-.979,0l-5.888,3.1a1.052,1.052,0,0,1-1.527-1.109l1.125-6.556a1.052,1.052,0,0,0-.3-.931l-4.763-4.643a1.052,1.052,0,0,1,.583-1.794l6.583-.957a1.052,1.052,0,0,0,.792-.575l2.943-5.966A1.052,1.052,0,0,1,365.132,117.779Z" transform="matrix(0.891, 0.454, -0.454, 0.891, -191.129, -111.235)"/><g transform="translate(2.872 -595.222)"><path class="j" d="M5.611,11.222a5.618,5.618,0,0,1-5.066-3.2l.666-.669a4.734,4.734,0,0,0,9.134-1.648l.83-.835a5.711,5.711,0,0,1,.048.736,5.606,5.606,0,0,1-5.611,5.611ZM.087,6.6h0A5.663,5.663,0,0,1,0,5.611,5.612,5.612,0,0,1,10.768,3.4l-.677.681A4.734,4.734,0,0,0,.877,5.611c0,.063,0,.128,0,.192l-.793.8Z" transform="translate(22.471 680)"/><g transform="translate(26.36 682.168)"><path class="j" d="M101.865,42.475v-.841l-.148-.011a2.844,2.844,0,0,1-1.215-.355l.227-.778a2.726,2.726,0,0,0,1.334.37c.557,0,.932-.281.932-.7,0-.384-.275-.641-.95-.887-.769-.278-1.479-.655-1.479-1.521a1.422,1.422,0,0,1,1.254-1.421l.126-.028V35.5h.722v.762l.147.013a3.1,3.1,0,0,1,1,.263l-.227.761-.032-.014a2.506,2.506,0,0,0-1.131-.272c-.617,0-.837.321-.837.621,0,.374.339.576,1.052.861.988.37,1.39.826,1.39,1.573a1.52,1.52,0,0,1-1.318,1.491l-.127.027v.89Z" transform="translate(-100.502 -35.5)"/></g><g transform="translate(33.297 688.033) rotate(-135)"><g transform="translate(0 0)"><path class="j" d="M0,0H.7l0,2.661H0Z" transform="translate(0 2.662) rotate(-90)"/><path class="j" d="M0,0H.7l0,2.661H0Z" transform="translate(1.961 0)"/></g></g><g transform="translate(23.01 683.338) rotate(45)"><g transform="translate(0 0)"><path class="j" d="M0,0H.7l0,2.661H0Z" transform="translate(0 2.662) rotate(-90)"/><path class="j" d="M0,0H.7l0,2.661H0Z" transform="translate(1.961 0)"/></g></g></g><g transform="translate(81.821 -408)"><path class="j" d="M5.611,11.222a5.618,5.618,0,0,1-5.066-3.2l.666-.669a4.734,4.734,0,0,0,9.134-1.648l.83-.835a5.711,5.711,0,0,1,.048.736,5.606,5.606,0,0,1-5.611,5.611ZM.087,6.6h0A5.663,5.663,0,0,1,0,5.611,5.612,5.612,0,0,1,10.768,3.4l-.677.681A4.734,4.734,0,0,0,.877,5.611c0,.063,0,.128,0,.192l-.793.8Z" transform="translate(22.471 680)"/><g transform="translate(26.36 682.168)"><path class="j" d="M101.865,42.475v-.841l-.148-.011a2.844,2.844,0,0,1-1.215-.355l.227-.778a2.726,2.726,0,0,0,1.334.37c.557,0,.932-.281.932-.7,0-.384-.275-.641-.95-.887-.769-.278-1.479-.655-1.479-1.521a1.422,1.422,0,0,1,1.254-1.421l.126-.028V35.5h.722v.762l.147.013a3.1,3.1,0,0,1,1,.263l-.227.761-.032-.014a2.506,2.506,0,0,0-1.131-.272c-.617,0-.837.321-.837.621,0,.374.339.576,1.052.861.988.37,1.39.826,1.39,1.573a1.52,1.52,0,0,1-1.318,1.491l-.127.027v.89Z" transform="translate(-100.502 -35.5)"/></g><g transform="translate(33.297 688.033) rotate(-135)"><g transform="translate(0 0)"><path class="j" d="M0,0H.7l0,2.661H0Z" transform="translate(0 2.662) rotate(-90)"/><path class="j" d="M0,0H.7l0,2.661H0Z" transform="translate(1.961 0)"/></g></g><g transform="translate(23.01 683.338) rotate(45)"><g transform="translate(0 0)"><path class="j" d="M0,0H.7l0,2.661H0Z" transform="translate(0 2.662) rotate(-90)"/><path class="j" d="M0,0H.7l0,2.661H0Z" transform="translate(1.961 0)"/></g></g></g><g transform="translate(313.821 -550)"><path class="j" d="M5.611,11.222a5.618,5.618,0,0,1-5.066-3.2l.666-.669a4.734,4.734,0,0,0,9.134-1.648l.83-.835a5.711,5.711,0,0,1,.048.736,5.606,5.606,0,0,1-5.611,5.611ZM.087,6.6h0A5.663,5.663,0,0,1,0,5.611,5.612,5.612,0,0,1,10.768,3.4l-.677.681A4.734,4.734,0,0,0,.877,5.611c0,.063,0,.128,0,.192l-.793.8Z" transform="translate(22.471 680)"/><g transform="translate(26.36 682.168)"><path class="j" d="M101.865,42.475v-.841l-.148-.011a2.844,2.844,0,0,1-1.215-.355l.227-.778a2.726,2.726,0,0,0,1.334.37c.557,0,.932-.281.932-.7,0-.384-.275-.641-.95-.887-.769-.278-1.479-.655-1.479-1.521a1.422,1.422,0,0,1,1.254-1.421l.126-.028V35.5h.722v.762l.147.013a3.1,3.1,0,0,1,1,.263l-.227.761-.032-.014a2.506,2.506,0,0,0-1.131-.272c-.617,0-.837.321-.837.621,0,.374.339.576,1.052.861.988.37,1.39.826,1.39,1.573a1.52,1.52,0,0,1-1.318,1.491l-.127.027v.89Z" transform="translate(-100.502 -35.5)"/></g><g transform="translate(33.297 688.033) rotate(-135)"><g transform="translate(0 0)"><path class="j" d="M0,0H.7l0,2.661H0Z" transform="translate(0 2.662) rotate(-90)"/><path class="j" d="M0,0H.7l0,2.661H0Z" transform="translate(1.961 0)"/></g></g><g transform="translate(23.01 683.338) rotate(45)"><g transform="translate(0 0)"><path class="j" d="M0,0H.7l0,2.661H0Z" transform="translate(0 2.662) rotate(-90)"/><path class="j" d="M0,0H.7l0,2.661H0Z" transform="translate(1.961 0)"/></g></g></g><g transform="translate(18 112.857)"><path class="j" d="M102.288,44.643v-1.1l-.194-.015a3.727,3.727,0,0,1-1.592-.466l.3-1.019a3.573,3.573,0,0,0,1.748.485c.73,0,1.221-.368,1.221-.916,0-.5-.361-.84-1.245-1.162-1.007-.365-1.939-.858-1.939-1.994a1.864,1.864,0,0,1,1.644-1.862l.165-.036V35.5h.946v1l.192.017a4.058,4.058,0,0,1,1.314.345l-.3,1-.041-.019a3.285,3.285,0,0,0-1.483-.357c-.809,0-1.1.421-1.1.814,0,.49.445.754,1.379,1.128,1.3.486,1.822,1.082,1.822,2.062A1.993,1.993,0,0,1,103.4,43.44l-.166.036v1.167Z" transform="translate(-100.502 -15.5)"/></g><g transform="translate(298 354)"><path class="j" d="M102.288,44.643v-1.1l-.194-.015a3.727,3.727,0,0,1-1.592-.466l.3-1.019a3.573,3.573,0,0,0,1.748.485c.73,0,1.221-.368,1.221-.916,0-.5-.361-.84-1.245-1.162-1.007-.365-1.939-.858-1.939-1.994a1.864,1.864,0,0,1,1.644-1.862l.165-.036V35.5h.946v1l.192.017a4.058,4.058,0,0,1,1.314.345l-.3,1-.041-.019a3.285,3.285,0,0,0-1.483-.357c-.809,0-1.1.421-1.1.814,0,.49.445.754,1.379,1.128,1.3.486,1.822,1.082,1.822,2.062A1.993,1.993,0,0,1,103.4,43.44l-.166.036v1.167Z" transform="translate(-350.502 -75.5)"/></g><g transform="translate(216 221.857)"><path class="j" d="M102.288,44.643v-1.1l-.194-.015a3.727,3.727,0,0,1-1.592-.466l.3-1.019a3.573,3.573,0,0,0,1.748.485c.73,0,1.221-.368,1.221-.916,0-.5-.361-.84-1.245-1.162-1.007-.365-1.939-.858-1.939-1.994a1.864,1.864,0,0,1,1.644-1.862l.165-.036V35.5h.946v1l.192.017a4.058,4.058,0,0,1,1.314.345l-.3,1-.041-.019a3.285,3.285,0,0,0-1.483-.357c-.809,0-1.1.421-1.1.814,0,.49.445.754,1.379,1.128,1.3.486,1.822,1.082,1.822,2.062A1.993,1.993,0,0,1,103.4,43.44l-.166.036v1.167Z" transform="translate(-100.502 -34.5)"/><g transform="translate(-120 -12)"><path class="j" d="M102.288,44.643v-1.1l-.194-.015a3.727,3.727,0,0,1-1.592-.466l.3-1.019a3.573,3.573,0,0,0,1.748.485c.73,0,1.221-.368,1.221-.916,0-.5-.361-.84-1.245-1.162-1.007-.365-1.939-.858-1.939-1.994a1.864,1.864,0,0,1,1.644-1.862l.165-.036V35.5h.946v1l.192.017a4.058,4.058,0,0,1,1.314.345l-.3,1-.041-.019a3.285,3.285,0,0,0-1.483-.357c-.809,0-1.1.421-1.1.814,0,.49.445.754,1.379,1.128,1.3.486,1.822,1.082,1.822,2.062A1.993,1.993,0,0,1,103.4,43.44l-.166.036v1.167Z" transform="translate(-100.502 -35.5)"/></g></g><g transform="translate(221 137.857)"><path class="j" d="M102.386,45.143V43.981l-.2-.016a3.931,3.931,0,0,1-1.679-.491l.313-1.075a3.769,3.769,0,0,0,1.844.512c.77,0,1.288-.388,1.288-.966,0-.53-.38-.886-1.313-1.226-1.063-.385-2.045-.905-2.045-2.1a1.966,1.966,0,0,1,1.734-1.964l.174-.038V35.5h1v1.053l.2.018a4.28,4.28,0,0,1,1.386.364l-.314,1.052-.044-.02a3.465,3.465,0,0,0-1.564-.376c-.853,0-1.157.444-1.157.859,0,.517.469.8,1.455,1.19,1.366.512,1.921,1.142,1.921,2.175a2.1,2.1,0,0,1-1.822,2.061l-.175.038v1.231Z" transform="translate(-100.502 -35.5)"/></g><g transform="translate(299 173.857)"><path class="j" d="M102.386,45.143V43.981l-.2-.016a3.931,3.931,0,0,1-1.679-.491l.313-1.075a3.769,3.769,0,0,0,1.844.512c.77,0,1.288-.388,1.288-.966,0-.53-.38-.886-1.313-1.226-1.063-.385-2.045-.905-2.045-2.1a1.966,1.966,0,0,1,1.734-1.964l.174-.038V35.5h1v1.053l.2.018a4.28,4.28,0,0,1,1.386.364l-.314,1.052-.044-.02a3.465,3.465,0,0,0-1.564-.376c-.853,0-1.157.444-1.157.859,0,.517.469.8,1.455,1.19,1.366.512,1.921,1.142,1.921,2.175a2.1,2.1,0,0,1-1.822,2.061l-.175.038v1.231Z" transform="translate(-100.502 -35.5)"/></g><g transform="translate(101 16.857)"><path class="j" d="M102.386,45.143V43.981l-.2-.016a3.931,3.931,0,0,1-1.679-.491l.313-1.075a3.769,3.769,0,0,0,1.844.512c.77,0,1.288-.388,1.288-.966,0-.53-.38-.886-1.313-1.226-1.063-.385-2.045-.905-2.045-2.1a1.966,1.966,0,0,1,1.734-1.964l.174-.038V35.5h1v1.053l.2.018a4.28,4.28,0,0,1,1.386.364l-.314,1.052-.044-.02a3.465,3.465,0,0,0-1.564-.376c-.853,0-1.157.444-1.157.859,0,.517.469.8,1.455,1.19,1.366.512,1.921,1.142,1.921,2.175a2.1,2.1,0,0,1-1.822,2.061l-.175.038v1.231Z" transform="translate(-100.502 -35.5)"/></g><circle class="j" cx="2" cy="2" r="2" transform="translate(16 16)"/><circle class="j" cx="2" cy="2" r="2" transform="translate(188 8)"/><circle class="j" cx="2" cy="2" r="2" transform="translate(344 212)"/><circle class="j" cx="2" cy="2" r="2" transform="translate(4 184)"/></svg>